<ttFont>
          <CharString index="0">
            -1 -7 -2 -8 1 -7 0 -49 35 -36 52 0 59 0 58 48 13 59 2 8 1 7 0 8 0 48 -35 37 -52 0 -59 0 -59 -48 -13 -60 rrcurveto
            return
          </CharString>
          <CharString index="1">
            -1 -3 0 -3 0 -3 -1 -27 22 -12 23 0 24 0 32 17 9 31 rrcurveto
            101 374 rlineto
            1 7 1 7 0 6 -1 38 -27 18 -32 0 rrcurveto
            -4 hlineto
            -36 0 -41 -26 -11 -50 rrcurveto
            return
          </CharString>
          <CharString index="2">
            966 1182 -144 0 -972 -1182 rlineto
            return
          </CharString>
          <CharString index="3">
            -30 -142 307 0 -66 -311 141 0 66 311 308 0 30 142 -308 0 66 311 -141 0 -66 -311 rlineto
            return
          </CharString>
          <CharString index="4">
            2 8 1 7 0 8 0 48 -35 37 -52 0 -59 0 -59 -48 -13 -60 -1 -7 -2 -8 1 -7 0 -49 35 -35 52 0 -15 -72 -67 -76 -27 -30 rrcurveto
            49 -31 rlineto
            29 35 128 123 33 157 rrcurveto
            return
          </CharString>
          <CharString index="5">
            -30 -142 677 0 30 142 rlineto
            return
          </CharString>
          <CharString index="6">
            -968 0 -31 -149 747 0 -794 -1307 182 0 rlineto
            return
          </CharString>
          <CharString index="7">
            -30 -142 800 0 30 142 rlineto
            return
          </CharString>
          <CharString index="8">
            -30 -141 800 0 30 141 rlineto
            return
          </CharString>
          <CharString index="9">
            85 -593 -415 0 rlineto
            return
          </CharString>
          <CharString index="10">
            57 -485 180 0 -215 1456 -127 0 -833 -1456 176 0 265 485 rlineto
            return
          </CharString>
          <CharString index="11">
            319 hlineto
            203 0 78 -95 -1 -116 rrcurveto
            -6 vlineto
            0 -19 -3 -19 -4 -20 -30 -143 -123 -146 -240 0 rrcurveto
            -319 hlineto
            return
          </CharString>
          <CharString index="12">
            36 0 170 -2 31 0 238 0 51 -101 0 -84 0 -18 -3 -17 -3 -16 -19 -88 -76 -147 -289 0 rrcurveto
            -237 hlineto
            return
          </CharString>
          <CharString index="13">
            -309 -1456 477 0 rlineto
            436 0 112 287 29 137 4 21 3 24 0 27 0 124 -58 162 -202 0 108 0 174 133 35 164 5 25 3 26 1 26 rrcurveto
            145 -95 155 -328 vhcurveto
            return
          </CharString>
          <CharString index="14">
            0 0 -84 25 -54 16 -66 -119 -157 -104 -144 0 -217 0 -108 187 0 238 0 61 7 63 14 65 66 312 214 317 288 0 rrcurveto
            2 hlineto
            136 0 110 -78 13 -123 0 0 97 25 61 16 -19 133 -103 168 -265 0 -409 0 -274 -381 -83 -389 -17 -78 -8 -77 0 -73 0 -292 138 -234 327 0 rrcurveto
            265 0 175 162 95 160 rrcurveto
            return
          </CharString>
          <CharString index="15">
            -74 -346 -166 -240 -348 0 rrcurveto
            -245 0 250 1174 245 0 rlineto
            273 84 -203 -207 hvcurveto
            0 -61 -7 -61 -12 -56 rrcurveto
            return
          </CharString>
          <CharString index="16">
            15 69 7 68 0 65 rrcurveto
            291 -148 236 -308 vhcurveto
            -444 0 -309 -1456 444 0 rlineto
            377 0 279 319 87 408 rrcurveto
            return
          </CharString>
          <CharString index="17">
            -309 -1456 921 0 30 141 -763 0 114 535 720 0 30 141 -720 0 106 498 763 0 29 141 rlineto
            return
          </CharString>
          <CharString index="18">
            -309 -1456 158 0 144 676 720 0 30 141 -720 0 106 498 763 0 29 141 rlineto
            return
          </CharString>
          <CharString index="19">
            6 hlineto
            372 0 229 348 62 291 rrcurveto
            18 86 -549 0 -30 -141 393 0 rlineto
            -35 -166 -143 -278 -293 0 -225 0 -97 205 0 230 0 61 6 63 13 61 58 273 223 350 288 0 152 0 61 -66 49 -96 0 0 93 41 60 27 rrcurveto
            -60 141 -101 94 -224 0 -411 0 -282 -424 -72 -340 -16 -74 -7 -73 0 -70 0 -301 147 -242 315 0 rrcurveto
            return
          </CharString>
          <CharString index="20">
            -309 -1456 158 0 143 674 661 0 -143 -674 158 0 309 1456 -158 0 -136 -641 -661 0 136 641 rlineto
            return
          </CharString>
          <CharString index="21">
            157 0 309 1456 -157 0 rlineto
            return
          </CharString>
          <CharString index="22">
            -11 -53 -7 -51 0 -47 rrcurveto
            -6 vlineto
            -1 -234 126 -173 225 0 275 0 239 238 69 326 rrcurveto
            195 921 -158 0 -195 -921 rlineto
            -43 -201 -157 -213 -193 0 -156 0 -79 149 0 160 0 34 5 36 7 35 rrcurveto
            return
          </CharString>
          <CharString index="23">
            -309 -1456 158 0 110 516 227 186 412 -702 207 0 -493 803 786 653 -193 0 -907 -754 160 754 rlineto
            return
          </CharString>
          <CharString index="24">
            -309 -1456 923 0 30 141 -765 0 279 1315 rlineto
            return
          </CharString>
          <CharString index="25">
            153 0 256 1204 175 -1188 179 0 681 1188 -256 -1204 153 0 309 1456 -207 0 -725 -1247 -194 1247 -215 0 rlineto
            return
          </CharString>
          <CharString index="26">
            158 0 253 1190 494 -1190 145 0 309 1456 -157 0 -246 -1161 -494 1161 -153 0 rlineto
            return
          </CharString>
          <CharString index="27">
            -57 -268 -172 -344 -321 0 -236 0 -76 187 0 207 1 73 8 75 15 70 57 270 173 359 322 0 237 0 73 -193 1 -209 0 -76 -10 -79 -15 -72 rrcurveto
            return
          </CharString>
          <CharString index="28">
            -14 -68 -9 -73 0 -73 0 -272 112 -268 335 0 428 0 250 435 68 319 15 71 9 77 0 77 0 272 -111 273 -335 0 -428 0 -252 -448 -68 -322 rrcurveto
            return
          </CharString>
          <CharString index="29">
            115 541 206 0 rlineto
            272 62 -107 -101 hvcurveto
            1 -21 -3 -20 -4 -19 -27 -129 -96 -144 -320 0 rrcurveto
            return
          </CharString>
          <CharString index="30">
            -309 -1456 158 0 134 631 206 0 rlineto
            379 0 209 190 48 226 6 29 3 28 1 28 -1 190 -154 134 -316 0 rrcurveto
            -206 hlineto
            return
          </CharString>
          <CharString index="31">
            115 541 206 0 rlineto
            241 93 -84 -123 hvcurveto
            0 -19 -1 -21 -5 -21 -26 -121 -91 -152 -326 0 rrcurveto
            return
          </CharString>
          <CharString index="32">
            181 0 -296 648 rlineto
            232 40 175 162 42 197 6 29 3 28 0 26 rrcurveto
            211 -195 115 -277 vhcurveto
            -206 0 -158 0 -309 -1456 158 0 134 631 215 0 rlineto
            return
          </CharString>
          <CharString index="33">
            30 -195 117 -161 271 0 270 0 252 128 57 269 7 33 3 31 0 28 0 208 -171 96 -128 60 -147 69 -165 39 0 151 0 16 2 18 4 19 rrcurveto
            26 124 130 94 154 0 159 0 94 -98 10 -87 rrcurveto
            158 25 rlineto
            -17 166 -135 135 -239 0 -234 0 -220 -134 -48 -225 -7 -33 -3 -31 0 -28 0 -178 133 -69 114 -52 108 -49 265 -85 0 -192 0 -15 -1 -16 -4 -17 rrcurveto
            -33 -157 -182 -101 -182 0 -163 0 -107 139 -2 106 rrcurveto
            return
          </CharString>
          <CharString index="34">
            -29 -141 477 0 -280 -1315 158 0 280 1315 457 0 29 141 rlineto
            return
          </CharString>
          <CharString index="35">
            -172 -811 rlineto
            -79 -371 -200 -161 -195 0 -158 0 -112 104 0 233 0 58 7 64 16 73 rrcurveto
            172 811 -162 0 -172 -811 rlineto
            -18 -83 -9 -77 0 -70 0 -283 142 -161 264 0 328 0 247 252 90 422 rrcurveto
            172 811 rlineto
            return
          </CharString>
          <CharString index="36">
            -660 -1288 -112 1288 -170 0 137 -1456 219 0 750 1456 rlineto
            return
          </CharString>
          <CharString index="37">
            -82 -1456 224 0 527 1229 5 -1229 219 0 539 1456 -160 0 -455 -1274 -11 1237 -195 0 -537 -1237 86 1274 rlineto
            return
          </CharString>
          <CharString index="38">
            307 -727 -610 -729 178 0 485 586 228 -586 190 0 -304 729 607 727 -182 0 -483 -606 -234 606 rlineto
            return
          </CharString>
          <CharString index="39">
            294 -708 -159 -748 158 0 159 748 596 708 -168 0 -483 -600 -229 600 rlineto
            return
          </CharString>
          <CharString index="40">
            -29 -141 844 0 -1153 -1315 1145 0 30 141 -876 0 1143 1315 rlineto
            return
          </CharString>
          <CharString index="41">
            -207 344 -131 0 -349 -342 186 0 203 211 110 -213 rlineto
            return
          </CharString>
          <CharString index="42">
            -228 250 rlineto
            -13 13 -14 5 -17 0 -6 0 -6 0 -6 -2 -18 -4 -15 -10 -13 -14 -14 -13 -9 -16 -4 -17 -1 -3 0 -2 0 -3 rrcurveto
            -9 vlineto
            1 -15 7 -14 11 -12 rrcurveto
            258 -219 rlineto
            7 -6 8 -3 9 0 4 0 6 1 5 1 14 3 12 7 10 10 10 11 7 11 3 13 1 4 0 4 0 3 0 10 -3 8 -6 8 rrcurveto
            return
          </CharString>
          <CharString index="43">
            100 92 -74 -115 hvcurveto
            0 -16 -1 -16 -4 -17 -28 -133 -133 -105 -127 0 -124 0 -83 76 0 110 0 16 2 18 4 18 27 129 124 109 151 0 rrcurveto
            return
          </CharString>
          <CharString index="44">
            -205 0 -201 -158 -46 -215 -7 -32 -3 -30 0 -29 0 -174 120 -108 183 0 155 0 140 138 16 49 rrcurveto
            -1 -2 -33 -156 139 0 113 532 26 123 rlineto
            9 45 5 41 0 38 0 203 -127 108 -179 0 -143 0 -101 -52 -82 -57 rrcurveto
            55 -104 rlineto
            55 45 93 32 94 0 126 0 66 -71 0 -127 0 -31 -4 -33 -8 -37 rrcurveto
            -20 -96 rlineto
            -2 51 -78 107 -155 0 rrcurveto
            return
          </CharString>
          <CharString index="45">
            -152 0 -309 -1454 152 0 39 184 rlineto
            24 -108 54 -105 174 0 282 0 175 283 61 285 14 68 8 67 0 63 0 205 -84 160 -214 0 -172 0 -103 -106 -70 -110 rrcurveto
            return
          </CharString>
          <CharString index="46">
            -58 -275 -155 -158 -148 0 -118 0 -84 100 0 179 0 46 5 50 12 56 58 275 161 154 148 0 117 0 80 -93 0 -175 0 -47 -5 -53 -13 -59 rrcurveto
            return
          </CharString>
          <CharString index="47">
            145 66 rlineto
            -40 118 -90 101 -162 0 -287 0 -232 -271 -61 -286 -11 -52 -5 -51 0 -48 0 -239 133 -176 222 0 165 0 140 115 82 101 rrcurveto
            -106 77 rlineto
            -31 -47 -97 -111 -124 0 -137 0 -93 110 0 183 0 42 4 46 11 50 53 247 179 174 166 0 102 0 66 -92 8 -57 rrcurveto
            return
          </CharString>
          <CharString index="48">
            -121 -568 rlineto
            -24 110 -57 106 -172 0 -280 0 -173 -274 -61 -289 -14 -67 -8 -67 0 -63 0 -205 82 -166 215 0 175 0 98 105 70 108 rrcurveto
            -39 -184 152 0 309 1454 rlineto
            return
          </CharString>
          <CharString index="49">
            59 277 152 150 148 0 118 0 85 -97 0 -179 0 -46 -6 -51 -12 -56 -58 -273 -161 -158 -148 0 -116 0 -80 98 0 175 0 48 7 53 12 59 rrcurveto
            return
          </CharString>
          <CharString index="50">
            47 170 130 184 160 0 132 0 60 -123 0 -145 0 -28 -3 -29 -4 -29 rrcurveto
            return
          </CharString>
          <CharString index="51">
            668 hlineto
            5 23 9 51 5 22 11 52 6 52 0 50 0 204 -94 171 -216 0 -266 0 -206 -242 -67 -315 -13 -63 -7 -61 0 -56 0 -225 107 -161 213 0 rrcurveto
            155 0 172 84 97 133 rrcurveto
            -121 55 rlineto
            -60 -81 -120 -56 -94 0 -134 0 -56 127 0 149 0 28 2 30 4 29 rrcurveto
            return
          </CharString>
          <CharString index="52">
            196 0 29 135 -195 0 37 176 rlineto
            13 62 54 35 51 0 59 0 14 -23 16 -29 rrcurveto
            131 105 rlineto
            -37 45 -37 37 -86 0 -101 0 -203 -105 -36 -168 rrcurveto
            -29 -135 -138 0 -29 -135 139 0 -199 -938 152 0 rlineto
            return
          </CharString>
          <CharString index="53">
            4 18 228 1073 -152 0 -40 -187 rlineto
            -24 110 -57 106 -172 0 -280 0 -173 -274 -61 -289 -14 -67 -8 -67 0 -63 0 -205 82 -166 216 0 174 0 98 105 70 108 rrcurveto
            -39 -184 -7 -33 rlineto
            -41 -192 -157 -88 -125 0 -115 0 -105 79 0 115 rrcurveto
            10 -143 vlineto
            -1 -8 0 -9 0 -9 0 -140 104 -174 241 0 202 0 237 158 58 273 rrcurveto
            return
          </CharString>
          <CharString index="54">
            115 540 rlineto
            48 228 121 197 186 0 136 0 54 -101 0 -146 0 -54 -8 -60 -13 -63 rrcurveto
            -115 -541 151 0 115 541 rlineto
            18 85 9 75 0 65 0 233 -111 103 -167 0 -158 0 -132 -98 -59 -112 rrcurveto
            119 564 -152 0 -309 -1456 rlineto
            return
          </CharString>
          <CharString index="55">
            -228 -1073 151 0 228 1073 rlineto
            return
          </CharString>
          <CharString index="56">
            -1 -6 -1 -7 0 -6 0 -42 32 -33 44 0 51 0 52 43 11 51 1 7 2 6 -1 6 0 43 -31 32 -45 0 -51 0 -52 -43 -11 -51 rrcurveto
            return
          </CharString>
          <CharString index="57">
            -1 -7 -1 -6 0 -6 0 -43 33 -32 43 0 51 0 52 43 11 51 1 7 1 6 0 6 0 43 -33 32 -43 0 -51 0 -52 -43 -11 -51 rrcurveto
            return
          </CharString>
          <CharString index="58">
            31 -37 36 -45 90 0 70 0 229 68 47 221 rrcurveto
            30 139 228 1073 -152 0 -228 -1073 -36 -170 rlineto
            -18 -84 -42 -39 -68 0 -49 0 -20 27 -19 22 rrcurveto
            return
          </CharString>
          <CharString index="59">
            482 457 -174 0 -513 -491 185 872 -152 0 -309 -1454 152 0 81 379 134 133 270 -512 174 0 rlineto
            return
          </CharString>
          <CharString index="60">
            265 1247 -151 0 -266 -1251 rlineto
            -6 -26 -2 -22 0 -21 rrcurveto
            -125 88 -38 141 vhcurveto
            28 131 rlineto
            -60 -40 22 53 hvcurveto
            0 9 1 10 2 11 rrcurveto
            return
          </CharString>
          <CharString index="61">
            117 549 rlineto
            46 216 87 193 176 0 108 0 34 -76 0 -109 0 -68 -13 -79 -18 -83 rrcurveto
            -115 -543 151 0 139 653 rlineto
            14 66 8 62 0 55 0 163 -69 103 -166 0 -153 0 -122 -112 -61 -130 -5 130 -73 112 -163 0 -158 0 -80 -110 -68 -101 rrcurveto
            39 182 -152 0 -228 -1073 152 0 117 550 rlineto
            46 215 85 200 175 0 109 0 36 -78 0 -111 0 -68 -14 -80 -17 -81 rrcurveto
            -116 -547 rlineto
            return
          </CharString>
          <CharString index="62">
            115 540 rlineto
            48 228 121 197 186 0 136 0 54 -101 0 -146 0 -54 -8 -60 -13 -63 rrcurveto
            -115 -541 151 0 115 541 rlineto
            18 85 9 75 0 65 0 233 -111 103 -167 0 -158 0 -132 -98 -59 -112 rrcurveto
            38 181 -152 0 -228 -1073 rlineto
            return
          </CharString>
          <CharString index="63">
            -13 -63 -7 -60 0 -57 0 -225 108 -161 229 0 289 0 200 250 67 316 13 62 7 59 0 55 0 223 -108 158 -229 0 -287 0 -202 -242 -67 -315 rrcurveto
            return
          </CharString>
          <CharString index="64">
            49 231 121 190 203 0 151 0 60 -107 0 -151 0 -50 -7 -55 -12 -58 -50 -233 -122 -198 -201 0 -151 0 -60 110 0 153 0 52 6 57 13 59 rrcurveto
            return
          </CharString>
          <CharString index="65">
            -152 0 -319 -1501 152 0 130 612 rlineto
            24 -108 54 -105 174 0 283 0 174 283 61 285 14 68 8 67 0 63 0 205 -84 160 -214 0 -172 0 -103 -106 -70 -110 rrcurveto
            return
          </CharString>
          <CharString index="66">
            -41 24 -49 12 -54 0 -158 0 -132 -98 -59 -112 rrcurveto
            38 181 -152 0 -228 -1073 152 0 115 540 rlineto
            48 228 121 197 186 0 42 0 36 -11 27 -19 rrcurveto
            return
          </CharString>
          <CharString index="67">
            82 -28 98 -41 0 -91 0 -9 -1 -10 -2 -11 -24 -113 -96 -68 -135 0 -131 0 -47 57 -19 82 rrcurveto
            -153 -28 rlineto
            17 -139 95 -107 213 0 197 0 197 130 40 186 5 23 2 20 0 20 0 179 -188 52 -116 46 -53 21 -108 31 0 100 0 10 1 12 3 12 rrcurveto
            21 101 110 49 98 0 125 0 42 -65 13 -57 rrcurveto
            152 30 rlineto
            -10 86 -68 141 -228 0 -186 -2 -182 -96 -41 -191 -5 -22 -2 -22 0 -19 0 -158 147 -63 137 -48 rrcurveto
            return
          </CharString>
          <CharString index="68">
            -154 -727 rlineto
            -7 -32 -4 -29 0 -25 rrcurveto
            -107 66 -47 162 vhcurveto
            70 0 27 127 -70 0 rlineto
            -64 -33 27 53 hvcurveto
            0 11 2 13 3 13 rrcurveto
            153 723 197 0 29 135 -197 0 53 250 -151 0 -53 -250 -142 0 -29 -135 rlineto
            return
          </CharString>
          <CharString index="69">
            -115 -540 rlineto
            -48 -228 -121 -197 -186 0 -136 0 -54 101 0 146 0 54 8 60 13 63 rrcurveto
            115 541 -151 0 -115 -541 rlineto
            -18 -85 -9 -75 0 -65 0 -233 111 -103 167 0 158 0 132 98 59 112 rrcurveto
            -38 -181 152 0 228 1073 rlineto
            return
          </CharString>
          <CharString index="70">
            152 0 597 1073 -158 0 -474 -878 -93 878 -160 0 rlineto
            return
          </CharString>
          <CharString index="71">
            39 -862 122 0 515 1073 -153 0 -368 -823 -36 815 -151 0 -382 -815 -18 823 -153 0 58 -1073 117 0 rlineto
            return
          </CharString>
          <CharString index="72">
            -204 543 424 530 -170 0 -325 -434 -142 434 -170 0 199 -534 -429 -539 176 0 324 440 147 -440 rlineto
            return
          </CharString>
          <CharString index="73">
            232 1091 -152 0 -115 -540 rlineto
            -48 -228 -121 -197 -186 0 -136 0 -54 101 0 146 0 54 8 60 13 63 rrcurveto
            115 541 -151 0 -115 -541 rlineto
            -18 -85 -9 -75 0 -65 0 -233 111 -103 167 0 158 0 132 98 59 112 -15 -71 -15 -72 -15 -71 -41 -192 -169 -88 -125 0 -127 0 -64 61 -39 62 rrcurveto
            -124 -85 rlineto
            53 -81 93 -93 180 0 203 0 257 158 58 273 rrcurveto
            return
          </CharString>
          <CharString index="74">
            763 932 -776 0 -30 -141 524 0 -763 -932 787 0 30 141 rlineto
            return
          </CharString>
          <CharString index="75">
            -31 -146 rlineto
            66 46 58 51 78 0 82 0 39 -152 115 0 74 0 64 51 71 48 rrcurveto
            31 145 rlineto
            -71 -45 -68 -53 -70 0 -104 0 -32 151 -98 0 -78 0 -72 -59 -54 -37 rrcurveto
            return
          </CharString>
          <CharString index="76">
            -12 -57 -15 -55 -20 -55 -20 -55 -26 -54 -33 -55 -33 -55 -35 -47 -40 -41 -40 -41 -46 -32 -55 -26 -55 -26 -58 -13 -62 0 -57 0 -48 11 -42 21 rrcurveto
            -42 21 -33 30 -23 38 -23 38 -18 41 -10 45 -10 43 -6 46 0 52 rrcurveto
            8 vlineto
            0 71 8 73 16 74 12 57 16 56 20 56 20 56 26 56 32 56 32 56 36 50 40 42 40 42 47 35 55 27 55 27 59 13 62 0 rrcurveto
            57 0 50 -10 41 -22 41 -22 33 -30 23 -39 23 -39 17 -42 10 -46 10 -46 6 -51 0 -55 -1 -73 -7 -75 -17 -79 rrcurveto
            return
          </CharString>
          <CharString index="77">
            -16 -74 -7 -72 0 -72 0 -71 8 -66 16 -61 16 -61 24 -57 34 -52 34 -52 45 -41 60 -30 60 -30 70 -15 80 0 82 0 77 16 75 32 rrcurveto
            75 32 65 42 55 51 55 51 48 60 44 67 44 67 36 68 27 67 27 67 22 67 14 67 16 74 8 76 0 79 0 70 -7 66 -16 61 rrcurveto
            -16 62 -24 58 -34 53 -34 53 -46 41 -59 31 -59 31 -70 15 -81 0 -82 0 -78 -16 -75 -33 -75 -33 -65 -43 -54 -53 -54 -53 -50 -60 -45 -69 rrcurveto
            -45 -69 -35 -68 -28 -69 -28 -69 -20 -68 -14 -67 rrcurveto
            return
          </CharString>
          <CharString index="78">
            1 7 2 8 -1 7 0 49 -35 36 -52 0 -59 0 -58 -48 -13 -59 -2 -8 -1 -7 0 -8 0 -48 35 -37 52 0 59 0 59 48 13 60 rrcurveto
            return
          </CharString>
          <CharString index="79">
            -2 -8 0 -5 0 -4 0 -23 7 -19 14 -14 14 -14 19 -8 22 0 25 0 23 9 23 19 23 19 14 22 6 26 2 8 0 6 0 5 rrcurveto
            -1 21 -7 19 -14 14 -14 14 -18 7 -22 0 -25 0 -24 -9 -23 -19 -23 -19 -14 -22 -5 -25 rrcurveto
            return
          </CharString>
          <CharString index="80">
            -1 -5 0 -6 -1 -8 0 -22 8 -18 14 -14 14 -14 18 -8 22 0 25 0 24 9 23 19 23 19 13 22 6 26 2 8 0 6 0 5 rrcurveto
            -1 21 -6 19 -14 14 -14 14 -19 7 -22 0 -25 0 -24 -9 -23 -19 -23 -19 -14 -22 -5 -25 rrcurveto
            return
          </CharString>
          <CharString index="81">
            -23 -106 677 0 23 106 rlineto
            return
          </CharString>
          <CharString index="82">
            18 35 rlineto
            17 32 22 24 26 17 26 17 25 8 26 0 26 0 20 -10 16 -20 11 -14 5 -16 0 -21 0 -10 -2 -10 -2 -12 rrcurveto
            -11 -31 -13 -23 -18 -23 -21 -19 -25 -19 -25 -17 rlineto
            -2 -2 -10 -4 -15 -9 rrcurveto
            -26 -16 rlineto
            -29 -18 -25 -16 -22 -16 -22 -16 -25 -19 -27 -23 -27 -23 -23 -24 -20 -25 -20 -25 -17 -29 -17 -32 -17 -32 -13 -33 -7 -35 rrcurveto
            -7 -35 524 0 30 140 -351 0 11 16 rlineto
            7 9 11 13 19 17 19 17 18 15 19 15 19 15 16 12 14 8 rrcurveto
            25 14 33 20 rlineto
            10 6 14 9 16 11 16 11 14 11 13 10 13 10 14 12 15 15 15 15 14 15 11 15 11 15 11 18 9 19 9 19 7 19 4 20 rrcurveto
            5 23 2 21 0 21 0 9 0 10 -1 9 -3 29 -6 24 -12 20 -12 20 -16 17 -18 14 -18 14 -19 10 -22 6 -22 6 -23 3 -25 0 rrcurveto
            -58 0 -58 -18 -57 -37 -57 -37 -42 -44 -26 -54 rrcurveto
            -15 -30 rlineto
            return
          </CharString>
          <CharString index="83">
            8 -36 rlineto
            10 -50 27 -39 42 -29 42 -29 46 -15 48 0 78 0 72 25 64 49 64 49 40 62 16 76 4 17 2 18 0 16 0 10 0 10 -2 10 rrcurveto
            -4 26 -9 22 -11 18 -10 17 -13 15 -12 12 19 16 20 21 19 28 19 28 12 30 7 32 3 16 2 15 0 15 0 26 -5 24 -10 22 rrcurveto
            -16 35 -23 27 -32 18 -32 18 -35 10 -39 0 -48 0 -46 -12 -44 -25 -44 -25 -36 -33 -30 -41 rrcurveto
            -24 -32 121 -62 22 32 rlineto
            12 18 14 15 16 10 16 10 19 5 19 0 rrcurveto
            3 hlineto
            22 0 19 -8 14 -17 10 -12 5 -14 0 -16 0 -6 -1 -7 -1 -6 -6 -28 -13 -22 -21 -18 -21 -18 -22 -9 -22 0 rrcurveto
            -84 0 -28 -132 74 0 rlineto
            16 0 16 -3 14 -5 14 -5 12 -8 10 -10 10 -10 8 -11 4 -15 4 -15 -1 -18 -4 -19 -8 -36 -17 -29 -30 -22 -30 -22 -33 -11 -38 0 rrcurveto
            -21 0 -19 6 -18 14 -18 14 -10 18 -6 21 rrcurveto
            -8 27 rlineto
            return
          </CharString>
          <CharString index="84">
            -8 -7 -7 -8 -4 -8 -2 -4 -2 -5 -1 -5 -1 -4 0 -3 0 -3 0 -9 3 -8 4 -8 6 -10 10 -7 12 -3 5 -1 4 -1 4 0 rrcurveto
            9 0 10 3 9 6 rrcurveto
            352 219 rlineto
            17 12 11 14 7 15 2 5 4 5 1 7 1 5 1 5 0 5 0 11 -3 11 -6 9 -7 14 -11 10 -16 4 -6 2 -6 0 -6 0 rrcurveto
            -17 0 -16 -5 -19 -13 rrcurveto
            return
          </CharString>
          <CharString index="85">
            16 -125 rlineto
            79 45 152 61 24 111 3 13 0 13 1 12 -1 54 -22 46 -28 34 rrcurveto
            -141 -56 rlineto
            18 -38 16 -24 0 -26 0 -6 0 -5 -1 -5 -8 -37 -73 -45 -35 -22 rrcurveto
            return
          </CharString>
          <CharString index="86">
            -128 -603 148 0 170 798 -97 0 -216 -195 rlineto
            return
          </CharString>
          <CharString index="87">
            1430 1746 -144 0 -1436 -1746 rlineto
            return
          </CharString>
          <CharString index="88">
            97 459 -140 0 -470 -599 335 0 -43 -199 148 0 43 199 94 0 30 140 rlineto
            return
          </CharString>
          <CharString index="89">
            136 173 -37 -173 rlineto
            return
          </CharString>
          <CharString index="90">
            19 35 rlineto
            17 32 21 24 26 17 26 17 25 8 26 0 26 0 20 -10 16 -20 11 -14 5 -16 0 -21 0 -10 -2 -10 -2 -12 rrcurveto
            -10 -31 -13 -23 -19 -23 -20 -19 -25 -19 -26 -17 rlineto
            -2 -2 -10 -4 -15 -9 rrcurveto
            -25 -16 rlineto
            -29 -18 -26 -16 -22 -16 -22 -16 -24 -19 -27 -23 -27 -23 -24 -24 -20 -25 -20 -25 -17 -29 -17 -32 -17 -32 -12 -33 -7 -35 rrcurveto
            -8 -35 524 0 30 140 -351 0 12 16 rlineto
            7 9 11 13 19 17 19 17 18 15 19 15 19 15 15 12 14 8 rrcurveto
            25 14 34 20 rlineto
            10 6 13 9 16 11 16 11 15 11 13 10 13 10 14 12 15 15 15 15 13 15 11 15 11 15 11 18 9 19 9 19 8 19 4 20 rrcurveto
            5 23 2 21 0 21 0 9 0 10 -1 9 -3 29 -7 24 -12 20 -12 20 -15 17 -18 14 -18 14 -20 10 -22 6 -22 6 -23 3 -25 0 rrcurveto
            -58 0 -58 -18 -57 -37 -57 -37 -41 -44 -26 -54 rrcurveto
            -16 -30 rlineto
            return
          </CharString>
          <CharString index="91">
            -228 250 rlineto
            -13 13 -14 5 -17 0 -6 0 -6 0 -6 -2 -18 -4 -15 -10 -13 -14 -14 -13 -9 -16 -4 -17 -1 -7 0 -5 0 -5 1 -15 7 -14 11 -12 rrcurveto
            258 -219 rlineto
            7 -6 8 -3 9 0 4 0 6 1 5 1 14 3 12 7 10 10 10 11 7 11 3 13 1 5 0 5 0 4 0 8 -3 8 -6 7 rrcurveto
            return
          </CharString>
          <CharString index="92">
            -8 -7 -7 -8 -4 -8 -2 -4 -2 -5 -1 -5 -3 -13 3 -11 6 -11 6 -10 10 -7 12 -3 5 -1 4 -1 4 0 9 0 10 3 9 6 rrcurveto
            352 219 rlineto
            17 12 11 14 7 15 2 5 4 5 1 7 1 5 1 5 0 5 0 11 -3 11 -6 9 -7 14 -11 10 -16 4 -6 2 -6 0 -6 0 rrcurveto
            -17 0 -16 -5 -19 -13 rrcurveto
            return
          </CharString>
          <CharString index="93">
            -207 344 -131 0 -350 -342 186 0 203 211 111 -213 rlineto
            return
          </CharString>
          <CharString index="94">
            -31 -146 rlineto
            66 46 58 51 78 0 82 0 39 -152 115 0 74 0 64 51 71 48 rrcurveto
            30 145 rlineto
            -71 -45 -67 -53 -70 0 -104 0 -32 151 -98 0 -78 0 -72 -59 -54 -37 rrcurveto
            return
          </CharString>
          <CharString index="95">
            -1 -5 0 -6 -1 -8 0 -22 7 -18 14 -14 14 -14 19 -8 22 0 25 0 24 9 23 19 23 19 13 22 6 26 2 8 0 6 0 5 rrcurveto
            -1 21 -7 19 -14 14 -14 14 -18 7 -22 0 -25 0 -24 -9 -23 -19 -23 -19 -14 -22 -5 -25 rrcurveto
            return
          </CharString>
          <CharString index="96">
            -4 -17 -2 -17 0 -16 0 -120 84 -89 129 0 146 0 140 115 31 144 4 17 2 17 0 16 0 119 -84 89 -129 0 -145 0 -142 -115 -30 -143 rrcurveto
            return
          </CharString>
          <CharString index="97">
            -137 -645 598 0 31 147 -442 0 105 494 442 0 31 147 -442 0 111 519 442 0 31 149 -709 0 -900 -1456 179 0 396 645 rlineto
            return
          </CharString>
          <CharString index="98">
            -94 -449 -204 0 314 523 rlineto
            return
          </CharString>
          <CharString index="99">
            -8 -7 -7 -8 -4 -8 -2 -4 -2 -5 -1 -5 -3 -13 3 -11 6 -11 6 -10 10 -7 12 -3 5 -1 4 -1 4 0 9 0 10 3 9 6 rrcurveto
            352 219 rlineto
            17 12 11 14 7 15 2 5 4 5 1 7 4 17 -3 16 -8 13 -7 14 -11 10 -16 4 -6 2 -6 0 -6 0 -17 0 -16 -5 -19 -13 rrcurveto
            return
          </CharString>
          <CharString index="100">
            -2 -8 0 -5 0 -4 0 -23 8 -19 14 -14 14 -14 18 -8 22 0 25 0 24 9 23 19 23 19 13 22 6 26 2 8 0 6 0 5 rrcurveto
            -1 21 -6 19 -14 14 -14 14 -19 7 -22 0 -25 0 -24 -9 -23 -19 -23 -19 -14 -22 -5 -25 rrcurveto
            return
          </CharString>
          <CharString index="101">
            -228 250 rlineto
            -13 13 -14 5 -17 0 -6 0 -6 0 -6 -2 -18 -4 -15 -10 -13 -14 -14 -13 -9 -16 -4 -17 -1 -7 0 -5 0 -5 1 -15 7 -14 11 -12 rrcurveto
            258 -219 rlineto
            7 -6 8 -3 9 0 4 0 6 1 5 1 14 3 12 7 10 10 10 11 7 11 3 13 1 4 0 4 0 3 0 10 -3 8 -6 8 rrcurveto
            return
          </CharString>
          <CharString index="102">
            -206 344 -131 0 -350 -342 186 0 203 211 110 -213 rlineto
            return
          </CharString>
          <CharString index="103">
            -2 -8 0 -5 0 -4 0 -23 7 -19 14 -14 14 -14 19 -8 22 0 25 0 24 9 23 19 23 19 13 22 6 26 2 8 0 6 0 5 rrcurveto
            -1 21 -7 19 -14 14 -14 14 -18 7 -22 0 -25 0 -24 -9 -23 -19 -23 -19 -14 -22 -5 -25 rrcurveto
            return
          </CharString>
          <CharString index="104">
            -2 -8 0 -5 0 -4 0 -23 7 -19 14 -14 14 -14 18 -8 22 0 25 0 24 9 23 19 23 19 14 22 6 26 2 8 0 6 0 5 rrcurveto
            -1 21 -7 19 -14 14 -14 14 -18 7 -22 0 -25 0 -24 -9 -23 -19 -23 -19 -14 -22 -5 -25 rrcurveto
            return
          </CharString>
          <CharString index="105">
            -1 -5 0 -6 -1 -8 0 -22 7 -18 14 -14 14 -14 19 -8 22 0 25 0 24 9 23 19 23 19 13 22 6 26 2 8 0 6 0 5 rrcurveto
            -1 21 -6 19 -14 14 -14 14 -19 7 -22 0 -25 0 -24 -9 -23 -19 -23 -19 -14 -22 -5 -25 rrcurveto
            return
          </CharString>
          <CharString index="106">
            -207 344 -131 0 -349 -342 186 0 202 211 111 -213 rlineto
            return
          </CharString>
          <CharString index="107">
            -227 250 rlineto
            -13 13 -15 5 -17 0 -6 0 -6 0 -6 -2 -18 -4 -15 -10 -13 -14 -14 -13 -9 -16 -4 -17 -1 -7 1 -5 0 -5 1 -15 6 -14 11 -12 rrcurveto
            258 -219 rlineto
            7 -6 9 -3 9 0 4 0 5 1 5 1 14 3 12 7 10 10 10 11 8 11 3 13 1 5 0 5 0 4 0 8 -4 8 -6 7 rrcurveto
            return
          </CharString>
          <CharString index="108">
            -8 -7 -6 -8 -4 -8 -2 -4 -2 -5 -1 -5 -3 -13 2 -11 6 -11 6 -10 10 -7 12 -3 5 -1 5 -1 4 0 9 0 9 3 9 6 rrcurveto
            352 219 rlineto
            17 12 12 14 7 15 2 5 3 5 1 7 1 5 1 5 0 5 0 11 -3 11 -6 9 -7 14 -11 10 -16 4 -6 2 -6 0 -6 0 rrcurveto
            -17 0 -15 -5 -19 -13 rrcurveto
            return
          </CharString>
          <CharString index="109">
            -227 250 rlineto
            -13 13 -15 5 -17 0 -6 0 -6 0 -6 -2 -18 -4 -15 -10 -13 -14 -14 -13 -9 -16 -4 -17 -1 -7 1 -5 0 -5 1 -15 6 -14 11 -12 rrcurveto
            258 -219 rlineto
            7 -6 9 -3 9 0 4 0 5 1 5 1 14 3 12 7 10 10 10 11 8 11 3 13 1 4 0 4 0 3 0 10 -4 8 -6 8 rrcurveto
            return
          </CharString>
          <CharString index="110">
            -228 -1073 152 0 228 1073 rlineto
            return
          </CharString>
          <CharString index="111">
            -8 -7 -6 -8 -4 -8 -2 -4 -2 -5 -1 -5 -3 -13 2 -11 6 -11 6 -10 10 -7 12 -3 5 -1 5 -1 4 0 9 0 9 3 9 6 rrcurveto
            352 219 rlineto
            17 12 12 14 7 15 2 5 3 5 1 7 4 17 -3 16 -8 13 -7 14 -11 10 -16 4 -6 2 -6 0 -6 0 -17 0 -15 -5 -19 -13 rrcurveto
            return
          </CharString>
          <CharString index="112">
            -41 1 -31 9 -22 16 -45 35 -30 54 -17 75 rrcurveto
            -81 hlineto
            -1 -3 0 -4 -1 -3 -2 -11 -2 -13 0 -13 0 -39 11 -48 21 -55 15 -38 27 -32 41 -27 39 -25 42 -13 44 0 44 0 48 13 49 25 rrcurveto
            53 27 41 32 31 38 60 74 34 60 10 45 1 3 0 4 1 3 rrcurveto
            -80 hlineto
            -63 -81 -55 -55 -45 -28 -26 -15 -33 -9 -37 -2 rrcurveto
            return
          </CharString>
          <CharString index="113">
            -41 1 -32 9 -22 16 -45 35 -30 54 -17 75 rrcurveto
            -81 hlineto
            -1 -3 0 -4 -1 -3 -2 -11 -2 -13 0 -13 0 -39 11 -48 21 -55 15 -38 27 -32 41 -27 39 -25 42 -13 44 0 44 0 48 13 49 25 rrcurveto
            53 27 41 32 31 38 60 74 34 60 10 45 1 3 0 4 1 3 rrcurveto
            -80 hlineto
            -63 -81 -55 -55 -45 -28 -26 -15 -32 -9 -37 -2 rrcurveto
            return
          </CharString>
          <CharString index="114">
            -11 10 -9 8 -5 4 -5 4 -7 8 -11 11 -11 11 -6 10 -4 10 -4 10 -1 9 2 9 1 3 2 5 2 7 4 11 9 14 13 15 rrcurveto
            13 15 16 17 17 17 rrcurveto
            -117 56 rlineto
            -52 -41 -36 -45 -21 -48 -6 -16 -4 -13 -2 -9 -2 -11 -1 -10 0 -10 0 -10 1 -10 2 -9 5 -19 10 -17 16 -16 16 -16 13 -14 12 -10 rrcurveto
            12 -10 16 -12 22 -15 22 -15 13 -9 6 -4 rrcurveto
            return
          </CharString>
          <CharString index="115">
            -8 -7 -6 -8 -4 -8 -2 -4 -2 -5 -1 -5 -1 -4 0 -3 0 -3 0 -9 2 -8 4 -8 6 -10 10 -7 12 -3 5 -1 5 -1 4 0 rrcurveto
            9 0 9 3 9 6 rrcurveto
            352 219 rlineto
            17 12 12 14 7 15 2 5 3 5 1 7 1 5 1 5 0 5 0 11 -3 11 -6 9 -7 14 -11 10 -16 4 -6 2 -6 0 -6 0 rrcurveto
            -17 0 -15 -5 -19 -13 rrcurveto
            return
          </CharString>
          <CharString index="116">
            -188 0 -201 -213 -113 211 -186 0 204 -342 131 0 rlineto
            return
          </CharString>
          <CharString index="117">
            -188 0 -201 -213 -114 211 -186 0 205 -342 131 0 rlineto
            return
          </CharString>
          <CharString index="118">
            1 5 0 4 1 4 1 4 0 3 0 4 0 17 -6 15 -9 10 -11 13 -15 7 -18 0 -21 0 -19 -8 -19 -17 -19 -17 -11 -20 -5 -24 rrcurveto
            -1 -6 -1 -7 0 -5 0 -20 5 -15 11 -13 11 -13 14 -6 18 0 -9 -40 -25 -48 -46 -55 rrcurveto
            34 -24 20 23 rlineto
            12 16 11 14 9 13 9 13 10 15 13 21 13 21 11 22 9 23 9 23 8 25 5 23 rrcurveto
            return
          </CharString>
          <CharString index="119">
            28 133 47 104 67 76 67 76 73 38 77 0 77 0 58 -38 37 -77 21 -44 10 -52 0 -62 0 -47 -6 -52 -12 -57 -28 -132 -49 -105 -70 -78 rrcurveto
            -70 -78 -73 -38 -77 0 -77 0 -57 38 -34 78 -19 43 -9 52 0 60 0 49 6 53 13 60 rrcurveto
            return
          </CharString>
          <CharString index="120">
            -22 -106 677 0 22 106 rlineto
            return
          </CharString>
          <CharString index="121">
            -41 1 -32 9 -22 16 -45 35 -30 54 -17 75 rrcurveto
            -81 hlineto
            -1 -3 0 -4 -1 -3 -2 -11 -1 -13 0 -13 0 -39 10 -48 21 -55 15 -38 28 -32 41 -27 39 -25 41 -13 44 0 44 0 49 13 49 25 rrcurveto
            53 27 40 32 31 38 60 74 34 60 10 45 1 3 0 4 1 3 rrcurveto
            -80 hlineto
            -63 -81 -55 -55 -45 -28 -26 -15 -32 -9 -37 -2 rrcurveto
            return
          </CharString>
          <CharString index="122">
            2 8 0 7 0 8 0 48 -35 37 -52 0 -59 0 -58 -48 -13 -60 -1 -7 -2 -8 1 -7 0 -49 35 -35 52 0 -15 -72 -68 -76 -27 -30 rrcurveto
            50 -31 rlineto
            29 35 128 123 33 157 rrcurveto
            return
          </CharString>
          <CharString index="123">
            -31 -146 rlineto
            23 16 23 16 19 14 19 14 21 12 24 10 24 10 25 5 24 0 15 0 14 -5 15 -10 15 -10 13 -13 13 -15 13 -15 13 -16 14 -15 rrcurveto
            14 -15 16 -13 19 -10 19 -10 21 -5 21 0 23 0 23 5 25 10 25 10 22 12 21 15 21 15 23 15 26 17 rrcurveto
            31 145 rlineto
            -25 -16 -23 -15 -21 -14 -21 -14 -25 -14 -25 -10 -25 -10 -23 -5 -21 0 -19 0 -19 5 -17 10 -17 10 -14 13 -13 15 -13 15 -13 14 -13 15 rrcurveto
            -13 15 -14 13 -17 10 -17 10 -17 6 -18 0 -24 0 -25 -5 -26 -11 -26 -11 -23 -13 -19 -14 -19 -14 -21 -15 -20 -13 rrcurveto
            return
          </CharString>
          <CharString index="124">
            -31 -146 rlineto
            23 16 22 16 19 14 19 14 22 12 24 10 24 10 24 5 24 0 15 0 15 -5 15 -10 15 -10 13 -13 13 -15 13 -15 13 -16 14 -15 rrcurveto
            14 -15 16 -13 19 -10 19 -10 21 -5 21 0 23 0 23 5 25 10 25 10 22 12 21 15 21 15 23 15 26 17 rrcurveto
            31 145 rlineto
            -25 -16 -24 -15 -21 -14 -21 -14 -24 -14 -25 -10 -25 -10 -23 -5 -21 0 -19 0 -19 5 -17 10 -17 10 -15 13 -13 15 -13 15 -13 14 -13 15 rrcurveto
            -13 15 -13 13 -17 10 -17 10 -17 6 -18 0 -24 0 -25 -5 -26 -11 -26 -11 -24 -13 -19 -14 -19 -14 -20 -15 -20 -13 rrcurveto
            return
          </CharString>
          <CharString index="125">
            -1 -5 0 -6 -1 -8 1 -21 7 -19 14 -14 14 -14 18 -7 22 0 25 0 24 9 23 19 23 19 14 22 5 25 2 9 0 6 0 4 rrcurveto
            -1 21 -6 19 -14 14 -14 14 -18 7 -23 0 -25 0 -24 -9 -23 -19 -23 -19 -14 -22 -5 -25 rrcurveto
            return
          </CharString>
          <CharString index="126">
            15 -18 12 -14 9 -8 9 -8 15 -9 22 -10 22 -10 25 -5 28 0 16 0 20 2 23 6 23 6 27 10 30 14 30 14 29 19 27 21 rrcurveto
            27 21 25 27 22 34 22 34 16 39 9 42 rrcurveto
            30 139 228 1073 -152 0 -228 -1073 -36 -170 rlineto
            -17 -82 -43 -41 -68 0 -9 0 -9 1 -8 2 -8 2 -7 3 -5 3 -5 3 -6 5 -5 4 -5 4 -5 4 -4 4 -4 4 -4 5 -4 5 rrcurveto
            return
          </CharString>
          <CharString index="127">
            -2 -7 0 -7 0 -7 0 -17 5 -16 11 -13 15 -18 20 -9 25 0 25 0 24 9 23 19 23 19 14 22 5 25 2 7 1 7 0 7 rrcurveto
            0 17 -5 16 -11 13 -15 18 -21 9 -25 0 -25 0 -24 -9 -23 -19 -23 -19 -14 -22 -5 -25 rrcurveto
            return
          </CharString>
          <CharString index="128">
            2 8 1 7 0 8 0 48 -35 37 -52 0 -59 0 -59 -48 -13 -60 -1 -7 -2 -8 1 -7 0 -49 36 -35 52 0 -15 -72 -68 -76 -27 -30 rrcurveto
            49 -31 rlineto
            29 35 128 123 33 157 rrcurveto
            return
          </CharString>
          <CharString index="129">
            -228 -1072 158 0 87 405 354 -405 216 0 -445 540 620 537 -186 0 -510 -437 92 432 rlineto
            return
          </CharString>
          <CharString index="130">
            2 8 1 7 0 8 0 48 -35 37 -52 0 -59 0 -59 -48 -13 -60 -1 -7 -1 -8 1 -7 0 -49 35 -35 52 0 -15 -72 -68 -76 -27 -30 rrcurveto
            49 -31 rlineto
            29 35 128 123 33 157 rrcurveto
            return
          </CharString>
          <CharString index="131">
            -8 -7 -7 -8 -4 -8 -2 -4 -2 -5 -1 -5 -1 -4 0 -3 0 -3 0 -9 3 -8 4 -8 6 -10 9 -7 12 -3 5 -1 5 -1 4 0 rrcurveto
            9 0 10 3 9 6 rrcurveto
            351 219 rlineto
            17 12 12 14 7 15 2 5 4 5 1 7 1 5 0 5 0 5 0 11 -3 11 -6 9 -7 14 -11 10 -16 4 -6 2 -5 0 -6 0 rrcurveto
            -17 0 -16 -5 -19 -13 rrcurveto
            return
          </CharString>
          <CharString index="132">
            -7 -9 -4 -8 -2 -9 -1 -3 -1 -4 0 -3 0 -13 5 -12 10 -9 10 -7 11 -4 13 0 15 0 14 6 11 11 rrcurveto
            300 290 rlineto
            14 15 9 16 3 16 1 4 1 4 0 5 0 19 -7 14 -13 11 -11 11 -14 6 -17 0 -24 0 -22 -11 -21 -22 rrcurveto
            return
          </CharString>
          <CharString index="133">
            -7 -9 -4 -8 -2 -9 -1 -3 -1 -2 0 -3 0 -14 5 -13 10 -9 10 -7 11 -4 13 0 15 0 14 6 11 11 rrcurveto
            300 290 rlineto
            14 15 9 16 3 16 1 4 1 4 0 5 0 19 -7 14 -13 11 -11 11 -14 6 -17 0 -24 0 -22 -11 -21 -22 rrcurveto
            return
          </CharString>
          <CharString index="134">
            -7 -9 -5 -8 -2 -9 -1 -3 0 -4 0 -3 0 -13 5 -12 10 -9 10 -7 10 -4 13 0 15 0 15 6 11 11 rrcurveto
            300 290 rlineto
            14 15 9 16 3 16 1 4 0 4 0 5 0 19 -6 14 -13 11 -11 11 -15 6 -17 0 -24 0 -22 -11 -21 -22 rrcurveto
            return
          </CharString>
          <CharString index="135">
            -7 -9 -5 -8 -2 -9 -1 -3 0 -2 0 -3 0 -14 5 -13 10 -9 10 -7 10 -4 13 0 15 0 15 6 11 11 rrcurveto
            300 290 rlineto
            14 15 9 16 3 16 1 4 0 4 0 5 0 19 -6 14 -13 11 -11 11 -15 6 -17 0 -24 0 -22 -11 -21 -22 rrcurveto
            return
          </CharString>
          <CharString index="136">
            17 81 25 71 31 61 31 61 42 50 51 39 51 39 60 19 65 0 54 0 41 -11 31 -24 -27 -30 -24 -35 -23 -37 -51 -83 -36 -95 -23 -106 rrcurveto
            -14 -64 -6 -60 0 -56 0 -37 2 -35 6 -34 7 -39 11 -36 15 -32 rrcurveto
            -8 -4 rlineto
            -42 -23 -45 -11 -49 0 -49 0 -41 11 -32 23 -32 23 -24 31 -13 40 -14 40 -6 47 0 52 0 50 6 55 13 59 rrcurveto
            return
          </CharString>
          <CharString index="137">
            -14 -66 -7 -61 0 -57 0 -36 3 -34 5 -32 14 -84 37 -68 56 -51 56 -51 74 -26 93 0 90 0 83 24 75 47 53 -47 68 -24 83 0 rrcurveto
            79 0 78 20 78 39 78 39 63 53 48 66 rrcurveto
            -121 55 rlineto
            -30 -40 -40 -33 -53 -26 -53 -26 -50 -12 -48 0 -51 0 -42 18 -31 36 -31 36 -20 44 -9 53 -4 27 -3 30 0 30 0 29 3 29 4 31 rrcurveto
            668 hlineto
            2 8 3 17 5 24 5 24 3 16 1 7 11 52 6 52 0 49 0 14 -1 13 -1 14 -4 62 -13 57 -22 50 -22 50 -34 40 -47 30 rrcurveto
            -47 30 -54 16 -65 0 -84 0 -79 -23 -73 -47 -56 47 -71 23 -89 0 -70 0 -66 -14 -62 -28 -62 -28 -54 -40 -47 -50 -47 -50 -40 -60 -33 -67 rrcurveto
            -33 -67 -25 -74 -17 -79 rrcurveto
            return
          </CharString>
          <CharString index="138">
            17 59 24 57 31 52 31 52 39 44 48 36 48 36 48 18 51 0 75 0 53 -34 32 -70 22 -48 10 -54 0 -60 0 -28 -2 -29 -5 -31 rrcurveto
            return
          </CharString>
          <CharString index="139">
            17 -125 77 41 rlineto
            106 57 59 60 13 60 1 7 2 6 0 6 0 6 1 7 0 7 -1 48 -17 44 -33 41 rrcurveto
            -141 -56 rlineto
            24 -48 12 -30 -2 -12 0 -3 0 -4 -1 -7 -5 -23 -39 -36 -73 -46 rrcurveto
            return
          </CharString>
          <CharString index="140">
            -31 -146 rlineto
            23 16 23 16 19 14 19 14 22 12 24 10 24 10 24 5 24 0 15 0 15 -5 15 -10 15 -10 13 -13 13 -15 13 -15 13 -16 14 -15 rrcurveto
            14 -15 16 -13 19 -10 19 -10 21 -5 21 0 23 0 23 5 25 10 25 10 22 12 21 15 21 15 23 15 26 17 rrcurveto
            31 145 rlineto
            -25 -16 -24 -15 -21 -14 -21 -14 -24 -14 -25 -10 -25 -10 -23 -5 -21 0 -19 0 -19 5 -17 10 -17 10 -15 13 -13 15 -13 15 -13 14 -13 15 rrcurveto
            -13 15 -14 13 -17 10 -17 10 -16 6 -18 0 -24 0 -26 -5 -26 -11 -26 -11 -23 -13 -19 -14 -19 -14 -21 -15 -20 -13 rrcurveto
            return
          </CharString>
          <CharString index="141">
            -31 -146 rlineto
            23 16 23 16 19 14 19 14 21 12 24 10 24 10 24 5 24 0 15 0 15 -5 15 -10 15 -10 13 -13 13 -15 13 -15 13 -16 14 -15 rrcurveto
            14 -15 16 -13 19 -10 19 -10 21 -5 21 0 23 0 23 5 25 10 25 10 22 12 21 15 21 15 23 15 26 17 rrcurveto
            31 145 rlineto
            -25 -16 -24 -15 -21 -14 -21 -14 -24 -14 -25 -10 -25 -10 -23 -5 -21 0 -19 0 -19 5 -17 10 -17 10 -15 13 -13 15 -13 15 -12 14 -13 15 rrcurveto
            -13 15 -14 13 -17 10 -17 10 -17 6 -18 0 -24 0 -25 -5 -26 -11 -26 -11 -23 -13 -19 -14 -19 -14 -21 -15 -20 -13 rrcurveto
            return
          </CharString>
          <CharString index="142">
            -2 -9 0 -6 0 -4 0 -22 7 -18 14 -14 14 -14 19 -8 22 0 25 0 23 9 23 19 23 19 14 22 6 26 2 8 0 6 0 5 rrcurveto
            -1 21 -7 19 -14 14 -14 14 -18 7 -22 0 -25 0 -24 -9 -23 -19 -23 -19 -14 -22 -5 -25 rrcurveto
            return
          </CharString>
          <CharString index="143">
            -29 -135 604 0 29 135 rlineto
            return
          </CharString>
          <CharString index="144">
            -29 -136 605 0 29 136 rlineto
            return
          </CharString>
          <CharString index="145">
            63 -79 86 -39 104 0 36 0 37 7 38 15 38 15 32 17 27 21 27 21 23 21 18 20 18 20 10 15 5 13 rrcurveto
            -33 -156 140 0 228 1073 -140 0 -15 -70 rlineto
            -56 58 -75 29 -96 0 -113 0 -107 -36 -105 -73 -89 -77 -60 -105 -29 -135 0 -1 -1 -1 0 -1 rrcurveto
            -52 -252 rlineto
            -10 -46 -4 -44 0 -39 0 -77 18 -64 37 -50 rrcurveto
            return
          </CharString>
          <CharString index="146">
            21 96 36 74 52 51 28 23 33 17 38 13 38 13 41 6 46 0 78 0 55 -26 31 -52 19 -31 9 -40 0 -47 0 -31 -4 -34 -8 -38 rrcurveto
            -65 -314 rlineto
            -14 -64 -34 -55 -57 -46 -57 -46 -61 -24 -64 0 -99 0 -66 27 -32 55 -19 32 -10 40 0 48 0 30 4 34 8 37 rrcurveto
            return
          </CharString>
          <CharString index="147">
            -28 -133 -49 -106 -68 -78 -68 -78 -71 -38 -77 0 -77 0 -59 38 -36 78 -21 44 -10 53 0 62 0 47 6 52 12 57 28 133 50 104 69 77 rrcurveto
            69 77 74 38 77 0 77 0 56 -38 35 -76 19 -42 10 -51 0 -60 0 -48 -5 -53 -13 -59 rrcurveto
            return
          </CharString>
          <CharString index="148">
            19 33 33 33 47 33 47 33 47 17 47 0 85 0 64 -40 43 -80 27 -50 14 -58 0 -66 0 -39 -5 -43 -10 -45 -27 -129 -51 -105 -76 -79 rrcurveto
            -76 -79 -80 -39 -87 0 -29 0 -27 6 -23 12 -23 12 -20 14 -14 18 -14 18 -10 17 -8 16 -8 16 -6 15 -4 14 rrcurveto
            -138 -77 rlineto
            10 -27 13 -26 16 -24 16 -24 22 -22 23 -22 23 -22 29 -17 33 -13 33 -13 38 -6 39 0 87 0 84 25 81 51 81 51 70 68 57 86 rrcurveto
            57 86 40 96 22 103 11 50 5 50 0 48 rrcurveto
            19 vlineto
            -2 54 -9 51 -17 47 -17 47 -23 42 -29 35 -29 35 -36 29 -45 20 -45 20 -50 10 -56 0 -76 0 -71 -20 -66 -41 -66 -41 -57 -52 -50 -65 rrcurveto
            return
          </CharString>
          <CharString index="149">
            -17 -59 -24 -56 -31 -52 -31 -52 -39 -45 -48 -36 -48 -36 -47 -18 -51 0 -75 0 -53 35 -32 70 -22 48 -11 54 0 60 0 28 2 29 5 30 rrcurveto
            return
          </CharString>
          <CharString index="150">
            -668 hlineto
            -2 -8 -4 -16 -5 -24 -5 -24 -3 -17 -1 -7 -11 -52 -5 -52 0 -49 0 -14 0 -13 1 -14 4 -62 13 -56 22 -50 22 -50 34 -42 47 -30 rrcurveto
            47 -30 55 -15 65 0 87 0 81 25 74 49 74 49 62 67 51 83 51 83 35 95 23 106 14 64 6 60 0 56 0 37 -2 35 -6 34 rrcurveto
            -14 85 -34 68 -53 51 -53 51 -70 25 -87 0 -79 0 -79 -20 -78 -39 -78 -39 -63 -53 -48 -66 rrcurveto
            122 -55 rlineto
            30 40 40 32 53 26 53 26 50 13 48 0 51 0 42 -17 31 -36 31 -36 19 -45 9 -53 4 -27 3 -30 0 -30 0 -29 -2 -29 -4 -31 rrcurveto
            return
          </CharString>
          <CharString index="151">
            -108 38 rlineto
            -26 -35 -37 -30 -45 -22 -45 -22 -43 -11 -42 0 -70 0 -55 19 -41 36 -31 27 -16 34 0 42 0 13 2 14 3 15 17 80 21 55 25 27 rrcurveto
            22 24 26 21 31 17 31 17 29 13 25 7 30 9 30 4 30 0 rrcurveto
            57 0 26 125 -72 0 rlineto
            -47 0 -41 9 -37 20 -29 16 -14 23 0 33 0 9 1 11 2 11 7 34 32 33 55 33 30 18 36 8 42 0 rrcurveto
            17 hlineto
            39 0 33 -11 27 -22 27 -22 19 -27 9 -31 rrcurveto
            111 52 rlineto
            -16 57 -30 45 -45 35 -45 35 -55 17 -65 0 -53 0 -52 -12 -53 -23 -47 -21 -47 -33 -45 -46 -39 -40 -23 -37 -7 -34 -4 -18 -2 -16 0 -15 rrcurveto
            0 -24 5 -19 10 -16 12 -15 19 -15 28 -15 24 -13 25 -11 26 -9 rrcurveto
            -93 -42 rlineto
            -12 -2 -32 -19 -48 -37 -30 -23 -25 -27 -24 -33 -24 -32 -21 -59 -18 -86 -5 -24 -3 -23 0 -22 0 -67 24 -57 46 -47 62 -63 85 -32 110 0 rrcurveto
            67 0 71 20 77 41 77 41 59 54 43 68 rrcurveto
            return
          </CharString>
          <CharString index="152">
            28 133 48 104 67 76 67 76 72 38 77 0 77 0 58 -38 37 -77 21 -44 10 -52 0 -62 0 -47 -6 -52 -12 -57 -28 -132 -49 -105 -70 -78 rrcurveto
            -70 -78 -73 -38 -77 0 -77 0 -57 38 -34 78 -19 43 -9 52 0 60 0 49 6 53 13 60 rrcurveto
            return
          </CharString>
          <CharString index="153">
            -1 -5 0 -6 -1 -8 1 -21 7 -19 14 -14 14 -14 18 -7 22 0 25 0 24 9 23 19 23 19 14 22 5 25 2 8 0 5 0 4 rrcurveto
            0 22 -7 20 -14 14 -14 14 -18 7 -23 0 -25 0 -24 -9 -23 -19 -23 -19 -14 -22 -5 -25 rrcurveto
            return
          </CharString>
          <CharString index="154">
            265 1247 -151 0 -266 -1251 rlineto
            -4 -21 -4 -23 0 -25 0 -59 20 -42 39 -25 39 -25 56 -12 75 0 rrcurveto
            28 131 rlineto
            -67 -33 25 50 hvcurveto
            0 9 1 10 2 11 rrcurveto
            return
          </CharString>
          <CharString index="155">
            -51 0 -41 18 -31 36 -31 36 -21 44 -9 53 -4 27 -3 30 0 30 0 29 3 29 4 31 rrcurveto
            524 0 -4 -9 rlineto
            -17 -59 -24 -57 -31 -52 -31 -52 -38 -44 -48 -36 -48 -36 -48 -18 -51 0 rrcurveto
            return
          </CharString>
          <CharString index="156">
            17 59 24 57 31 52 31 52 38 44 48 36 48 36 49 18 51 0 75 0 53 -34 32 -70 22 -48 10 -54 0 -60 0 -28 -2 -29 -5 -31 rrcurveto
            return
          </CharString>
          <CharString index="157">
            -185 -869 rlineto
            -59 24 -49 38 -43 54 -51 65 -26 74 0 84 0 31 4 32 7 34 32 149 60 112 90 77 70 58 74 31 76 6 rrcurveto
            return
          </CharString>
          <CharString index="158">
            50 -63 25 -73 0 -83 0 -32 -4 -32 -7 -35 0 -2 -1 -1 0 -2 -28 -128 -68 -108 -106 -89 -86 -68 -81 -42 -74 -15 rrcurveto
            187 877 rlineto
            89 -19 65 -35 39 -50 rrcurveto
            return
          </CharString>
          <CharString index="159">
            346 hlineto
            110 0 99 30 88 60 88 60 54 76 20 92 3 13 1 14 0 13 0 19 -3 18 -6 19 -7 21 -14 26 -24 32 -18 23 -23 19 -26 13 rrcurveto
            -71 31 83 40 rlineto
            27 15 29 26 30 36 28 35 19 36 8 37 4 17 1 16 0 16 0 32 -7 29 -15 28 -22 42 -34 31 -42 22 -44 22 -47 12 -53 0 rrcurveto
            -354 hlineto
            return
          </CharString>
          <CharString index="160">
            66 307 210 0 4 0 rlineto
            46 0 38 -15 30 -29 23 -22 12 -26 0 -30 0 -9 -1 -9 -2 -9 -10 -46 -25 -37 -41 -30 -41 -30 -46 -15 -47 0 rrcurveto
            return
          </CharString>
          <CharString index="161">
            202 hlineto
            28 0 28 -4 27 -8 25 -7 22 -12 22 -16 25 -18 19 -20 12 -21 9 -17 4 -18 0 -19 0 -9 -1 -9 -2 -10 -12 -58 -35 -46 -56 -34 rrcurveto
            -56 -35 -64 -17 -69 0 rrcurveto
            -208 hlineto
            return
          </CharString>
          <CharString index="162">
            -228 -1074 151 0 99 467 410 0 -99 -466 153 -1 228 1074 -153 1 -100 -471 -410 -1 100 471 rlineto
            return
          </CharString>
          <CharString index="163">
            -273 -313 rlineto
            -7 -10 -7 -9 -2 -10 -1 -3 0 -4 0 -3 0 -11 4 -9 8 -8 10 -10 13 -5 15 0 14 0 14 5 13 11 rrcurveto
            301 291 rlineto
            14 15 9 15 3 15 1 4 0 3 0 4 0 13 -4 13 -8 13 -10 17 -18 9 -23 0 -26 0 -21 -11 -19 -22 rrcurveto
            return
          </CharString>
          <CharString index="164">
            -168 hlineto
            9 -66 18 -54 25 -42 28 -48 36 -36 46 -24 46 -24 51 -12 59 0 66 0 61 14 57 28 57 28 50 39 47 51 37 38 34 49 31 57 rrcurveto
            -155 0 -44 -58 rlineto
            -29 -40 -32 -28 -37 -17 -37 -17 -37 -9 -40 0 -72 0 -53 38 -35 77 -9 14 -7 19 -3 23 rrcurveto
            return
          </CharString>
          <CharString index="165">
            -2 -8 0 -6 0 -4 rrcurveto
            1 -21 rlineto
            8 -37 26 -18 41 0 15 0 12 3 11 5 41 16 27 29 9 41 2 8 0 7 0 4 rrcurveto
            -2 20 rlineto
            -8 37 -26 19 -41 0 -15 0 -12 -4 -11 -5 -41 -16 -26 -29 -9 -41 rrcurveto
            return
          </CharString>
          <CharString index="166">
            -2 -8 0 -7 0 -4 rrcurveto
            1 -20 rlineto
            8 -37 25 -19 41 0 15 0 13 4 11 5 41 16 27 29 9 41 2 8 -1 6 0 4 rrcurveto
            -2 21 rlineto
            -8 37 -25 18 -41 0 -15 0 -13 -3 -11 -5 -41 -16 -25 -29 -9 -41 rrcurveto
            return
          </CharString>
          <CharString index="167">
            -2 -8 0 -7 0 -4 rrcurveto
            1 -20 rlineto
            8 -37 25 -19 41 0 15 0 13 4 11 5 41 16 26 29 9 41 2 8 -1 6 0 4 rrcurveto
            -1 21 rlineto
            -8 37 -25 18 -41 0 -15 0 -13 -3 -11 -5 -41 -16 -25 -29 -9 -41 rrcurveto
            return
          </CharString>
          <CharString index="168">
            -28 -136 605 0 28 136 rlineto
            return
          </CharString>
          <CharString index="169">
            -1 -6 -1 -6 0 -5 rrcurveto
            -5 vlineto
            0 -25 8 -20 16 -16 16 -16 21 -8 26 0 29 0 28 10 25 21 25 21 17 26 6 29 2 10 1 8 0 5 0 24 -8 21 -16 16 rrcurveto
            -16 16 -21 8 -26 0 -29 0 -29 -11 -25 -21 -25 -21 -17 -25 -6 -30 rrcurveto
            return
          </CharString>
          <CharString index="170">
            23 37 33 34 43 29 40 28 52 13 63 0 85 0 64 -44 47 -87 30 -56 15 -64 0 -71 0 -39 -5 -40 -9 -43 -27 -129 -51 -105 -76 -79 rrcurveto
            -76 -79 -80 -39 -87 0 -29 0 -27 6 -23 12 -23 12 -20 14 -14 18 -14 18 -10 17 -8 16 -8 16 -6 15 -4 14 rrcurveto
            -138 -77 rlineto
            10 -27 13 -26 16 -24 16 -24 22 -22 23 -22 23 -22 29 -17 33 -13 33 -13 38 -6 39 0 87 0 84 25 81 51 81 51 70 68 57 86 rrcurveto
            57 86 40 96 22 103 11 50 5 50 0 48 rrcurveto
            19 vlineto
            -2 54 -9 51 -17 47 -17 47 -23 42 -29 35 -29 35 -36 29 -45 20 -45 20 -50 10 -56 0 -76 0 -71 -20 -66 -41 -66 -41 -57 -52 -50 -65 rrcurveto
            return
          </CharString>
          <CharString index="171">
            -2 -8 -1 -7 1 -7 0 -25 8 -20 16 -16 16 -16 21 -8 26 0 29 0 28 10 25 21 25 21 17 26 6 29 2 10 1 8 0 5 rrcurveto
            0 24 -8 21 -16 16 -16 16 -21 8 -26 0 -29 0 -29 -11 -25 -21 -25 -21 -17 -25 -6 -30 rrcurveto
            return
          </CharString>
          <CharString index="172">
            -2 -8 -1 -7 1 -7 0 -25 8 -20 16 -16 16 -16 21 -8 26 0 29 0 28 11 25 21 25 21 17 25 6 29 2 10 1 8 0 5 rrcurveto
            0 24 -8 20 -16 16 -16 16 -21 9 -26 0 -29 0 -29 -10 -25 -21 -25 -21 -17 -26 -6 -30 rrcurveto
            return
          </CharString>
          <CharString index="173">
            -1 -5 -1 -4 0 -4 0 -5 1 -4 -4 flex1
            1 -3 2 -3 1 -3 7 -10 10 -6 15 -2 rrcurveto
            6 hlineto
            11 0 11 2 11 6 14 7 10 12 6 15 rrcurveto
            102 251 rlineto
            1 3 1 4 1 3 1 6 0 4 0 5 0 8 -1 8 -3 8 -1 3 -2 3 -2 4 -8 14 -14 8 -20 2 -5 1 -3 0 -5 0 rrcurveto
            -12 0 -12 -3 -12 -6 -24 -12 -16 -20 -9 -27 rrcurveto
            return
          </CharString>
          <CharString index="174">
            -2 -10 0 -8 2 -8 1 -3 2 -3 1 -3 7 -10 10 -6 15 -2 rrcurveto
            6 hlineto
            11 0 11 2 11 6 14 7 10 12 6 15 rrcurveto
            102 251 rlineto
            1 3 1 4 1 3 3 15 -2 12 -4 12 -1 3 -2 3 -2 4 -8 14 -14 8 -20 2 -5 1 -3 0 -5 0 -12 0 -12 -3 -12 -6 rrcurveto
            -24 -12 -16 -20 -9 -27 rrcurveto
            return
          </CharString>
          <CharString index="175">
            -2 -10 1 -8 2 -8 1 -3 2 -3 1 -3 7 -10 10 -6 15 -2 rrcurveto
            6 hlineto
            11 0 10 2 11 6 14 7 11 12 6 15 rrcurveto
            101 251 rlineto
            1 3 1 4 1 3 3 15 -2 12 -4 12 -1 3 -1 3 -2 4 -8 14 -14 8 -20 2 -5 1 -4 0 -5 0 -12 0 -12 -3 -12 -6 rrcurveto
            -24 -12 -16 -20 -9 -27 rrcurveto
            return
          </CharString>
          <CharString index="176">
            -1 -5 0 -4 0 -4 0 -5 1 -4 1 -4 1 -3 2 -3 1 -3 7 -10 10 -6 15 -2 rrcurveto
            6 hlineto
            11 0 10 2 11 6 14 7 11 12 6 15 rrcurveto
            101 251 rlineto
            1 3 1 4 1 3 1 6 1 4 0 5 0 8 -2 8 -3 8 -1 3 -1 3 -2 4 -8 14 -14 8 -20 2 -5 1 -4 0 -5 0 rrcurveto
            -12 0 -12 -3 -12 -6 -24 -12 -16 -20 -9 -27 rrcurveto
            return
          </CharString>
          <CharString index="177">
            -262 0 -31 -142 516 0 30 142 -1 0 rlineto
            -42 21 -35 30 -30 39 -30 39 -19 42 -10 45 -10 43 -6 46 0 52 rrcurveto
            8 vlineto
            0 71 8 73 16 74 12 57 16 56 20 56 20 56 26 56 32 56 32 56 36 50 40 42 40 42 47 35 55 27 55 27 59 13 62 0 rrcurveto
            57 0 50 -10 41 -22 41 -22 33 -30 23 -39 23 -39 17 -42 10 -46 10 -46 6 -51 0 -55 -1 -73 -7 -75 -17 -79 -12 -57 -15 -55 -20 -55 rrcurveto
            -20 -55 -26 -54 -33 -55 -33 -55 -41 -49 -48 -44 -48 -44 -51 -34 -55 -26 rrcurveto
            -30 -142 515 0 30 142 -276 0 5 4 rlineto
            59 50 51 59 44 67 44 67 36 68 27 67 27 67 22 67 14 67 16 74 8 76 0 79 0 70 -7 66 -16 61 -16 62 -24 58 -34 53 rrcurveto
            -34 53 -46 41 -59 31 -59 31 -70 15 -81 0 -82 0 -78 -16 -75 -33 -75 -33 -65 -43 -54 -53 -54 -53 -50 -60 -45 -69 -45 -69 -35 -68 -28 -69 rrcurveto
            -28 -69 -20 -68 -14 -67 -16 -74 -7 -72 0 -72 0 -71 8 -66 16 -61 15 -60 23 -56 33 -51 rrcurveto
            return
          </CharString>
          <CharString index="178">
            -166 -785 rlineto
            -5 -21 -1 -21 0 -20 0 -19 2 -17 4 -17 9 -34 14 -27 19 -21 19 -21 20 -19 24 -14 24 -14 22 -10 21 -6 21 -6 18 -2 16 0 rrcurveto
            28 0 27 5 26 10 26 10 19 9 13 8 13 8 16 14 23 18 rrcurveto
            -85 102 -18 -14 -18 -12 -21 -12 -24 -8 -27 -3 rlineto
            -54 -27 26 52 hvcurveto
            0 13 1 15 4 17 rrcurveto
            173 816 rlineto
            return
          </CharString>
          <CharString index="179">
            -2 -10 0 -8 2 -8 1 -3 3 -3 1 -3 7 -10 10 -6 15 -2 rrcurveto
            6 hlineto
            11 0 10 2 11 6 14 7 11 12 6 15 rrcurveto
            101 251 rlineto
            1 3 1 4 1 3 3 15 -2 12 -4 12 -1 3 -1 3 -2 4 -8 14 -14 8 -20 2 -5 1 -4 0 -5 0 -12 0 -12 -3 -12 -6 rrcurveto
            -24 -12 -16 -20 -9 -27 rrcurveto
            return
          </CharString>
          <CharString index="180">
            319 hlineto
            96 0 70 -20 46 -39 46 -39 22 -50 0 -63 rrcurveto
            -8 vlineto
            0 -17 -3 -19 -4 -20 -6 -29 -10 -29 -13 -27 -13 -27 -18 -27 -22 -25 -22 -25 -27 -21 -29 -18 -29 -18 -34 -15 -40 -11 -40 -11 -43 -6 -47 0 rrcurveto
            -319 hlineto
            return
          </CharString>
          <CharString index="181">
            13 0 40 0 68 -1 68 -1 38 0 10 0 57 0 47 -6 40 -11 40 -11 31 -14 20 -19 20 -19 13 -20 8 -20 8 -20 5 -22 0 -23 rrcurveto
            0 -15 -2 -17 -4 -19 -4 -20 -6 -20 -8 -19 -8 -19 -14 -21 -19 -22 -19 -22 -24 -19 -26 -16 -26 -16 -36 -14 -44 -11 -44 -11 -51 -5 -55 0 rrcurveto
            -237 hlineto
            return
          </CharString>
          <CharString index="182">
            -309 -1456 477 0 rlineto
            60 0 56 5 51 11 51 11 46 15 37 18 37 18 32 21 30 25 30 25 27 26 19 25 19 25 17 26 14 29 14 29 11 26 8 22 rrcurveto
            8 22 5 22 5 23 5 25 2 25 0 25 0 33 -4 32 -8 30 -8 31 -13 31 -19 29 -19 29 -28 24 -35 18 -35 18 -43 8 -48 0 rrcurveto
            58 0 62 30 69 60 69 60 42 69 17 78 5 23 4 27 0 29 0 38 -7 35 -14 33 -14 34 -21 32 -31 30 -31 30 -44 23 -57 17 rrcurveto
            -57 17 -68 9 -79 0 rrcurveto
            return
          </CharString>
          <CharString index="183">
            -309 -1456 158 0 280 1315 756 0 29 141 rlineto
            return
          </CharString>
          <CharString index="184">
            1342 0 -275 1440 -179 0 rlineto
            return
          </CharString>
          <CharString index="185">
            -309 -1456 158 0 277 1305 662 0 -277 -1305 158 0 309 1456 rlineto
            return
          </CharString>
          <CharString index="186">
            115 541 206 0 rlineto
            65 0 57 -5 45 -12 45 -12 34 -17 24 -21 24 -21 15 -22 10 -23 10 -23 5 -25 0 -27 0 -17 -1 -20 -5 -23 -39 -182 -147 -91 -257 0 rrcurveto
            return
          </CharString>
          <CharString index="187">
            -309 -1456 158 0 134 631 206 0 rlineto
            92 0 84 11 76 22 76 22 63 30 51 38 51 38 43 45 32 49 32 49 24 54 12 58 6 27 4 28 0 30 0 99 -41 78 -79 59 rrcurveto
            -79 59 -119 29 -153 0 rrcurveto
            -206 hlineto
            return
          </CharString>
          <CharString index="188">
            -37 -4 -37 -6 -37 -8 -67 -15 -65 -22 -61 -29 -61 -29 -58 -36 -57 -45 -57 -45 -47 -55 -41 -66 -41 -66 -30 -73 -17 -80 -10 -45 -4 -42 0 -41 rrcurveto
            0 -33 2 -32 7 -31 15 -68 26 -56 37 -44 37 -44 44 -36 55 -30 55 -30 56 -21 58 -13 30 -7 29 -5 30 -3 rrcurveto
            -33 -153 179 0 33 153 rlineto
            38 4 38 6 40 9 68 15 65 22 62 29 62 29 58 36 58 45 58 45 48 55 42 66 42 66 30 73 17 81 9 43 5 41 0 39 rrcurveto
            0 35 -4 34 -7 32 -16 68 -26 56 -38 43 -38 43 -46 37 -56 30 -56 30 -58 21 -59 13 -30 6 -30 5 -30 3 rrcurveto
            43 201 -179 0 rlineto
            return
          </CharString>
          <CharString index="189">
            -21 2 -20 3 -19 3 -47 8 -46 15 -45 21 -45 21 -38 25 -30 31 -30 31 -20 40 -13 49 -6 24 -4 26 0 28 0 28 3 30 7 31 rrcurveto
            12 57 21 51 29 46 29 46 34 40 41 31 41 31 43 26 44 20 44 20 50 17 51 11 37 8 37 6 37 4 rrcurveto
            return
          </CharString>
          <CharString index="190">
            21 -2 19 -3 20 -3 48 -8 48 -14 47 -20 47 -20 39 -26 31 -31 31 -31 23 -40 14 -49 7 -25 3 -27 0 -28 0 -28 -3 -28 -7 -31 rrcurveto
            -12 -57 -20 -52 -30 -46 -30 -46 -35 -39 -42 -31 -42 -31 -43 -26 -45 -20 -45 -20 -49 -17 -53 -12 -39 -9 -39 -6 -40 -4 rrcurveto
            return
          </CharString>
          <CharString index="191">
            17 81 25 71 31 61 31 61 42 50 51 39 51 39 61 19 65 0 65 0 49 -19 35 -39 35 -39 20 -50 5 -61 1 -15 1 -15 0 -16 rrcurveto
            0 -50 -6 -56 -13 -61 -13 -60 -16 -55 -22 -51 -22 -51 -26 -46 -31 -40 -31 -40 -35 -31 -42 -23 -42 -23 -44 -11 -49 0 -49 0 -42 11 -32 23 rrcurveto
            -32 23 -23 31 -13 40 -14 40 -7 47 0 52 0 50 6 55 13 59 rrcurveto
            return
          </CharString>
          <CharString index="192">
            29 136 rlineto
            -43 0 -34 23 -24 47 -14 28 -8 36 0 44 0 33 4 37 7 42 rrcurveto
            49 228 rlineto
            19 85 27 65 36 44 54 65 53 33 50 0 rrcurveto
            29 138 rlineto
            -106 0 -82 -41 -58 -81 -27 -28 -18 -20 -10 -13 -19 51 -28 42 -40 35 -56 50 -74 25 -92 0 -70 0 -67 -14 -62 -28 -62 -28 -53 -40 -47 -50 rrcurveto
            -47 -50 -40 -60 -33 -67 -33 -67 -26 -74 -17 -79 -14 -64 -6 -60 0 -56 0 -37 2 -36 6 -33 14 -84 36 -68 56 -51 56 -51 75 -26 93 0 rrcurveto
            93 0 85 26 78 51 55 36 47 43 41 52 rrcurveto
            -3 -13 rlineto
            0 0 0 -4 2 -6 27 -109 72 -55 118 -2 rrcurveto
            return
          </CharString>
          <CharString index="193">
            -1 -5 -1 -4 0 -4 0 -5 1 -4 -4 flex1
            1 -3 2 -3 1 -3 7 -10 10 -6 15 -2 rrcurveto
            6 hlineto
            11 0 11 2 11 6 14 7 10 12 6 15 rrcurveto
            102 251 rlineto
            1 3 1 4 1 3 1 6 0 4 0 5 0 8 -1 8 -3 8 -1 3 -2 3 -2 4 -8 14 -14 8 -20 2 -5 1 -4 0 -5 0 rrcurveto
            -12 0 -11 -3 -12 -6 -24 -12 -16 -20 -9 -27 rrcurveto
            return
          </CharString>
          <CharString index="194">
            -2 -10 1 -8 2 -8 1 -3 2 -3 1 -3 7 -10 10 -6 15 -2 rrcurveto
            6 hlineto
            11 0 11 2 11 6 14 7 10 12 6 15 rrcurveto
            101 251 rlineto
            1 3 2 4 1 3 3 15 -2 12 -4 12 -1 3 -2 3 -2 4 -8 14 -14 8 -20 2 -5 1 -4 0 -5 0 -12 0 -12 -3 -12 -6 rrcurveto
            -24 -12 -15 -20 -9 -27 rrcurveto
            return
          </CharString>
          <CharString index="195">
            115 540 rlineto
            13 59 16 54 21 50 21 50 25 45 30 40 30 40 34 30 39 23 39 23 43 11 45 0 45 0 37 -11 29 -22 29 -22 22 -31 12 -39 rrcurveto
            11 -37 4 -42 0 -46 rrcurveto
            -9 vlineto
            -1 -50 -7 -55 -13 -60 rrcurveto
            -199 -937 151 0 199 937 rlineto
            18 85 9 77 0 66 rrcurveto
            25 vlineto
            -3 72 -15 58 -23 45 -23 45 -33 33 -39 22 -39 22 -47 11 -55 0 -76 0 -70 -20 -63 -40 -63 -40 -46 -51 -32 -59 rrcurveto
            38 181 -152 0 -228 -1073 rlineto
            return
          </CharString>
          <CharString index="196">
            -1 -5 0 -4 0 -4 0 -5 1 -4 1 -4 1 -3 2 -3 1 -3 7 -10 10 -6 15 -2 rrcurveto
            6 hlineto
            11 0 11 2 11 6 14 7 10 12 6 15 rrcurveto
            101 251 rlineto
            1 3 2 4 1 3 1 6 0 4 0 5 0 8 -1 8 -3 8 -1 3 -2 3 -2 4 -8 14 -14 8 -20 2 -5 1 -4 0 -5 0 rrcurveto
            -12 0 -12 -3 -12 -6 -24 -12 -15 -20 -9 -27 rrcurveto
            return
          </CharString>
          <CharString index="197">
            87 0 81 26 75 51 75 51 64 68 50 85 50 85 37 95 23 106 14 64 6 59 0 56 0 37 -3 35 -6 33 -15 83 -35 67 -54 49 rrcurveto
            -54 49 -69 25 -87 0 rrcurveto
            -29 -136 rlineto
            51 0 42 -18 32 -36 32 -36 21 -44 9 -52 4 -26 2 -28 0 -28 0 -28 -2 -29 -4 -29 rrcurveto
            -29 -135 rlineto
            -19 -64 -25 -59 -31 -53 -31 -53 -41 -44 -50 -36 -48 -35 -49 -18 -49 -1 -43 1 -35 11 -29 21 -29 22 -21 31 -12 39 -11 37 -5 42 0 46 rrcurveto
            9 vlineto
            1 50 6 55 13 60 rrcurveto
            115 541 -151 0 -115 -541 rlineto
            -18 -84 -8 -74 0 -66 0 -9 1 -10 0 -9 3 -72 14 -59 23 -45 24 -44 38 -33 53 -22 51 -20 45 -11 41 -1 rrcurveto
            return
          </CharString>
          <CharString index="198">
            -2 -8 0 -5 0 -4 0 -23 7 -19 14 -14 14 -14 19 -8 22 0 25 0 24 9 23 19 23 19 13 22 6 26 2 8 0 6 0 5 rrcurveto
            -1 21 -6 19 -14 14 -14 14 -19 7 -22 0 -25 0 -24 -9 -23 -19 -23 -19 -14 -22 -5 -25 rrcurveto
            return
          </CharString>
          <CharString index="199">
            28 119 33 94 33 68 54 125 70 79 89 33 24 4 21 1 20 0 121 0 61 -65 0 -132 0 -25 -2 -25 -6 -26 -10 -49 -31 -45 -52 -40 rrcurveto
            -52 -40 -58 -30 -64 -20 -64 -20 -62 -9 -59 0 rrcurveto
            -42 hlineto
            return
          </CharString>
          <CharString index="200">
            -20 -93 -11 -89 0 -87 0 -147 29 -118 59 -89 58 -88 85 -45 112 0 98 0 93 35 88 70 88 70 74 91 60 113 60 113 47 126 29 138 rrcurveto
            21 98 10 95 0 91 0 146 -30 116 -56 88 -57 88 -83 44 -110 0 -74 0 -72 -21 -70 -41 -70 -41 -63 -56 -55 -70 -55 -70 -48 -82 -42 -92 rrcurveto
            -42 -92 -31 -98 -22 -103 rrcurveto
            return
          </CharString>
          <CharString index="201">
            -14 -51 -16 -50 -19 -49 -28 -70 -33 -66 -37 -61 -37 -61 -44 -49 -50 -37 -50 -37 -52 -19 -53 0 -73 0 -53 33 -35 66 -34 66 -18 88 0 107 rrcurveto
            0 61 6 63 11 66 rrcurveto
            return
          </CharString>
          <CharString index="202">
            13 46 15 47 19 46 28 72 34 66 38 62 38 62 45 50 51 38 51 38 52 20 53 0 71 0 54 -33 33 -65 33 -64 15 -84 0 -104 rrcurveto
            0 -65 -5 -65 -10 -67 rrcurveto
            return
          </CharString>
          <CharString index="203">
            -14 -64 -6 -60 0 -56 0 -37 2 -36 6 -33 14 -84 36 -68 56 -51 56 -51 75 -26 93 0 93 0 85 26 78 51 78 51 63 67 50 84 rrcurveto
            50 84 36 96 23 107 13 63 7 59 0 55 0 37 -3 35 -6 34 -14 83 -36 66 -56 50 -56 50 -74 25 -92 0 -70 0 -67 -14 -62 -28 rrcurveto
            -62 -28 -53 -40 -47 -50 -47 -50 -40 -60 -33 -67 -33 -67 -26 -74 -17 -79 rrcurveto
            return
          </CharString>
          <CharString index="204">
            -28 -133 -48 -105 -68 -78 -68 -78 -72 -39 -77 0 -77 0 -58 39 -36 78 -21 44 -11 53 0 62 0 47 6 51 12 57 28 133 50 104 69 77 rrcurveto
            69 77 75 38 77 0 77 0 56 -37 35 -76 19 -42 10 -51 0 -60 0 -48 -6 -54 -13 -59 rrcurveto
            return
          </CharString>
          <CharString index="205">
            -4 -21 -4 -21 -3 -20 rrcurveto
            -21 -97 -2 -5 -163 -769 152 0 103 483 rlineto
            11 -14 12 -13 13 -12 56 -51 75 -26 93 0 21 0 19 1 21 3 16 2 15 2 16 4 52 12 50 23 46 30 78 51 63 67 50 84 rrcurveto
            50 84 35 96 23 107 14 65 7 60 0 56 0 36 -3 34 -6 32 -12 66 -24 55 -38 45 -18 28 -24 23 -28 19 -45 31 -57 16 -67 0 rrcurveto
            -68 0 -71 -17 -75 -34 -62 -28 -53 -40 -47 -50 -47 -50 -40 -60 -33 -67 -33 -67 -26 -74 -17 -79 rrcurveto
            return
          </CharString>
          <CharString index="206">
            2 -18 5 -19 7 -19 10 -27 13 -26 18 -25 18 -25 24 -20 28 -17 28 -17 33 -8 35 0 94 0 98 84 100 169 50 85 36 95 23 106 rrcurveto
            14 64 6 59 0 56 0 37 -3 35 -6 33 -15 83 -34 67 -54 49 -54 49 -69 25 -87 0 rrcurveto
            -29 -136 rlineto
            51 0 42 -18 32 -36 32 -36 20 -44 9 -52 4 -26 2 -28 0 -28 0 -28 -2 -29 -4 -29 rrcurveto
            -29 -135 rlineto
            -19 -64 -25 -59 -31 -53 -31 -53 -41 -44 -50 -36 -38 0 -26 8 -19 16 -38 28 -23 53 -9 76 rrcurveto
            11 vlineto
            0 20 1 21 5 21 rrcurveto
            63 296 -125 0 -63 -296 rlineto
            -5 -25 -8 -24 -11 -24 -41 -76 -46 -53 -50 -28 -25 -16 -32 -8 -38 0 -34 36 -21 44 -9 53 -4 27 -3 30 0 30 0 29 2 29 4 31 rrcurveto
            29 135 rlineto
            17 59 24 57 31 52 31 52 39 44 48 36 48 36 47 18 51 0 rrcurveto
            29 136 rlineto
            -87 0 -81 -25 -74 -49 -74 -49 -62 -67 -51 -83 -51 -83 -35 -95 -23 -106 -14 -64 -7 -60 0 -56 0 -37 3 -35 6 -34 28 -169 61 -84 94 0 rrcurveto
            35 0 36 8 36 17 36 17 32 20 28 25 28 25 25 26 22 27 15 19 12 19 10 18 rrcurveto
            return
          </CharString>
          <CharString index="207">
            -1 -5 0 -6 -1 -8 0 -22 7 -18 14 -14 14 -14 18 -8 22 0 25 0 24 9 23 19 23 19 14 22 6 26 2 8 0 6 0 5 rrcurveto
            -1 21 -7 19 -14 14 -14 14 -18 7 -22 0 -25 0 -24 -9 -23 -19 -23 -19 -14 -22 -5 -25 rrcurveto
            return
          </CharString>
          <CharString index="208">
            21 16 29 7 37 0 rrcurveto
            26 -3 20 -8 16 -11 13 -13 12 -14 129 102 rlineto
            -15 18 -11 14 -9 8 -9 8 -16 9 -22 10 -22 10 -25 5 -30 0 rrcurveto
            -11 hlineto
            -25 -1 -23 -2 -20 -5 -32 -8 -26 -10 -22 -12 -58 -33 -43 -35 -31 -36 rrcurveto
            -371 -458 -177 458 rlineto
            -15 36 -29 35 -44 33 -16 12 -22 10 -28 8 -18 5 -23 2 -25 1 rrcurveto
            -11 hlineto
            -30 0 -27 -5 -26 -10 -26 -10 -18 -9 -13 -8 -13 -8 -17 -14 -23 -18 rrcurveto
            85 -102 18 14 19 13 20 11 24 8 28 3 rlineto
            36 0 25 -8 15 -15 rrcurveto
            228 -550 -159 -748 158 0 159 748 rlineto
            return
          </CharString>
          <CharString index="209">
            145 66 rlineto
            -22 65 -35 52 -48 41 -48 41 -63 20 -76 0 -56 0 -56 -10 -53 -20 -53 -20 -50 -29 -43 -35 -43 -35 -41 -42 -37 -47 -37 -47 -31 -51 -24 -54 rrcurveto
            -24 -54 -20 -56 -12 -57 -11 -53 -6 -50 0 -49 0 -46 6 -45 10 -42 21 -86 40 -68 59 -51 59 -51 74 -25 87 0 39 0 40 6 39 13 rrcurveto
            39 13 35 17 33 22 33 22 30 22 26 24 26 24 25 26 22 27 rrcurveto
            -106 77 rlineto
            -10 -14 -12 -15 -14 -16 -14 -16 -18 -17 -22 -18 -22 -18 -26 -14 -29 -12 -29 -12 -27 -6 -29 0 -87 0 -64 39 -42 79 -25 48 -13 56 0 66 rrcurveto
            0 44 5 48 11 51 26 121 51 100 77 80 77 80 82 40 85 0 47 0 39 -17 33 -33 33 -33 19 -33 5 -33 rrcurveto
            return
          </CharString>
          <CharString index="210">
            -138 41 rlineto
            -34 -61 -53 -53 -70 -44 -70 -44 -69 -21 -71 0 -66 0 -58 17 -48 34 -48 34 -37 45 -24 57 -24 57 -14 65 -4 74 -1 15 0 15 0 15 rrcurveto
            0 60 6 61 14 65 17 79 25 77 35 74 35 74 40 67 48 60 48 60 56 48 64 36 64 36 67 18 69 0 rrcurveto
            2 hlineto
            69 0 59 -18 48 -37 48 -37 29 -48 6 -61 rrcurveto
            158 41 rlineto
            -4 28 -8 27 -10 27 -10 27 -16 28 -20 27 -20 27 -24 23 -29 20 -29 20 -35 16 -42 12 -42 12 -47 7 -51 0 -79 0 -76 -14 -73 -29 rrcurveto
            -73 -29 -65 -38 -57 -49 -57 -49 -53 -57 -46 -66 -46 -66 -38 -70 -31 -74 -31 -74 -24 -76 -17 -79 -17 -79 -8 -75 -1 -73 rrcurveto
            -5 vlineto
            0 -71 10 -68 18 -62 18 -64 28 -56 36 -48 36 -48 49 -37 61 -27 61 -27 70 -14 79 0 63 0 61 9 57 18 57 18 50 24 44 32 rrcurveto
            44 32 39 34 33 36 33 36 29 40 25 43 rrcurveto
            return
          </CharString>
          <CharString index="211">
            7 -43 13 -40 17 -36 17 -36 25 -34 30 -32 30 -32 42 -24 49 -18 49 -18 57 -9 63 0 79 0 76 14 73 27 73 27 64 37 56 48 rrcurveto
            56 48 52 56 46 64 46 64 37 69 31 73 31 73 23 75 17 79 17 79 8 76 1 74 rrcurveto
            7 vlineto
            0 71 -11 68 -17 64 -18 66 -26 57 -37 49 -37 49 -47 38 -61 29 -61 29 -70 14 -79 0 -51 0 -48 -7 -48 -12 -48 -12 -42 -16 -37 -20 rrcurveto
            -37 -20 -34 -23 -32 -27 -32 -27 -27 -28 -22 -27 -22 -27 -19 -27 -16 -28 rrcurveto
            133 27 rlineto
            20 44 43 41 70 40 64 37 68 18 69 0 rrcurveto
            2 hlineto
            73 0 59 -18 45 -36 50 -41 41 -63 33 -87 22 -60 13 -67 3 -74 1 -11 0 -12 0 -12 0 -63 -8 -65 -14 -67 -17 -81 -26 -76 -36 -74 rrcurveto
            -36 -74 -43 -65 -48 -57 -48 -57 -56 -45 -62 -34 -62 -34 -64 -17 -66 0 -71 0 -61 21 -52 44 -52 44 -29 53 -8 61 rrcurveto
            return
          </CharString>
          <CharString index="212">
            -309 -1456 922 0 30 141 -764 0 114 535 720 0 30 141 -720 0 106 498 764 0 29 141 rlineto
            return
          </CharString>
          <CharString index="213">
            -309 -1456 153 0 987 1161 -247 -1161 157 0 309 1456 -145 0 -999 -1190 252 1190 rlineto
            return
          </CharString>
          <CharString index="214">
            294 -708 -463 -589 rlineto
            -18 -16 -26 -8 -34 0 rrcurveto
            -27 3 -20 8 -15 12 -14 12 -12 14 -129 -102 rlineto
            15 -18 12 -14 9 -8 9 -8 15 -9 22 -10 22 -10 25 -5 30 0 rrcurveto
            11 hlineto
            25 1 24 2 20 5 23 6 26 10 30 14 30 14 30 19 27 21 9 7 9 8 9 9 6 6 8 9 9 11 rrcurveto
            1056 1314 -167 0 -483 -600 -229 600 rlineto
            return
          </CharString>
          <CharString index="215">
            534 631 -134 -631 157 0 134 631 267 -631 178 0 -278 669 30 142 558 648 -182 0 -528 -617 130 614 -157 0 -130 -614 -265 617 rlineto
            -182 0 282 -648 -30 -142 -562 -669 rlineto
            return
          </CharString>
          <CharString index="216">
            19 -85 45 -68 74 -51 74 -51 79 -26 83 0 138 0 125 43 112 86 112 86 70 107 28 131 6 26 2 26 0 25 0 20 -2 20 -3 20 rrcurveto
            -8 44 -13 38 -19 31 -19 31 -20 26 -24 21 -24 21 -23 15 -24 7 29 13 30 20 32 26 32 26 31 36 32 47 32 47 21 51 12 55 rrcurveto
            6 27 3 25 0 25 0 43 -9 40 -17 38 -26 59 -40 46 -54 31 -54 31 -61 16 -67 0 -82 0 -78 -21 -76 -43 -76 -43 -63 -56 -50 -70 rrcurveto
            123 -64 rlineto
            31 49 40 39 46 28 46 28 51 14 53 0 rrcurveto
            6 hlineto
            63 0 52 -24 39 -47 28 -34 14 -40 0 -45 0 -17 -2 -17 -4 -18 -16 -75 -36 -62 -58 -49 -58 -49 -62 -25 -65 0 rrcurveto
            -98 0 -27 -125 78 0 rlineto
            41 0 39 -7 35 -13 35 -13 30 -19 27 -25 27 -25 18 -33 10 -40 5 -21 4 -21 0 -23 0 -21 -3 -23 -5 -23 -20 -94 -49 -75 -76 -57 rrcurveto
            -76 -57 -84 -28 -93 0 -55 0 -50 17 -46 35 -46 35 -29 44 -13 55 rrcurveto
            return
          </CharString>
          <CharString index="217">
            -41 1 -31 9 -22 16 -45 35 -30 54 -17 75 rrcurveto
            -81 hlineto
            -1 -3 -1 -4 -1 -3 -2 -11 -1 -13 0 -13 0 -39 10 -48 21 -55 15 -38 28 -32 41 -27 39 -25 42 -13 44 0 44 0 48 13 49 25 rrcurveto
            53 27 40 32 31 38 60 74 34 60 10 45 1 3 1 4 1 3 rrcurveto
            -80 hlineto
            -63 -81 -55 -55 -45 -28 -26 -15 -33 -9 -37 -2 rrcurveto
            return
          </CharString>
          <CharString index="218">
            -404 -1198 rlineto
            -27 -82 -43 -41 -58 0 rrcurveto
            -27 3 -20 8 -15 12 -14 12 -12 14 -129 -102 rlineto
            15 -18 12 -14 9 -8 9 -8 15 -9 22 -10 22 -10 25 -5 28 0 16 0 20 2 23 6 23 6 26 10 30 14 30 14 30 19 27 21 rrcurveto
            27 21 25 27 22 34 9 14 16 38 22 63 rrcurveto
            370 1026 208 0 -280 -1315 158 0 309 1456 rlineto
            return
          </CharString>
          <CharString index="219">
            -309 -1456 158 0 280 1315 661 0 -280 -1315 158 0 309 1456 rlineto
            return
          </CharString>
          <CharString index="220">
            -242 0 279 1314 -158 0 -279 -1315 -661 0 279 1315 -158 0 -309 -1456 1077 0 -44 -208 142 0 rlineto
            return
          </CharString>
          <CharString index="221">
            -68 -324 rlineto
            -13 -59 -17 -54 -21 -50 -21 -50 -25 -45 -30 -40 -30 -40 -33 -30 -39 -23 -39 -23 -44 -11 -45 0 -45 0 -37 11 -29 22 -29 22 -21 31 -12 39 rrcurveto
            -11 37 -5 42 0 46 rrcurveto
            9 vlineto
            1 50 6 55 13 60 rrcurveto
            69 325 -151 0 -69 -325 rlineto
            -18 -84 -8 -76 0 -66 0 -9 1 -9 0 -9 3 -72 14 -58 23 -45 23 -45 33 -33 39 -22 39 -22 47 -11 55 0 76 0 70 20 63 40 rrcurveto
            63 40 47 51 32 59 rrcurveto
            -166 -780 152 0 309 1456 rlineto
            return
          </CharString>
          <CharString index="222">
            24 hlineto
            223 112 -69 -137 hvcurveto
            0 -21 -3 -22 -5 -24 -5 -23 -6 -20 -8 -17 -12 -27 -15 -25 -20 -23 -20 -23 -25 -22 -32 -21 -32 -21 -41 -17 -51 -12 -51 -12 -59 -5 -65 0 rrcurveto
            -24 hlineto
            return
          </CharString>
          <CharString index="223">
            158 0 24 0 rlineto
            153 0 130 29 105 59 106 59 73 79 41 98 11 26 8 28 7 31 6 30 4 29 0 28 0 26 -3 24 -6 24 -12 49 -23 45 -35 38 rrcurveto
            -35 38 -51 30 -66 22 -66 22 -80 11 -92 0 rrcurveto
            -24 0 134 631 -158 0 rlineto
            return
          </CharString>
          <CharString index="224">
            206 hlineto
            223 112 -69 -137 hvcurveto
            0 -21 -3 -22 -5 -24 -5 -23 -6 -20 -8 -17 -12 -27 -15 -25 -20 -23 -20 -23 -25 -22 -32 -21 -32 -21 -41 -17 -51 -12 -51 -12 -59 -5 -65 0 rrcurveto
            -206 hlineto
            return
          </CharString>
          <CharString index="225">
            158 0 206 0 rlineto
            153 0 130 29 105 59 105 59 73 78 42 99 11 30 9 28 6 27 6 30 4 29 0 28 0 26 -3 24 -6 24 -12 49 -23 45 -35 38 rrcurveto
            -35 38 -51 30 -66 22 -66 22 -80 11 -92 0 rrcurveto
            -206 0 134 631 -158 0 rlineto
            return
          </CharString>
          <CharString index="226">
            7 -43 13 -40 17 -36 17 -36 25 -34 30 -32 30 -32 42 -24 49 -18 49 -18 57 -9 63 0 79 0 76 14 73 27 73 27 64 37 56 48 rrcurveto
            56 48 52 56 46 64 46 64 37 69 31 73 31 73 23 75 17 79 17 79 8 76 1 74 rrcurveto
            7 vlineto
            0 71 -11 68 -17 64 -18 66 -26 57 -37 49 -37 49 -47 38 -61 29 -61 29 -70 14 -79 0 -51 0 -48 -7 -48 -12 -48 -12 -42 -16 -37 -20 rrcurveto
            -37 -20 -34 -23 -32 -27 -32 -27 -27 -28 -22 -27 -22 -27 -19 -27 -16 -28 rrcurveto
            140 -41 rlineto
            32 61 48 48 64 37 64 37 68 18 69 0 rrcurveto
            2 hlineto
            69 0 60 -18 48 -36 48 -36 36 -48 22 -60 22 -60 13 -67 3 -74 1 -11 0 -12 0 -11 0 -43 -4 -44 -6 -44 rrcurveto
            -600 0 -30 -142 599 0 rlineto
            -15 -53 -20 -51 -25 -50 -36 -74 -43 -65 -48 -57 -48 -57 -56 -45 -62 -34 -62 -34 -64 -17 -66 0 -71 0 -61 21 -52 44 -52 44 -29 53 -8 61 rrcurveto
            return
          </CharString>
          <CharString index="227">
            61 0 50 -23 39 -45 29 -33 14 -39 0 -45 0 -17 -2 -17 -4 -19 -14 -66 -35 -56 -57 -46 -57 -46 -61 -24 -64 0 -72 0 -55 23 -38 45 rrcurveto
            -28 32 -13 39 0 44 0 17 2 19 4 19 14 66 35 56 57 46 57 46 64 24 74 0 rrcurveto
            return
          </CharString>
          <CharString index="228">
            -104 0 -95 -36 -87 -71 -87 -71 -55 -88 -23 -107 -7 -34 -4 -31 0 -30 0 -68 20 -59 38 -48 55 -69 83 -34 108 0 36 0 37 7 38 15 rrcurveto
            38 15 32 17 27 21 27 21 23 21 18 20 18 20 12 17 4 13 rrcurveto
            -1 -2 -33 -156 139 0 113 532 26 123 rlineto
            10 47 5 42 0 40 0 76 -19 64 -37 51 -57 77 -83 38 -111 0 -113 0 -107 -36 -105 -73 rrcurveto
            55 -104 rlineto
            28 23 34 18 44 14 44 14 45 8 46 0 78 0 55 -26 31 -52 19 -31 9 -40 0 -47 0 -31 -4 -34 -8 -38 rrcurveto
            -20 -96 rlineto
            -1 33 -22 34 -43 36 -43 36 -57 19 -69 0 rrcurveto
            return
          </CharString>
          <CharString index="229">
            29 136 -640 0 -228 -1074 151 0 199 938 rlineto
            return
          </CharString>
          <CharString index="230">
            668 hlineto
            2 8 2 17 5 24 5 24 4 16 1 7 11 52 6 52 0 49 0 14 -1 13 -1 14 -4 62 -14 57 -22 50 -22 50 -33 40 -47 30 rrcurveto
            -47 30 -54 16 -65 0 -87 0 -81 -25 -74 -49 -74 -49 -62 -67 -51 -83 -51 -83 -36 -95 -23 -106 -14 -65 -7 -62 0 -57 0 -36 3 -33 5 -33 rrcurveto
            14 -85 36 -67 53 -51 53 -51 70 -26 87 0 79 0 77 20 78 39 78 39 64 53 48 66 rrcurveto
            -121 55 rlineto
            -30 -40 -41 -33 -53 -26 -53 -26 -49 -12 -48 0 -51 0 -41 18 -31 36 -31 36 -21 44 -9 53 -4 27 -3 30 0 30 0 29 3 29 4 31 rrcurveto
            return
          </CharString>
          <CharString index="231">
            513 532 -113 -532 157 0 113 532 286 -532 178 0 -299 570 28 129 499 375 -182 0 -468 -344 73 341 -157 0 -73 -341 -323 344 rlineto
            -182 0 341 -375 -28 -129 -541 -570 rlineto
            return
          </CharString>
          <CharString index="232">
            15 -68 37 -54 59 -41 59 -41 62 -20 67 0 110 0 100 32 88 63 88 63 54 80 21 97 3 15 2 15 0 15 0 19 -2 19 -6 18 rrcurveto
            -10 32 -15 28 -20 23 -20 23 -22 19 -24 16 -24 16 -23 11 -24 5 27 10 28 14 29 19 29 19 30 27 28 35 28 35 19 38 9 40 rrcurveto
            4 19 2 18 0 18 0 33 -7 29 -14 29 -22 44 -31 33 -43 23 -43 23 -49 12 -53 0 -65 0 -62 -17 -59 -35 -59 -35 -51 -45 -40 -57 rrcurveto
            90 -52 rlineto
            23 31 27 26 34 18 34 18 36 9 39 0 rrcurveto
            4 hlineto
            46 0 37 -16 30 -30 23 -23 11 -26 0 -31 0 -9 -1 -11 -2 -10 -10 -48 -26 -40 -42 -32 -42 -32 -45 -15 -47 0 rrcurveto
            -71 0 -26 -125 57 0 rlineto
            30 0 28 -4 26 -9 26 -9 23 -12 20 -16 25 -16 17 -20 11 -26 9 -17 4 -19 0 -19 0 -10 -1 -10 -2 -11 -13 -61 -34 -48 -57 -36 rrcurveto
            -57 -36 -63 -19 -70 0 -42 0 -38 11 -35 22 -35 22 -23 30 -12 35 rrcurveto
            return
          </CharString>
          <CharString index="233">
            -228 -1074 152 0 701 812 -173 -812 140 0 228 1074 -152 0 -682 -802 170 802 rlineto
            return
          </CharString>
          <CharString index="234">
            -251 -816 rlineto
            -25 -82 -43 -41 -60 0 rrcurveto
            -26 3 -20 8 -16 12 -14 12 -12 14 -129 -102 rlineto
            15 -18 12 -14 9 -8 9 -8 15 -9 22 -10 22 -10 25 -5 28 0 16 0 20 2 23 6 23 6 27 10 30 14 30 14 29 19 27 21 rrcurveto
            27 21 25 27 22 34 12 19 16 39 19 57 rrcurveto
            214 644 130 0 -198 -933 158 0 228 1074 rlineto
            return
          </CharString>
          <CharString index="235">
            151 0 156 732 117 -732 130 0 429 732 -156 -732 151 0 228 1074 -151 0 -518 -864 -153 864 -156 0 rlineto
            return
          </CharString>
          <CharString index="236">
            -228 -1074 158 0 198 933 509 0 -198 -933 158 0 228 1074 rlineto
            return
          </CharString>
          <CharString index="237">
            -30 -141 338 0 -197 -933 158 0 198 933 328 0 30 141 rlineto
            return
          </CharString>
          <CharString index="238">
            136 -1073 -142 -224 rlineto
            -18 -16 -26 -8 -34 0 rrcurveto
            -26 3 -20 8 -16 11 -13 14 -12 13 -129 -102 rlineto
            15 -18 12 -13 9 -8 9 -8 15 -10 22 -10 22 -10 25 -5 30 0 rrcurveto
            11 hlineto
            25 1 24 3 20 5 23 6 26 10 30 14 30 14 29 17 27 21 9 7 9 9 9 9 13 13 9 9 2 4 rrcurveto
            730 1314 -158 0 -474 -878 -93 878 rlineto
            return
          </CharString>
          <CharString index="239">
            -242 0 198 932 -158 0 -198 -933 -509 0 198 933 -158 0 -228 -1074 925 0 -44 -208 142 0 rlineto
            return
          </CharString>
          <CharString index="240">
            -33 -158 rlineto
            -13 -59 -17 -54 -21 -50 -21 -50 -24 -45 -30 -40 -30 -40 -34 -30 -39 -23 -39 -23 -43 -11 -45 0 -45 0 -38 11 -29 22 -29 22 -20 31 -12 39 rrcurveto
            -11 37 -6 42 0 47 rrcurveto
            8 vlineto
            1 50 7 55 13 60 rrcurveto
            34 159 -151 0 -34 -159 rlineto
            -18 -85 -9 -77 0 -66 0 -9 1 -8 0 -8 3 -72 15 -58 23 -45 23 -45 32 -33 39 -22 39 -22 48 -11 55 0 76 0 69 20 63 40 rrcurveto
            63 40 47 51 32 59 rrcurveto
            -120 -564 152 0 228 1074 rlineto
            return
          </CharString>
          <CharString index="241">
            158 0 140 0 rlineto
            153 0 130 29 105 59 105 59 73 78 42 99 10 24 8 25 6 27 1 3 0 3 1 3 1 8 1 8 0 8 0 27 -8 30 -15 32 rrcurveto
            -23 51 -21 33 -20 16 -36 29 -52 26 -67 22 -66 22 -80 11 -92 0 rrcurveto
            -140 0 72 342 -158 0 rlineto
            return
          </CharString>
          <CharString index="242">
            140 hlineto
            214 133 -60 -122 hvcurveto
            0 -2 0 -3 -1 -4 -2 -11 -6 -16 -10 -22 -12 -27 -15 -25 -20 -23 -20 -23 -25 -22 -32 -21 -32 -21 -41 -17 -51 -12 -51 -12 -59 -5 -65 0 rrcurveto
            -140 hlineto
            return
          </CharString>
          <CharString index="243">
            158 0 140 0 rlineto
            153 0 129 29 105 59 105 59 74 78 42 99 10 24 8 25 6 27 1 3 0 3 1 3 1 8 1 8 0 8 0 27 -8 30 -15 32 rrcurveto
            -23 51 -21 33 -20 16 -36 29 -53 26 -67 22 -66 22 -80 11 -92 0 rrcurveto
            -140 0 73 342 -158 0 rlineto
            return
          </CharString>
          <CharString index="244">
            140 hlineto
            214 133 -60 -122 hvcurveto
            0 -2 -1 -3 -1 -4 -2 -11 -5 -16 -10 -22 -12 -27 -15 -26 -20 -23 -20 -23 -25 -22 -32 -21 -32 -21 -41 -15 -51 -12 -51 -12 -59 -6 -65 0 rrcurveto
            -140 hlineto
            return
          </CharString>
          <CharString index="245">
            19 33 33 33 47 33 47 33 47 17 47 0 85 0 64 -40 43 -80 27 -50 14 -57 0 -66 0 -18 -1 -18 -2 -19 rrcurveto
            -384 0 -31 -142 385 0 rlineto
            -30 -98 -44 -82 -62 -64 -76 -79 -80 -39 -87 0 -29 0 -27 6 -23 12 -23 12 -20 14 -14 18 -14 18 -10 17 -8 16 -8 16 -6 15 -4 14 rrcurveto
            -138 -77 rlineto
            10 -27 13 -26 16 -24 16 -24 22 -22 23 -22 23 -22 29 -17 33 -13 33 -13 38 -6 39 0 87 0 84 25 81 51 81 51 70 68 57 86 rrcurveto
            57 86 40 96 22 103 11 50 5 50 0 48 rrcurveto
            19 vlineto
            -2 54 -9 51 -17 47 -17 47 -23 42 -29 35 -29 35 -36 29 -45 20 -45 20 -50 10 -56 0 -76 0 -71 -20 -66 -41 -66 -41 -57 -52 -50 -65 rrcurveto
            return
          </CharString>
          <CharString index="246">
            -8 -7 -7 -8 -4 -8 -2 -4 -2 -5 -1 -5 -1 -4 0 -3 0 -3 0 -9 3 -8 4 -8 6 -10 10 -7 12 -3 5 -1 4 -1 4 0 rrcurveto
            9 0 10 3 9 6 rrcurveto
            352 219 rlineto
            17 12 11 14 7 15 2 5 4 5 1 7 1 5 0 5 0 5 0 11 -2 11 -6 9 -7 14 -11 10 -16 4 -6 2 -6 0 -6 0 rrcurveto
            -17 0 -16 -5 -19 -13 rrcurveto
            return
          </CharString>
          <CharString index="247">
            232 1091 -152 0 -115 -540 rlineto
            -13 -59 -15 -54 -21 -50 -21 -50 -26 -44 -30 -40 -30 -40 -33 -31 -39 -23 -39 -23 -43 -11 -45 0 -45 0 -38 11 -29 22 -29 22 -20 31 -12 39 rrcurveto
            -11 37 -5 42 0 46 rrcurveto
            9 vlineto
            1 50 6 55 13 60 rrcurveto
            115 541 -151 0 -115 -541 rlineto
            -18 -84 -8 -74 0 -66 0 -9 1 -10 0 -9 3 -72 13 -59 23 -45 23 -45 34 -33 39 -22 39 -22 47 -11 55 0 76 0 70 21 63 40 rrcurveto
            63 40 45 50 32 59 rrcurveto
            -45 -214 rlineto
            -10 -46 -17 -42 -25 -37 -25 -37 -27 -29 -32 -22 -32 -22 -33 -16 -34 -12 -34 -12 -33 -5 -33 0 -103 0 -75 41 -52 82 rrcurveto
            -124 -85 rlineto
            75 -116 109 -58 142 0 51 0 53 9 54 20 54 20 53 28 49 36 49 36 41 44 37 56 37 56 26 61 14 65 rrcurveto
            return
          </CharString>
          <CharString index="248">
            -22 -77 -35 -73 -44 -68 -44 -68 -56 -57 -70 -47 -70 -47 -72 -23 -76 0 -112 0 -82 45 -51 91 -37 67 -19 76 0 86 0 30 2 32 5 33 rrcurveto
            return
          </CharString>
          <CharString index="249">
            -2 -8 -4 -18 -6 -29 -6 -29 -6 -19 -1 -7 -17 -79 -8 -59 0 -39 rrcurveto
            -11 vlineto
            3 -84 23 -88 43 -88 17 -36 25 -34 30 -32 30 -32 42 -24 49 -18 49 -18 57 -9 63 0 79 0 76 14 73 27 73 27 64 37 56 48 rrcurveto
            56 48 52 56 46 64 46 64 37 69 31 73 31 73 23 75 17 79 17 79 8 76 1 74 rrcurveto
            7 vlineto
            0 71 -11 68 -17 64 -18 66 -26 57 -37 49 -37 49 -47 38 -61 29 -61 29 -70 14 -79 0 -51 0 -48 -7 -48 -12 -48 -12 -42 -16 -37 -20 rrcurveto
            -37 -20 -34 -23 -32 -27 -32 -27 -27 -28 -22 -27 -22 -27 -19 -27 -16 -28 rrcurveto
            140 -41 rlineto
            32 61 48 48 64 37 64 37 68 18 69 0 rrcurveto
            2 hlineto
            69 0 60 -18 48 -36 48 -36 36 -48 22 -60 22 -60 14 -66 5 -72 1 -16 0 -16 0 -16 0 -57 -6 -59 -13 -62 rrcurveto
            return
          </CharString>
          <CharString index="250">
            -2 -9 0 -6 0 -4 0 -22 8 -18 14 -14 14 -14 18 -8 22 0 25 0 24 9 23 19 23 19 13 22 6 26 2 8 0 6 0 5 rrcurveto
            -1 21 -6 19 -14 14 -14 14 -19 7 -22 0 -25 0 -24 -9 -23 -19 -23 -19 -14 -22 -5 -25 rrcurveto
            return
          </CharString>
          <CharString index="251">
            -2 -9 0 -6 0 -4 0 -22 7 -18 14 -14 14 -14 19 -8 22 0 25 0 24 9 23 19 23 19 13 22 6 26 2 8 0 6 0 5 rrcurveto
            -1 21 -6 19 -14 14 -14 14 -19 7 -22 0 -25 0 -24 -9 -23 -19 -23 -19 -14 -22 -5 -25 rrcurveto
            return
          </CharString>
          <CharString index="252">
            -10 -37 -10 -37 -14 -37 -20 -55 -26 -54 -33 -55 -33 -55 -35 -47 -40 -41 -40 -41 -46 -32 -55 -26 -55 -26 -58 -13 -62 0 -57 0 -48 11 -42 21 rrcurveto
            -42 21 -33 30 -23 38 -23 38 -18 41 -10 45 -10 43 -6 46 0 52 rrcurveto
            8 vlineto
            0 53 4 54 9 55 rrcurveto
            return
          </CharString>
          <CharString index="253">
            8 28 9 27 10 28 20 56 26 56 32 56 32 56 36 50 40 42 40 42 47 35 55 27 55 27 59 13 62 0 57 0 50 -10 41 -22 rrcurveto
            41 -22 33 -30 23 -39 23 -39 17 -42 10 -46 10 -47 6 -52 0 -57 0 -45 -4 -45 -6 -47 rrcurveto
            return
          </CharString>
          <CharString index="254">
            -87 0 -81 -25 -74 -49 -74 -49 -62 -67 -51 -83 -51 -83 -36 -95 -23 -106 -14 -65 -7 -62 0 -57 0 -36 3 -33 5 -33 14 -85 36 -67 53 -51 rrcurveto
            53 -51 70 -26 87 0 rrcurveto
            0 0 -1 0 0 0 0 hflex
            87 0 80 26 75 51 75 51 64 67 50 85 50 85 36 95 23 106 14 64 7 59 0 56 0 37 -3 35 -6 33 -15 83 -34 67 -54 49 rrcurveto
            -54 49 -69 25 -87 0 rrcurveto
            return
          </CharString>
          <CharString index="255">
            -2 -8 -1 -7 0 -7 rrcurveto
            -6 vlineto
            0 -5 1 -6 1 -6 10 -41 29 -21 46 0 15 0 16 4 16 5 45 19 27 33 10 46 rrcurveto
            3 9 rlineto
            1 3 0 2 0 2 0 2 0 3 -1 2 rrcurveto
            5 vlineto
            0 5 0 6 -1 6 -10 41 -29 21 -46 0 -15 0 -16 -4 -16 -5 -45 -19 -28 -33 -10 -46 rrcurveto
            return
          </CharString>
          <CharString index="256">
            -310 -1458 158 0 143 674 662 0 -143 -674 158 0 310 1458 -158 0 -137 -642 -662 0 137 642 rlineto
            return
          </CharString>
          <CharString index="257">
            -2 -8 -1 -7 0 -7 rrcurveto
            -6 vlineto
            0 -5 1 -6 1 -6 10 -41 29 -21 46 0 15 0 16 4 16 5 45 19 28 33 10 46 0 2 1 2 0 2 1 4 1 4 0 3 rrcurveto
            0 2 -1 2 0 2 rrcurveto
            5 vlineto
            0 5 0 6 -1 6 -10 41 -29 21 -46 0 -15 0 -16 -4 -16 -5 -45 -19 -28 -33 -10 -46 rrcurveto
            return
          </CharString>
          <CharString index="258">
            140 660 rlineto
            8 38 17 38 24 36 24 36 27 32 33 28 33 28 37 23 37 16 37 16 36 8 36 0 101 0 50 -57 0 -115 0 -37 -6 -43 -10 -49 rrcurveto
            -140 -658 152 0 140 658 rlineto
            12 59 7 52 0 47 0 71 -15 58 -28 43 -47 72 -78 37 -109 0 -26 0 -24 -2 -22 -5 -22 -5 -23 -9 -25 -12 -25 -12 -26 -17 -29 -23 rrcurveto
            -29 -23 -33 -30 -38 -37 rrcurveto
            113 534 -152 0 -309 -1456 rlineto
            return
          </CharString>
          <CharString index="259">
            -2 -9 -1 -7 0 -9 0 -6 2 -7 1 -7 10 -41 28 -21 46 0 15 0 16 4 16 5 45 19 28 33 10 46 rrcurveto
            3 9 rlineto
            1 3 0 2 0 2 0 2 0 3 -1 2 0 7 -1 7 -1 8 -10 41 -29 21 -46 0 -15 0 -16 -4 -16 -5 -45 -19 -28 -33 -10 -46 rrcurveto
            return
          </CharString>
          <CharString index="260">
            -310 -1458 925 0 30 141 -767 0 280 1317 rlineto
            return
          </CharString>
          <CharString index="261">
            -2 -8 -1 -7 0 -7 rrcurveto
            -6 vlineto
            0 -5 1 -6 1 -6 10 -41 28 -21 46 0 15 0 16 4 16 5 45 19 28 33 10 46 rrcurveto
            3 9 rlineto
            1 3 0 2 0 2 0 2 0 3 -1 2 rrcurveto
            5 vlineto
            0 5 0 6 -1 6 -10 41 -30 21 -46 0 -15 0 -16 -4 -16 -5 -45 -19 -27 -33 -10 -46 rrcurveto
            return
          </CharString>
          <CharString index="262">
            265 1249 -152 0 -266 -1253 rlineto
            -5 -25 -3 -22 0 -21 0 -45 12 -35 25 -26 36 -38 63 -20 93 0 rrcurveto
            28 131 rlineto
            -66 -34 25 49 hvcurveto
            0 9 2 11 2 11 rrcurveto
            return
          </CharString>
          <CharString index="263">
            -29 -135 605 0 29 135 rlineto
            return
          </CharString>
          <CharString index="264">
            154 0 256 1205 175 -1189 179 0 681 1189 -256 -1205 154 0 310 1458 -207 0 -727 -1249 -194 1249 -215 0 rlineto
            return
          </CharString>
          <CharString index="265">
            140 660 rlineto
            9 42 16 40 23 36 23 36 25 31 31 27 31 27 33 21 34 16 34 16 35 7 33 0 49 0 33 -25 18 -51 8 -23 4 -28 0 -33 rrcurveto
            0 -41 -6 -48 -12 -56 rrcurveto
            -139 -654 152 0 139 654 rlineto
            16 74 8 64 0 55 0 57 -9 47 -17 37 -34 72 -70 37 -111 0 -56 0 -55 -16 -54 -31 -54 -31 -58 -53 -64 -74 -20 137 -78 68 -135 0 rrcurveto
            -52 0 -50 -13 -45 -25 -45 -25 -52 -46 -56 -66 rrcurveto
            32 152 -152 0 -228 -1074 152 0 140 660 rlineto
            9 42 16 40 23 36 23 36 25 31 31 27 31 27 33 21 34 16 34 16 35 7 33 0 51 0 33 -25 17 -51 8 -23 3 -27 0 -33 rrcurveto
            0 -40 -5 -48 -12 -54 rrcurveto
            -140 -658 rlineto
            return
          </CharString>
          <CharString index="266">
            158 0 253 1191 495 -1191 146 0 310 1458 -158 0 -247 -1163 -493 1163 -154 0 rlineto
            return
          </CharString>
          <CharString index="267">
            140 660 rlineto
            9 40 17 38 26 36 26 36 28 32 34 27 34 27 37 23 38 16 38 16 36 8 34 0 52 -4 41 -27 26 -50 15 -28 7 -35 0 -42 rrcurveto
            0 -34 -5 -38 -9 -43 rrcurveto
            -140 -658 152 0 140 658 rlineto
            5 26 4 25 4 24 3 16 1 16 0 16 0 8 0 7 -1 8 rrcurveto
            -4 65 rlineto
            -21 152 -88 76 -153 0 -112 0 -111 -62 -109 -123 rrcurveto
            34 162 -152 0 -228 -1074 rlineto
            return
          </CharString>
          <CharString index="268">
            115 541 207 0 rlineto
            127 0 90 -23 56 -44 42 -33 21 -45 0 -59 0 -20 -2 -21 -5 -23 -39 -182 -148 -91 -257 0 rrcurveto
            return
          </CharString>
          <CharString index="269">
            182 0 -296 650 rlineto
            120 22 99 47 79 72 79 72 52 87 21 98 6 30 3 28 0 26 0 33 -5 30 -9 29 -16 51 -29 42 -42 35 -42 35 -53 26 -63 18 rrcurveto
            -63 18 -71 9 -79 0 rrcurveto
            -365 0 -310 -1458 158 0 134 631 215 0 rlineto
            return
          </CharString>
          <CharString index="270">
            -2 -9 -1 -7 0 -9 0 -6 2 -7 1 -7 10 -41 28 -21 46 0 15 0 16 4 16 5 45 19 28 33 10 46 0 2 1 2 0 2 rrcurveto
            1 4 1 4 0 3 0 2 -1 2 0 2 rrcurveto
            5 vlineto
            0 5 0 6 -1 6 -10 41 -29 21 -46 0 -15 0 -16 -4 -16 -5 -45 -19 -28 -33 -10 -46 rrcurveto
            return
          </CharString>
          <CharString index="271">
            92 124 rlineto
            -52 37 -64 18 -77 0 -23 0 -25 -6 -25 -10 -25 -10 -26 -13 -25 -16 -25 -16 -25 -20 -22 -21 -22 -21 -19 -23 -16 -23 rrcurveto
            32 152 -152 0 -228 -1074 152 0 137 644 rlineto
            10 48 17 43 22 39 22 39 24 33 28 28 28 28 30 22 32 16 32 16 32 8 31 0 49 0 43 -15 38 -27 rrcurveto
            return
          </CharString>
          <CharString index="272">
            40 -107 58 -79 76 -52 76 -52 91 -27 105 -1 71 1 69 12 66 23 66 23 58 30 52 38 52 38 45 46 36 52 36 52 24 55 13 59 rrcurveto
            9 42 4 36 0 31 0 13 0 12 -2 12 -6 39 -17 35 -26 31 -26 31 -40 28 -51 27 -51 27 -64 29 -78 33 rrcurveto
            -133 51 rlineto
            -109 48 -55 61 0 76 0 12 1 12 3 13 9 40 15 35 22 31 22 31 25 27 32 23 32 23 34 18 39 12 39 12 38 6 41 0 rrcurveto
            75 0 63 -16 50 -32 50 -32 37 -45 21 -59 rrcurveto
            142 79 -26 52 rlineto
            -77 130 -129 64 -176 0 -64 0 -62 -10 -59 -20 -59 -20 -55 -29 -49 -36 -49 -36 -41 -42 -33 -49 -33 -49 -24 -52 -12 -56 -5 -24 -3 -23 0 -23 rrcurveto
            0 -146 110 -106 219 -62 rrcurveto
            21 -6 rlineto
            111 -36 81 -41 52 -49 41 -39 21 -43 0 -49 0 -13 -1 -13 -3 -14 -9 -44 -17 -40 -26 -36 -26 -36 -30 -31 -36 -27 -36 -27 -40 -21 -44 -15 rrcurveto
            -44 -15 -45 -7 -45 0 -74 0 -62 19 -51 38 -51 38 -47 67 -40 94 rrcurveto
            return
          </CharString>
          <CharString index="273">
            119 -42 59 -56 0 -69 0 -9 -1 -10 -2 -9 -6 -29 -10 -26 -17 -23 -17 -23 -22 -20 -23 -16 -23 -16 -26 -13 -28 -10 -28 -10 -28 -4 -29 0 rrcurveto
            -133 0 -68 45 -2 92 rrcurveto
            -147 -27 rlineto
            11 -164 109 -82 205 0 53 0 51 9 48 18 48 18 44 24 39 29 39 29 33 34 27 40 27 40 18 41 9 44 4 19 2 19 0 18 rrcurveto
            0 15 -1 14 -3 14 -6 30 -14 29 -23 27 -23 27 -32 27 -42 25 -42 25 -52 26 -64 26 rrcurveto
            -40 14 rlineto
            -82 30 -43 43 0 55 0 8 1 9 2 9 5 23 10 21 15 20 15 20 19 16 21 14 21 14 23 10 26 8 26 8 25 4 25 0 rrcurveto
            113 0 62 -40 10 -81 rrcurveto
            147 28 rlineto
            1 36 -7 32 -15 28 -15 28 -22 23 -28 20 -28 20 -32 15 -37 10 -37 10 -38 6 -41 0 rrcurveto
            -6 hlineto
            -53 -1 -52 -10 -46 -16 -46 -16 -41 -21 -36 -27 -36 -27 -30 -31 -24 -36 -24 -36 -16 -37 -9 -41 -4 -17 -1 -17 0 -17 0 -13 1 -14 2 -12 rrcurveto
            5 -28 12 -27 22 -25 22 -25 31 -23 39 -23 39 -23 53 -22 63 -22 rrcurveto
            return
          </CharString>
          <CharString index="274">
            -30 -142 478 0 -280 -1316 158 0 280 1316 457 0 30 142 rlineto
            return
          </CharString>
          <CharString index="275">
            -155 -728 rlineto
            -6 -28 -3 -25 0 -23 0 -43 10 -34 20 -26 30 -40 66 -21 101 0 rrcurveto
            69 0 27 127 -69 0 rlineto
            -64 -33 27 53 hvcurveto
            0 11 2 12 3 14 rrcurveto
            154 724 197 0 28 135 -197 0 53 250 -152 0 -53 -250 -141 0 -28 -135 rlineto
            return
          </CharString>
          <CharString index="276">
            -29 -136 604 0 29 136 rlineto
            return
          </CharString>
          <CharString index="277">
            -227 250 rlineto
            -13 13 -15 5 -17 0 -6 0 -6 0 -6 -2 -18 -4 -15 -10 -13 -14 -14 -13 -9 -16 -4 -17 -1 -3 0 -2 0 -3 0 -3 1 -3 0 -3 rrcurveto
            1 -15 6 -14 11 -12 rrcurveto
            258 -219 rlineto
            7 -6 9 -3 9 0 4 0 5 1 5 1 14 3 12 7 10 10 10 11 8 11 3 13 1 4 0 4 0 3 0 10 -4 8 -6 8 rrcurveto
            return
          </CharString>
          <CharString index="278">
            2 10 1 8 0 5 0 24 -8 20 -16 16 -16 16 -21 9 -26 0 -29 0 -28 -10 -25 -21 -25 -21 -18 -26 -6 -30 -2 -8 0 -7 1 -7 rrcurveto
            0 -25 8 -20 16 -16 16 -16 21 -7 26 0 -11 -50 -36 -59 -63 -69 rrcurveto
            49 -31 27 29 rlineto
            17 20 16 17 12 16 12 16 15 20 18 26 18 26 16 28 12 29 12 29 9 30 6 29 rrcurveto
            return
          </CharString>
          <CharString index="279">
            -6 -30 -2 -30 0 -30 0 -28 4 -28 6 -25 6 -26 6 -20 6 -16 6 -16 7 -17 9 -20 rrcurveto
            15 -29 62 31 rlineto
            -25 52 -13 47 0 41 0 13 1 13 3 12 26 0 25 7 22 16 22 16 18 20 10 25 3 7 2 7 2 8 2 8 1 8 0 8 rrcurveto
            0 20 -6 18 -12 15 -17 21 -24 10 -29 0 -26 0 -25 -9 -22 -16 -22 -16 -18 -20 -10 -24 -2 -5 -3 -8 -2 -10 rrcurveto
            return
          </CharString>
          <CharString index="280">
            -6 -30 -2 -30 0 -30 0 -28 4 -28 6 -25 6 -26 6 -20 6 -16 6 -16 6 -17 9 -20 rrcurveto
            15 -29 63 31 rlineto
            -25 52 -13 47 0 41 0 13 1 13 3 12 26 0 25 7 22 16 22 16 18 20 10 25 3 7 2 7 2 8 2 8 1 8 0 8 rrcurveto
            0 20 -6 18 -12 15 -17 21 -24 10 -29 0 -26 0 -25 -9 -22 -16 -22 -16 -18 -20 -10 -24 -2 -5 -3 -8 -2 -10 rrcurveto
            return
          </CharString>
          <CharString index="281">
            2 10 1 8 0 5 0 24 -8 20 -16 16 -16 16 -21 9 -26 0 -29 0 -28 -10 -25 -21 -25 -21 -18 -26 -6 -30 -2 -8 0 -7 1 -7 rrcurveto
            0 -25 8 -20 16 -16 16 -16 21 -7 26 0 -11 -50 -36 -59 -63 -69 rrcurveto
            50 -31 27 29 rlineto
            17 20 15 17 12 16 12 16 15 20 18 26 18 26 16 28 12 29 12 29 9 30 6 29 rrcurveto
            return
          </CharString>
          <CharString index="282">
            -32 -146 rlineto
            23 16 23 16 19 14 19 14 22 12 24 10 24 10 24 5 24 0 15 0 15 -5 15 -10 15 -10 13 -13 13 -15 13 -15 13 -16 14 -15 rrcurveto
            14 -15 16 -13 19 -10 19 -10 21 -5 21 0 23 0 23 5 25 10 25 10 22 12 21 15 21 15 23 15 26 17 rrcurveto
            31 145 rlineto
            -25 -16 -24 -15 -21 -14 -21 -14 -24 -14 -25 -10 -25 -10 -23 -5 -21 0 -19 0 -19 5 -17 10 -17 10 -15 13 -13 15 -13 15 -13 14 -13 15 rrcurveto
            -13 15 -13 13 -17 10 -17 10 -17 6 -18 0 -24 0 -25 -5 -26 -11 -26 -11 -24 -13 -19 -14 -19 -14 -20 -15 -20 -13 rrcurveto
            return
          </CharString>
          <CharString index="283">
            -6 -30 -3 -30 0 -30 0 -28 4 -28 6 -25 6 -26 6 -20 6 -16 6 -16 7 -17 9 -20 rrcurveto
            15 -29 62 31 rlineto
            -25 52 -13 47 0 41 0 13 1 13 3 12 26 0 25 7 22 16 22 16 18 20 10 25 3 7 3 7 2 8 2 8 0 8 0 8 rrcurveto
            0 20 -6 18 -12 15 -17 21 -23 10 -29 0 -26 0 -26 -9 -22 -16 -22 -16 -17 -20 -10 -24 -2 -5 -3 -8 -2 -10 rrcurveto
            return
          </CharString>
          <CharString index="284">
            2 10 1 8 0 5 0 24 -8 20 -16 16 -16 16 -21 9 -26 0 -29 0 -28 -10 -25 -21 -25 -21 -18 -26 -6 -30 -2 -8 0 -7 1 -7 rrcurveto
            0 -25 8 -20 16 -16 16 -16 21 -7 26 0 -11 -50 -36 -59 -63 -69 rrcurveto
            49 -31 27 29 rlineto
            17 20 16 17 12 16 12 16 15 20 18 26 18 26 15 28 12 29 12 29 10 30 6 29 rrcurveto
            return
          </CharString>
          <CharString index="285">
            -6 -30 -3 -30 0 -30 0 -28 5 -28 6 -25 6 -26 6 -20 6 -16 6 -16 6 -17 9 -20 rrcurveto
            15 -29 63 31 rlineto
            -25 52 -13 47 0 41 0 13 1 13 3 12 26 0 25 7 22 16 22 16 18 20 10 25 3 7 2 7 2 8 2 8 1 8 0 8 rrcurveto
            0 20 -6 18 -12 15 -17 21 -24 10 -29 0 -26 0 -25 -9 -22 -16 -22 -16 -18 -20 -10 -24 -2 -5 -3 -8 -2 -10 rrcurveto
            return
          </CharString>
          <CharString index="286">
            -227 250 rlineto
            -13 13 -15 5 -17 0 -6 0 -6 0 -6 -2 -18 -4 -15 -10 -13 -14 -14 -13 -9 -16 -4 -17 -1 -7 1 -5 0 -5 1 -15 6 -14 11 -12 rrcurveto
            258 -219 rlineto
            7 -6 8 -3 9 0 4 0 6 1 5 1 14 3 12 7 10 10 10 11 8 11 3 13 1 4 0 4 0 3 0 10 -4 8 -6 8 rrcurveto
            return
          </CharString>
          <CharString index="287">
            -8 -7 -7 -8 -4 -8 -2 -4 -1 -5 -1 -5 -3 -13 2 -11 6 -11 6 -10 10 -7 12 -3 5 -1 4 -1 4 0 9 0 10 3 9 6 rrcurveto
            352 219 rlineto
            17 12 12 14 7 15 2 5 3 5 1 7 1 5 1 5 0 5 0 11 -3 11 -6 9 -7 14 -11 10 -16 4 -6 2 -6 0 -6 0 rrcurveto
            -17 0 -15 -5 -19 -13 rrcurveto
            return
          </CharString>
          <CharString index="288">
            -8 -7 -7 -8 -4 -8 -2 -4 -1 -5 -1 -5 -1 -4 -1 -3 0 -3 0 -9 3 -8 4 -8 6 -10 10 -7 12 -3 5 -1 4 -1 4 0 rrcurveto
            9 0 10 3 9 6 rrcurveto
            352 219 rlineto
            17 12 12 14 7 15 2 5 3 5 1 7 1 5 1 5 0 5 0 11 -3 11 -6 9 -7 14 -11 10 -16 4 -6 2 -6 0 -6 0 rrcurveto
            -17 0 -15 -5 -19 -13 rrcurveto
            return
          </CharString>
          <CharString index="289">
            -6 -30 -3 -30 0 -30 0 -28 5 -28 6 -25 6 -26 6 -20 6 -16 6 -16 6 -17 9 -20 rrcurveto
            15 -29 63 31 rlineto
            -25 52 -13 47 0 41 0 13 1 13 3 12 26 0 24 7 22 16 22 16 18 20 10 25 3 7 3 7 2 8 2 8 1 8 0 8 rrcurveto
            0 20 -7 18 -12 15 -17 21 -23 10 -29 0 -26 0 -25 -9 -22 -16 -22 -16 -18 -20 -10 -24 -2 -5 -3 -8 -2 -10 rrcurveto
            return
          </CharString>
          <CharString index="290">
            -8 -7 -7 -8 -4 -8 -2 -4 -2 -5 -1 -5 -3 -13 3 -11 6 -11 6 -10 10 -7 12 -3 5 -1 4 -1 4 0 9 0 10 3 9 6 rrcurveto
            352 219 rlineto
            17 12 11 14 7 15 2 5 4 5 1 7 1 5 0 5 0 5 0 11 -2 11 -6 9 -7 14 -11 10 -16 4 -6 2 -6 0 -6 0 rrcurveto
            -17 0 -16 -5 -19 -13 rrcurveto
            return
          </CharString>
          <CharString index="291">
            2 10 1 8 0 5 0 24 -8 20 -16 16 -16 16 -21 9 -26 0 -29 0 -29 -10 -25 -21 -25 -21 -17 -26 -6 -30 -2 -8 -1 -7 1 -7 rrcurveto
            0 -25 8 -20 16 -16 16 -16 21 -7 26 0 -11 -50 -35 -59 -63 -69 rrcurveto
            49 -31 27 29 rlineto
            17 20 15 17 12 16 12 16 16 20 18 26 18 26 15 28 12 29 12 29 10 30 6 29 rrcurveto
            return
          </CharString>
          <CharString index="292">
            2 10 1 8 0 5 0 24 -8 20 -16 16 -16 16 -21 9 -26 0 -29 0 -29 -10 -25 -21 -25 -21 -17 -26 -6 -30 -2 -8 -1 -7 1 -7 rrcurveto
            0 -25 8 -20 16 -16 16 -16 22 -7 26 0 -11 -50 -36 -59 -63 -69 rrcurveto
            49 -31 27 29 rlineto
            17 20 16 17 12 16 12 16 15 20 18 26 18 26 15 28 12 29 12 29 10 30 6 29 rrcurveto
            return
          </CharString>
          <CharString index="293">
            -8 -7 -7 -8 -4 -8 -2 -4 -2 -5 -1 -5 -3 -13 3 -11 6 -11 6 -10 9 -7 12 -3 5 -1 5 -1 4 0 9 0 10 3 9 6 rrcurveto
            351 219 rlineto
            17 12 12 14 7 15 2 5 4 5 1 7 1 5 0 5 0 5 0 11 -3 11 -6 9 -7 14 -11 10 -16 4 -6 2 -5 0 -6 0 rrcurveto
            -17 0 -16 -5 -19 -13 rrcurveto
            return
          </CharString>
          <CharString index="294">
            2 10 1 8 0 5 0 24 -8 20 -16 16 -16 16 -21 9 -26 0 -29 0 -28 -10 -25 -21 -25 -21 -18 -26 -6 -30 -2 -8 0 -7 1 -7 rrcurveto
            0 -25 8 -20 16 -16 16 -16 21 -7 26 0 -11 -50 -36 -59 -63 -69 rrcurveto
            49 -31 28 29 rlineto
            17 20 15 17 12 16 12 16 15 20 18 26 18 26 16 28 12 29 12 29 9 30 6 29 rrcurveto
            return
          </CharString>
          <CharString index="295">
            -228 250 rlineto
            -13 13 -14 5 -17 0 -6 0 -7 0 -6 -2 -18 -4 -15 -10 -13 -14 -14 -13 -8 -16 -4 -17 -1 -7 0 -5 0 -5 1 -15 6 -14 11 -12 rrcurveto
            259 -219 rlineto
            7 -6 8 -3 9 0 4 0 5 1 5 1 14 3 13 7 10 10 10 11 7 11 3 13 1 4 0 4 0 3 0 10 -3 8 -6 8 rrcurveto
            return
          </CharString>
          <CharString index="296">
            2 10 1 8 0 5 0 24 -9 20 -16 16 -16 16 -20 9 -26 0 -29 0 -29 -10 -25 -21 -25 -21 -17 -26 -6 -30 -2 -8 -1 -7 1 -7 rrcurveto
            0 -25 8 -20 16 -16 16 -16 21 -7 26 0 -11 -50 -36 -59 -63 -69 rrcurveto
            50 -31 27 29 rlineto
            17 20 15 17 12 16 12 16 15 20 18 26 18 26 16 28 12 29 12 29 10 30 6 29 rrcurveto
            return
          </CharString>
          <CharString index="297">
            -31 -146 rlineto
            23 16 22 16 19 14 19 14 22 12 24 10 24 10 24 5 24 0 15 0 15 -5 15 -10 15 -10 13 -13 13 -15 13 -15 13 -16 14 -15 rrcurveto
            14 -15 16 -13 19 -10 19 -10 21 -5 21 0 23 0 23 5 25 10 25 10 22 12 21 15 21 15 23 15 26 17 rrcurveto
            31 145 rlineto
            -25 -16 -24 -15 -21 -14 -21 -14 -24 -14 -25 -10 -25 -10 -23 -5 -21 0 -19 0 -19 5 -17 10 -17 10 -15 13 -13 15 -13 15 -12 14 -13 15 rrcurveto
            -13 15 -14 13 -17 10 -17 10 -17 6 -18 0 -24 0 -25 -5 -26 -11 -26 -11 -23 -13 -19 -14 -19 -14 -21 -15 -20 -13 rrcurveto
            return
          </CharString>
          <CharString index="298">
            -228 250 rlineto
            -13 13 -14 5 -17 0 -6 0 -7 0 -6 -2 -18 -4 -15 -10 -13 -14 -14 -13 -8 -16 -4 -17 -1 -3 0 -2 0 -3 rrcurveto
            -9 vlineto
            1 -15 6 -14 11 -12 rrcurveto
            259 -219 rlineto
            7 -6 8 -3 9 0 4 0 5 1 5 1 14 3 13 7 10 10 10 11 7 11 3 13 1 4 0 4 0 3 0 10 -3 8 -6 8 rrcurveto
            return
          </CharString>
          <CharString index="299">
            -1 -11 0 -9 4 -6 1 -3 2 -2 2 -2 8 -9 12 -6 15 0 13 0 11 4 13 8 13 8 10 12 5 16 rrcurveto
            54 152 rlineto
            4 19 -2 16 -6 13 -1 3 -5 3 -2 3 -9 13 -16 6 -20 0 rrcurveto
            -5 hlineto
            -15 0 -14 -4 -15 -9 -22 -14 -14 -21 -6 -27 rrcurveto
            return
          </CharString>
          <CharString index="300">
            -228 250 rlineto
            -13 13 -14 5 -17 0 -6 0 -7 0 -6 -2 -18 -4 -15 -10 -13 -14 -14 -13 -8 -16 -4 -17 -1 -7 0 -5 0 -5 1 -15 6 -14 11 -12 rrcurveto
            259 -219 rlineto
            7 -6 8 -3 9 0 4 0 5 1 5 1 14 3 13 7 10 10 10 11 7 11 3 13 1 5 0 5 0 4 0 8 -3 8 -6 7 rrcurveto
            return
          </CharString>
          <CharString index="301">
            -228 250 rlineto
            -13 13 -14 5 -17 0 -6 0 -7 0 -6 -2 -18 -4 -14 -10 -13 -14 -14 -13 -9 -16 -4 -17 -1 -7 0 -5 0 -5 1 -15 6 -14 11 -12 rrcurveto
            259 -219 rlineto
            7 -6 8 -3 9 0 4 0 5 1 5 1 14 3 13 7 10 10 10 11 7 11 3 13 1 5 0 5 0 4 0 8 -3 8 -6 7 rrcurveto
            return
          </CharString>
          <CharString index="302">
            0 -4 -1 -4 0 -3 0 -6 2 -5 2 -4 1 -3 2 -2 2 -2 8 -9 12 -6 15 0 13 0 11 4 13 8 13 8 10 12 5 16 rrcurveto
            54 152 rlineto
            4 19 -2 16 -6 13 -1 3 -5 3 -2 3 -9 13 -16 6 -20 0 rrcurveto
            -5 hlineto
            -15 0 -14 -4 -15 -9 -22 -14 -14 -21 -6 -27 rrcurveto
            return
          </CharString>
          <CharString index="303">
            -227 250 rlineto
            -13 13 -15 5 -17 0 -6 0 -6 0 -6 -2 -18 -4 -15 -10 -13 -14 -14 -13 -9 -16 -4 -17 -1 -7 1 -5 0 -5 1 -15 6 -14 11 -12 rrcurveto
            258 -219 rlineto
            7 -6 8 -3 9 0 4 0 6 1 5 1 14 3 12 7 10 10 10 11 8 11 3 13 1 5 -1 5 0 4 0 8 -3 8 -6 7 rrcurveto
            return
          </CharString>
          <CharString index="304">
            0 -4 -1 -4 0 -3 0 -6 2 -5 2 -4 1 -3 2 -2 2 -2 8 -9 12 -6 15 0 13 0 11 4 13 8 13 8 10 12 5 16 rrcurveto
            54 152 rlineto
            1 6 1 6 0 6 0 11 -2 10 -4 9 -1 3 -5 3 -2 3 -9 13 -16 6 -20 0 rrcurveto
            -5 hlineto
            -15 0 -14 -4 -15 -9 -22 -14 -14 -21 -6 -27 rrcurveto
            return
          </CharString>
          <CharString index="305">
            -227 250 rlineto
            -13 13 -15 5 -17 0 -6 0 -6 0 -6 -2 -18 -4 -15 -10 -13 -14 -14 -13 -9 -16 -4 -17 -1 -3 0 -2 0 -3 0 -3 1 -3 0 -3 rrcurveto
            1 -15 6 -14 11 -12 rrcurveto
            258 -219 rlineto
            7 -6 8 -3 9 0 4 0 6 1 5 1 14 3 12 7 10 10 10 11 8 11 3 13 1 4 0 4 0 3 0 10 -4 8 -6 8 rrcurveto
            return
          </CharString>
          <CharString index="306">
            -8 -7 -7 -8 -4 -8 -2 -4 -2 -5 -1 -5 -1 -4 0 -3 0 -3 0 -9 2 -8 4 -8 6 -10 10 -7 12 -3 5 -1 5 -1 4 0 rrcurveto
            9 0 10 3 9 6 rrcurveto
            351 219 rlineto
            17 12 12 14 7 15 2 5 3 5 1 7 1 5 1 5 0 5 0 11 -3 11 -6 9 -7 14 -11 10 -16 4 -6 2 -5 0 -6 0 rrcurveto
            -17 0 -16 -5 -19 -13 rrcurveto
            return
          </CharString>
          <CharString index="307">
            -30 -142 827 0 30 142 rlineto
            return
          </CharString>
          <CharString index="308">
            -141 0 -228 -1074 141 0 rlineto
            return
          </CharString>
          <CharString index="309">
            -2 -8 -1 -7 0 -8 0 -48 35 -37 52 0 59 0 59 48 13 60 1 7 2 8 -1 7 0 49 -35 35 -52 0 15 72 67 76 27 30 rrcurveto
            -49 31 rlineto
            -29 -35 -128 -123 -33 -157 rrcurveto
            return
          </CharString>
          <CharString index="310">
            2 8 1 7 0 8 0 48 -35 37 -52 0 -59 0 -59 -48 -13 -60 -1 -7 -2 -8 1 -7 0 -49 35 -35 52 0 -15 -72 -68 -76 -27 -30 rrcurveto
            50 -31 rlineto
            29 35 128 123 33 157 rrcurveto
            return
          </CharString>
          <CharString index="311">
            2 8 0 7 0 8 0 48 -34 37 -52 0 -59 0 -59 -48 -13 -60 -1 -7 -2 -8 1 -7 0 -49 35 -35 52 0 -15 -72 -68 -76 -27 -30 rrcurveto
            50 -31 rlineto
            29 35 128 123 33 157 rrcurveto
            return
          </CharString>
          <CharString index="312">
            8 0 8 1 7 2 29 8 22 12 18 17 20 19 12 23 6 26 2 8 1 8 0 8 0 19 -6 18 -12 15 -17 21 -23 10 -29 0 rrcurveto
            -10 0 -9 -1 -5 -1 -25 -5 -24 -13 -20 -19 -20 -19 -12 -23 -6 -26 -2 -8 -1 -8 0 -7 0 -20 7 -18 12 -15 17 -21 22 -11 30 0 rrcurveto
            return
          </CharString>
          <CharString index="313">
            8 0 7 0 7 2 29 8 24 13 18 17 20 19 11 23 6 26 2 8 1 7 0 8 0 19 -6 18 -12 15 -17 21 -24 10 -29 0 rrcurveto
            -10 0 -7 -1 -5 -1 -25 -5 -24 -12 -20 -19 -20 -19 -13 -23 -6 -26 -2 -8 -1 -8 0 -7 0 -20 7 -18 12 -15 17 -21 22 -11 30 0 rrcurveto
            return
          </CharString>
          <CharString index="314">
            -4 -17 -1 -17 0 -16 0 -63 21 -49 39 -39 40 -39 49 -19 63 0 73 0 66 26 62 50 62 50 39 61 15 72 4 21 3 18 0 14 rrcurveto
            0 61 -22 49 -38 37 -40 39 -51 19 -63 0 -73 0 -66 -25 -62 -50 -62 -50 -39 -62 -15 -71 rrcurveto
            return
          </CharString>
          <CharString index="315">
            10 48 23 37 36 26 36 26 34 13 34 0 41 0 32 -14 23 -28 16 -20 8 -23 0 -28 0 -12 -1 -12 -3 -13 -10 -48 -23 -38 -35 -27 rrcurveto
            -35 -27 -37 -14 -40 0 -41 0 -31 14 -21 27 -14 18 -7 22 0 28 0 14 2 15 3 16 rrcurveto
            return
          </CharString>
          <CharString index="316">
            10 48 23 37 36 26 36 26 34 13 36 0 41 0 32 -14 23 -28 16 -20 8 -23 0 -28 0 -12 -1 -12 -3 -13 -10 -48 -23 -37 -35 -27 rrcurveto
            -35 -27 -37 -14 -40 0 -44 0 -32 14 -20 27 -14 18 -6 23 0 27 0 14 2 14 3 16 rrcurveto
            return
          </CharString>
          <CharString index="317">
            967 1183 -143 0 -974 -1183 rlineto
            return
          </CharString>
          <CharString index="318">
            -5 -23 -2 -21 0 -20 0 -19 3 -17 4 -16 9 -33 16 -28 20 -23 20 -23 26 -16 30 -12 30 -12 32 -5 33 0 40 0 38 7 36 15 rrcurveto
            36 15 34 20 30 25 30 25 25 28 21 32 21 32 12 33 8 36 5 23 2 21 0 20 0 19 -2 17 -4 16 -9 33 -16 29 -21 23 rrcurveto
            -21 23 -26 17 -30 12 -30 12 -31 6 -33 0 -41 0 -40 -8 -36 -15 -36 -15 -34 -20 -29 -25 -29 -25 -25 -29 -20 -33 -20 -33 -14 -34 -7 -34 rrcurveto
            return
          </CharString>
          <CharString index="319">
            -5 -23 -2 -21 0 -20 0 -19 2 -17 4 -16 9 -33 17 -28 20 -23 20 -23 26 -16 30 -12 30 -12 31 -5 33 0 40 0 39 7 36 15 rrcurveto
            36 15 34 20 30 25 30 25 25 28 21 32 21 32 12 33 8 36 5 23 2 21 0 20 0 19 -2 17 -4 16 -9 33 -16 29 -21 23 rrcurveto
            -21 23 -26 17 -30 12 -30 12 -32 6 -33 0 -41 0 -39 -8 -36 -15 -36 -15 -34 -20 -29 -25 -29 -25 -25 -29 -20 -33 -20 -33 -14 -34 -7 -34 rrcurveto
            return
          </CharString>
          <CharString index="320">
            -5 -23 -2 -21 0 -20 0 -19 3 -17 4 -16 9 -33 16 -28 20 -23 20 -23 26 -16 30 -12 30 -12 31 -5 33 0 40 0 39 7 36 15 rrcurveto
            36 15 34 20 30 25 30 25 25 28 21 32 21 32 12 33 8 36 5 23 2 21 0 20 0 19 -2 17 -4 16 -9 33 -16 29 -21 23 rrcurveto
            -21 23 -26 17 -30 12 -30 12 -32 6 -33 0 -41 0 -39 -8 -36 -15 -36 -15 -34 -20 -29 -25 -29 -25 -25 -29 -20 -33 -20 -33 -14 -34 -7 -34 rrcurveto
            return
          </CharString>
          <CharString index="321">
            -2 -8 -1 -7 1 -7 0 -25 8 -20 16 -16 16 -16 21 -8 26 0 29 0 29 10 25 21 25 21 16 26 6 29 2 10 1 8 0 5 rrcurveto
            0 24 -8 21 -16 16 -16 16 -21 8 -26 0 -29 0 -29 -11 -25 -21 -25 -21 -17 -25 -6 -30 rrcurveto
            return
          </CharString>
          <CharString index="322">
            243 951 rlineto
            1 6 1 6 0 6 0 18 -7 15 -12 14 -16 18 -22 9 -27 0 -26 0 -25 -9 -24 -18 -24 -18 -13 -23 -6 -26 rrcurveto
            -160 -949 rlineto
            -1 -5 -1 -4 0 -4 0 -11 4 -10 6 -8 9 -11 12 -5 17 -1 15 0 16 6 14 11 14 11 8 14 4 17 rrcurveto
            return
          </CharString>
          <CharString index="323">
            -30 258 254 160 -272 0 -29 259 -139 -259 -272 0 186 -160 -138 -258 254 160 rlineto
            return
          </CharString>
          <CharString index="324">
            -8 0 -8 -1 -7 -2 -29 -8 -23 -12 -18 -17 -20 -19 -12 -23 -6 -26 -2 -8 -1 -8 0 -7 0 -20 7 -18 12 -15 17 -21 23 -10 29 0 rrcurveto
            10 0 8 1 5 1 25 5 23 13 20 19 20 19 13 23 6 26 2 8 1 8 0 8 0 19 -6 18 -12 15 -17 21 -22 11 -30 0 rrcurveto
            return
          </CharString>
          <CharString index="325">
            1 6 0 6 0 5 rrcurveto
            5 vlineto
            -2 27 -8 20 -14 14 -16 16 -21 8 -26 0 -29 0 -28 -11 -25 -21 -25 -21 -16 -25 -6 -29 -2 -10 -1 -8 0 -5 0 -24 8 -20 16 -16 rrcurveto
            16 -16 21 -9 26 0 29 0 28 10 25 21 25 21 18 26 6 30 rrcurveto
            return
          </CharString>
          <CharString index="326">
            1 7 2 6 0 6 0 28 -11 23 -14 14 -16 16 -21 7 -26 0 -29 0 -28 -10 -25 -21 -25 -21 -16 -26 -6 -29 -2 -10 0 -7 0 -5 rrcurveto
            0 -24 8 -21 15 -16 16 -16 20 -9 26 0 29 0 29 11 25 21 25 21 17 25 6 30 rrcurveto
            return
          </CharString>
          <CharString index="327">
            -22 -49 -18 -52 -11 -54 -10 -49 -6 -48 0 -47 0 -79 17 -64 33 -50 33 -50 50 -26 67 0 58 0 55 20 51 40 51 40 41 51 33 61 rrcurveto
            33 61 23 67 16 73 11 51 5 50 0 48 0 79 -16 65 -32 50 -32 50 -50 25 -66 0 -44 0 -43 -12 -41 -24 -41 -24 -36 -32 -30 -39 rrcurveto
            -30 -39 -27 -44 -22 -49 rrcurveto
            return
          </CharString>
          <CharString index="328">
            7 34 11 34 13 34 13 34 16 30 17 27 17 27 18 22 19 14 19 14 18 8 18 0 24 0 20 -13 12 -26 12 -26 7 -36 0 -48 rrcurveto
            0 -42 -5 -43 -9 -44 -7 -34 -11 -34 -13 -33 -13 -33 -14 -29 -17 -27 -17 -27 -17 -20 -19 -14 -19 -14 -17 -7 -18 0 -25 0 -20 13 -13 26 rrcurveto
            -13 25 -7 37 0 47 0 40 4 40 9 44 rrcurveto
            return
          </CharString>
          <CharString index="329">
            98 459 -140 0 -471 -599 335 0 -42 -199 148 0 42 199 94 0 30 140 rlineto
            return
          </CharString>
          <CharString index="330">
            8 1 8 0 10 0 23 0 20 -10 16 -19 16 -19 9 -25 0 -31 0 -11 -2 -12 -2 -11 -9 -43 -18 -34 -26 -25 -26 -25 -30 -12 -33 0 rrcurveto
            -58 0 -32 33 -9 66 rrcurveto
            -4 28 -152 -26 4 -37 rlineto
            4 -61 22 -49 39 -38 39 -38 52 -19 65 0 52 0 50 13 46 27 46 27 37 34 29 42 29 42 20 45 10 49 5 24 3 23 0 23 rrcurveto
            0 63 -19 49 -37 38 -37 38 -50 19 -63 0 -29 0 -28 -4 -24 -5 rrcurveto
            46 125 275 0 30 140 -401 0 -138 -389 99 -57 18 8 rlineto
            3 2 4 3 6 4 6 4 5 3 2 2 2 2 5 2 6 3 6 3 4 2 5 2 5 2 7 2 7 2 7 2 9 2 8 1 rrcurveto
            return
          </CharString>
          <CharString index="331">
            -570 0 -30 -144 357 0 -397 -653 167 0 rlineto
            return
          </CharString>
          <CharString index="332">
            -154 0 -30 -141 154 0 -33 -156 140 0 33 156 154 0 30 141 -154 0 33 155 -140 0 rlineto
            return
          </CharString>
          <CharString index="333">
            -30 -141 484 0 30 141 rlineto
            return
          </CharString>
          <CharString index="334">
            -30 -141 470 0 30 141 rlineto
            return
          </CharString>
          <CharString index="335">
            -30 -140 470 0 30 140 rlineto
            return
          </CharString>
          <CharString index="336">
            8 -36 rlineto
            10 -50 27 -39 42 -29 42 -29 45 -15 48 0 78 0 72 25 64 49 64 49 41 62 16 76 4 17 2 18 0 16 0 10 -1 10 -2 10 rrcurveto
            -4 26 -9 22 -11 18 -10 17 -12 15 -12 12 19 16 19 21 19 28 19 28 13 30 7 32 3 16 2 15 0 15 0 26 -5 24 -10 22 rrcurveto
            -16 35 -23 27 -32 18 -32 18 -35 10 -39 0 -48 0 -46 -12 -44 -25 -44 -25 -36 -33 -30 -41 rrcurveto
            -24 -32 121 -62 21 32 rlineto
            12 18 15 15 16 10 16 10 19 5 19 0 rrcurveto
            3 hlineto
            22 0 18 -8 14 -17 10 -12 6 -14 0 -16 0 -6 -1 -7 -1 -6 -6 -28 -14 -22 -21 -18 -21 -18 -22 -9 -22 0 rrcurveto
            -84 0 -28 -132 74 0 rlineto
            16 0 17 -3 14 -5 14 -5 12 -8 10 -10 10 -10 7 -11 4 -15 4 -15 0 -18 -4 -19 -8 -36 -18 -29 -30 -22 -30 -22 -33 -11 -38 0 rrcurveto
            -21 0 -18 6 -18 14 -18 14 -11 18 -6 21 rrcurveto
            -7 27 rlineto
            return
          </CharString>
          <CharString index="337">
            8 1 8 0 10 0 23 0 20 -10 16 -19 16 -19 9 -25 0 -31 0 -11 -2 -12 -2 -11 -9 -43 -18 -34 -26 -25 -26 -25 -30 -12 -33 0 rrcurveto
            -58 0 -31 33 -9 66 rrcurveto
            -5 28 -151 -26 3 -37 rlineto
            4 -61 23 -49 39 -38 39 -38 51 -19 65 0 52 0 50 13 46 27 46 27 38 34 29 42 29 42 20 45 10 49 5 24 3 23 0 23 rrcurveto
            0 63 -19 49 -37 38 -37 38 -50 19 -63 0 -29 0 -28 -4 -24 -5 rrcurveto
            45 125 275 0 30 140 -401 0 -138 -389 99 -57 18 8 rlineto
            3 2 5 3 6 4 6 4 5 3 2 2 2 2 4 1 6 3 6 3 5 3 5 2 5 2 6 2 7 2 7 2 9 2 8 1 rrcurveto
            return
          </CharString>
          <CharString index="338">
            -6 -28 -16 -25 -27 -22 -27 -22 -29 -11 -35 0 -27 0 -22 8 -18 16 -18 16 -7 21 0 25 -1 7 2 8 2 9 6 30 17 27 26 23 rrcurveto
            26 23 29 11 32 0 29 0 23 -9 17 -17 17 -17 10 -22 0 -26 0 -9 -1 -8 -2 -8 rrcurveto
            return
          </CharString>
          <CharString index="339">
            229 298 -157 0 -243 -309 -34 -42 rlineto
            -7 -9 -7 -10 -9 -12 -9 -12 -11 -16 -12 -20 -12 -20 -13 -21 -8 -21 -8 -21 -6 -21 -5 -22 -4 -18 -3 -17 1 -16 0 -57 20 -48 36 -40 rrcurveto
            36 -40 51 -19 64 0 39 0 37 8 37 15 37 15 33 19 27 24 27 24 23 28 19 30 19 30 12 29 7 31 4 18 3 19 0 18 rrcurveto
            0 60 -21 49 -40 39 -40 39 -50 18 -62 0 rrcurveto
            return
          </CharString>
          <CharString index="340">
            5 24 13 20 18 15 18 15 25 8 30 0 26 0 18 -6 13 -11 13 -11 7 -15 0 -19 0 -7 -2 -7 -1 -6 -6 -27 -13 -21 -19 -15 rrcurveto
            -19 -15 -24 -8 -28 0 -24 0 -18 6 -14 11 -14 11 -6 16 0 20 -1 7 1 7 2 8 rrcurveto
            return
          </CharString>
          <CharString index="341">
            900 579 -122 55 -905 -577 rlineto
            return
          </CharString>
          <CharString index="342">
            19 36 rlineto
            17 32 22 24 26 17 26 17 25 8 26 0 26 0 20 -10 16 -20 11 -13 4 -17 0 -21 0 -10 0 -11 -3 -12 rrcurveto
            -11 -30 -13 -24 -18 -22 -21 -19 -25 -19 -25 -17 rlineto
            -2 -2 -11 -5 -15 -9 rrcurveto
            -25 -15 rlineto
            -29 -18 -25 -16 -22 -16 -22 -16 -25 -20 -27 -23 -27 -23 -23 -24 -20 -25 -20 -25 -17 -28 -17 -32 -17 -32 -13 -33 -7 -35 rrcurveto
            -7 -35 524 0 30 140 -351 0 11 16 rlineto
            7 9 11 13 19 17 19 17 18 15 19 15 19 15 16 12 14 8 rrcurveto
            25 14 33 20 rlineto
            10 6 14 9 16 11 16 11 14 11 13 10 13 10 14 12 15 15 15 15 14 15 11 15 11 15 11 17 9 19 9 19 7 20 4 20 rrcurveto
            5 23 2 21 0 21 0 9 0 10 -1 9 -3 29 -6 24 -12 20 -12 20 -16 17 -18 14 -18 14 -19 10 -22 6 -22 6 -23 3 -25 0 rrcurveto
            -58 0 -58 -18 -57 -37 -57 -37 -42 -44 -26 -54 rrcurveto
            -15 -31 rlineto
            return
          </CharString>
          <CharString index="343">
            -36 32 -47 16 -59 0 -68 0 -62 -21 -55 -42 -55 -42 -35 -54 -13 -63 -4 -17 -1 -17 0 -17 0 -40 12 -34 25 -29 -17 -11 -18 -14 -18 -16 rrcurveto
            -20 -17 -18 -22 -16 -26 -16 -26 -11 -30 -6 -30 -4 -19 -2 -18 0 -18 0 -61 21 -51 42 -39 42 -39 53 -20 65 0 49 0 49 11 48 23 rrcurveto
            48 23 40 31 35 41 35 41 21 45 11 50 3 16 3 17 0 16 0 43 -10 31 -16 21 -17 21 -14 16 -12 10 53 41 32 51 13 63 rrcurveto
            3 16 3 16 0 15 -1 52 -19 43 -36 32 rrcurveto
            return
          </CharString>
          <CharString index="344">
            -30 0 -24 10 -19 18 -19 18 -9 23 0 28 0 9 1 9 2 9 8 37 18 29 27 21 27 21 34 11 38 0 31 0 26 -9 20 -17 rrcurveto
            20 -17 10 -22 0 -27 0 -8 -2 -9 -2 -10 -7 -34 -20 -29 -30 -24 -30 -24 -34 -13 -36 0 rrcurveto
            return
          </CharString>
          <CharString index="345">
            -19 -90 -25 -80 -31 -69 -31 -69 -39 -61 -46 -53 -46 -53 -57 -41 -67 -28 -67 -28 -75 -14 -85 0 rrcurveto
            -245 0 250 1174 245 0 rlineto
            57 0 49 -9 44 -17 44 -17 36 -24 27 -30 27 -30 20 -36 17 -38 17 -38 10 -41 4 -45 3 -28 1 -28 0 -28 0 -17 0 -16 -1 -16 rrcurveto
            -2 -43 -6 -44 -9 -43 rrcurveto
            return
          </CharString>
          <CharString index="346">
            15 69 7 67 0 65 0 24 -1 24 -2 24 -8 87 -21 77 -35 68 -35 68 -50 54 -66 41 -66 41 -81 20 -91 0 rrcurveto
            -444 0 -309 -1456 444 0 rlineto
            92 0 88 19 83 37 83 37 72 51 63 66 63 66 54 77 45 88 45 88 33 95 22 103 rrcurveto
            return
          </CharString>
          <CharString index="347">
            -1 -5 0 -6 -1 -8 1 -21 7 -19 14 -14 14 -14 18 -7 22 0 25 0 24 9 23 19 23 19 14 22 5 25 2 8 0 5 0 4 rrcurveto
            0 22 -6 20 -14 14 -14 14 -19 7 -23 0 -25 0 -24 -9 -23 -19 -23 -19 -14 -22 -5 -25 rrcurveto
            return
          </CharString>
          <CharString index="348">
            -1 -5 -1 -10 0 -9 0 -18 7 -17 15 -14 14 -14 18 -7 22 0 25 0 24 9 23 19 23 19 14 22 5 25 2 9 0 6 0 4 rrcurveto
            -3 24 -5 19 -12 11 -14 14 -19 7 -23 0 -25 0 -24 -9 -23 -19 -23 -19 -14 -22 -5 -25 rrcurveto
            return
          </CharString>
          <CharString index="349">
            -19 -90 -25 -80 -31 -69 -31 -69 -38 -61 -46 -53 -46 -53 -57 -41 -67 -28 -67 -28 -76 -14 -85 0 rrcurveto
            -245 0 250 1174 245 0 rlineto
            57 0 50 -9 44 -17 44 -17 34 -24 27 -30 27 -30 21 -36 17 -38 17 -38 10 -41 4 -45 3 -28 1 -28 0 -28 0 -17 0 -16 -1 -16 rrcurveto
            -2 -43 -6 -44 -9 -43 rrcurveto
            return
          </CharString>
          <CharString index="350">
            14 68 7 65 0 64 0 26 -1 25 -2 25 -8 87 -20 77 -35 68 -35 68 -50 54 -66 41 -66 41 -81 20 -91 0 rrcurveto
            -444 0 -309 -1456 444 0 rlineto
            92 0 87 19 83 37 83 37 73 51 63 66 63 66 53 77 45 88 45 88 34 95 22 103 rrcurveto
            return
          </CharString>
          <CharString index="351">
            9 43 12 44 16 43 16 43 20 45 24 45 24 45 28 41 33 38 33 38 36 36 39 30 39 30 45 24 52 17 52 17 54 9 57 0 rrcurveto
            244 0 -250 -1174 -244 0 rlineto
            -85 0 -70 14 -55 28 -55 28 -39 41 -24 53 -24 53 -13 61 -1 69 rrcurveto
            14 vlineto
            0 66 9 75 18 84 rrcurveto
            return
          </CharString>
          <CharString index="352">
            -16 -76 -8 -72 0 -67 0 -24 1 -24 2 -23 7 -88 21 -77 35 -66 35 -66 51 -51 67 -37 67 -37 79 -19 92 0 rrcurveto
            444 0 309 1456 -444 0 rlineto
            -91 0 -87 -20 -84 -41 -84 -41 -74 -54 -63 -68 -63 -68 -54 -77 -44 -87 -44 -87 -34 -91 -20 -95 rrcurveto
            return
          </CharString>
          <CharString index="353">
            206 64 -264 -1242 128 0 264 1242 178 -64 -201 256 rlineto
            return
          </CharString>
          <CharString index="354">
            -1178 0 104 192 -310 -256 202 -256 -24 192 1178 0 -27 -128 64 0 82 384 -64 0 rlineto
            return
          </CharString>
          <CharString index="355">
            1434 0 27 128 -1178 0 105 192 rlineto
            return
          </CharString>
          <CharString index="356">
            1434 0 -252 320 23 -192 -1178 0 rlineto
            return
          </CharString>
          <CharString index="357">
            22 102 -301 263 418 251 19 90 -562 -340 rlineto
            return
          </CharString>
          <CharString index="358">
            558 366 -416 340 -19 -90 310 -251 -413 -263 rlineto
            return
          </CharString>
          <CharString index="359">
            -30 -142 580 0 30 142 rlineto
            return
          </CharString>
          <CharString index="360">
            -822 -1602 -47 537 -474 0 -30 -142 351 0 55 -563 219 0 912 1770 rlineto
            return
          </CharString>
          <CharString index="361">
            -9 -41 -4 -40 0 -37 0 -82 20 -72 41 -60 41 -61 51 -45 61 -28 61 -28 67 -14 71 0 86 0 87 20 86 42 86 42 76 61 67 79 rrcurveto
            67 79 42 88 21 97 8 36 4 37 1 38 0 117 -40 96 -77 74 -77 74 -99 38 -121 0 -46 0 -47 -6 -49 -13 -49 -13 -50 -20 -51 -27 rrcurveto
            -51 -27 -47 -33 -42 -39 -42 -39 -38 -48 -33 -57 -33 -57 -25 -63 -14 -68 rrcurveto
            return
          </CharString>
          <CharString index="362">
            -2 -10 -1 -9 0 -8 0 -30 11 -24 19 -19 19 -19 24 -10 31 0 35 0 35 13 30 25 30 25 20 31 7 35 3 12 1 9 -1 6 rrcurveto
            0 29 -10 24 -19 20 -19 20 -26 9 -31 0 -35 0 -33 -12 -31 -25 -31 -25 -18 -31 -8 -36 rrcurveto
            return
          </CharString>
          <CharString index="363">
            -168 hlineto
            8 -64 17 -54 27 -44 28 -48 37 -36 46 -24 46 -24 51 -12 59 0 64 0 62 15 57 28 57 28 50 38 47 51 39 41 34 48 30 55 rrcurveto
            -156 hlineto
            -14 -20 -14 -20 -15 -18 -64 -74 -70 -36 -78 0 -36 0 -31 10 -27 20 -27 20 -22 28 -17 37 -9 15 -8 18 -3 22 rrcurveto
            return
          </CharString>
          <CharString index="364">
            -168 hlineto
            8 -64 17 -54 27 -44 28 -48 36 -36 46 -24 46 -24 51 -12 59 0 64 0 61 14 57 28 57 28 52 39 47 51 39 41 33 48 30 55 rrcurveto
            -155 hlineto
            -14 -20 -15 -20 -15 -18 -64 -74 -70 -37 -78 0 -36 0 -31 10 -27 20 -27 20 -22 28 -17 37 -9 15 -7 19 -3 22 rrcurveto
            return
          </CharString>
          <CharString index="365">
            -2 -8 0 -7 0 -4 rrcurveto
            2 -20 rlineto
            8 -37 25 -19 41 0 15 0 13 4 11 5 41 16 25 29 9 41 2 8 0 6 0 4 rrcurveto
            -2 21 rlineto
            -8 37 -25 18 -41 0 -15 0 -13 -3 -11 -5 -41 -16 -25 -29 -9 -41 rrcurveto
            return
          </CharString>
          <CharString index="366">
            -2 -8 0 -7 0 -4 rrcurveto
            2 -20 rlineto
            8 -37 25 -19 41 0 15 0 13 4 11 5 41 16 26 29 9 41 2 8 0 6 0 4 rrcurveto
            -3 21 rlineto
            -8 37 -25 18 -41 0 -15 0 -13 -3 -11 -5 -41 -16 -25 -29 -9 -41 rrcurveto
            return
          </CharString>
          <CharString index="367">
            6 26 11 24 17 22 38 52 48 26 57 0 16 0 15 -2 13 -4 48 -18 25 -37 0 -56 -1 -11 -2 -11 -2 -11 -6 -26 -10 -24 -16 -22 rrcurveto
            -38 -52 -48 -26 -57 0 -16 0 -16 3 -14 4 -47 18 -24 36 0 56 -1 11 2 11 2 11 rrcurveto
            return
          </CharString>
          <CharString index="368">
            -4 -18 -2 -17 0 -18 0 -34 7 -32 14 -29 36 -74 64 -36 92 0 56 0 54 16 52 31 85 52 52 70 19 89 4 18 1 17 0 18 rrcurveto
            0 34 -8 32 -14 29 -36 74 -64 36 -92 0 -56 0 -53 -16 -52 -31 -85 -52 -51 -70 -19 -89 rrcurveto
            return
          </CharString>
          <CharString index="369">
            6 26 12 24 17 22 38 52 48 26 57 0 16 0 15 -2 13 -4 48 -18 24 -37 0 -56 -1 -11 -2 -11 -2 -11 -6 -26 -9 -24 -16 -22 rrcurveto
            -38 -52 -48 -26 -57 0 -16 0 -16 3 -14 4 -47 18 -24 36 0 56 -1 11 1 11 2 11 rrcurveto
            return
          </CharString>
          <CharString index="370">
            -4 -18 -2 -17 0 -18 0 -34 7 -32 14 -29 36 -74 64 -36 92 0 56 0 54 16 52 31 85 52 51 70 19 89 4 18 1 17 0 18 rrcurveto
            0 34 -7 32 -14 29 -36 74 -64 36 -92 0 -56 0 -54 -16 -52 -31 -85 -52 -50 -70 -19 -89 rrcurveto
            return
          </CharString>
          <CharString index="371">
            6 26 12 24 17 22 38 52 48 26 57 0 16 0 15 -2 13 -4 48 -18 24 -37 0 -56 -1 -11 -1 -11 -2 -11 -6 -26 -10 -24 -16 -22 rrcurveto
            -38 -52 -48 -26 -57 0 -16 0 -16 3 -14 4 -47 18 -24 36 0 56 -1 11 1 11 2 11 rrcurveto
            return
          </CharString>
          <CharString index="372">
            -4 -18 -2 -17 0 -18 0 -34 7 -32 14 -29 36 -74 64 -36 92 0 56 0 54 16 52 31 85 52 52 70 19 89 4 18 1 17 0 18 rrcurveto
            0 34 -7 32 -14 29 -36 74 -65 36 -92 0 -56 0 -53 -16 -52 -31 -85 -52 -51 -70 -19 -89 rrcurveto
            return
          </CharString>
          <CharString index="373">
            13 63 24 57 35 52 35 52 40 42 46 31 46 31 47 24 48 16 48 16 47 9 46 0 35 0 37 -6 36 -13 36 -13 34 -18 32 -24 rrcurveto
            32 -24 27 -32 20 -41 21 -42 9 -45 0 -52 0 -26 -4 -27 -6 -30 -13 -60 -23 -55 -35 -51 -35 -51 -39 -41 -46 -32 -46 -32 -47 -26 -50 -18 rrcurveto
            -50 -18 -47 -8 -45 0 -39 0 -39 6 -36 12 -36 12 -35 18 -31 24 -31 24 -25 31 -19 39 -19 39 -8 44 -1 49 0 29 4 32 7 33 rrcurveto
            return
          </CharString>
          <CharString index="374">
            -9 -41 -4 -40 0 -37 0 -82 20 -71 41 -61 41 -61 51 -45 61 -28 61 -28 67 -14 71 0 86 0 87 20 86 42 86 42 76 61 67 79 rrcurveto
            67 79 42 88 21 97 8 36 4 37 1 38 0 117 -40 96 -77 74 -77 74 -99 38 -121 0 -46 0 -47 -6 -49 -13 -49 -13 -50 -20 -51 -27 rrcurveto
            -51 -27 -47 -33 -42 -39 -42 -39 -38 -48 -33 -57 -33 -57 -25 -63 -14 -68 rrcurveto
            return
          </CharString>
          <CharString index="375">
            127 0 510 2400 -127 0 rlineto
            return
          </CharString>
          <CharString index="376">
            -1 -6 -1 -6 0 -5 rrcurveto
            -5 vlineto
            0 -25 8 -20 16 -16 16 -16 21 -8 26 0 29 0 28 11 25 21 25 21 17 25 6 29 2 10 1 8 0 5 0 24 -9 20 -16 16 rrcurveto
            -16 16 -20 9 -26 0 -29 0 -29 -10 -25 -21 -25 -21 -17 -26 -6 -30 rrcurveto
            return
          </CharString>
        <CharString name=".notdef">
          -90 0 102 860 102 hstem
          102 102 616 102 vstem
          102 hmoveto
          820 1064 -820 hlineto
          102 -962 rmoveto
          860 616 -860 vlineto
          endchar
        </CharString>
        <CharString name=".null">
          -1114 endchar
        </CharString>
        <CharString name="A">
          188 917 1214 rmoveto
          -98 callsubr
          423 -136 rmoveto
          -97 callsubr
          endchar
        </CharString>
        <CharString name="AE">
          274 922 645 rmoveto
          -10 callsubr
          388 592 rmoveto
          -9 callsubr
          endchar
        </CharString>
        <CharString name="Aacute">
          188 935 1676 rmoveto
          -15 callsubr
          -360 -712 rmoveto
          -98 callsubr
          423 -136 rmoveto
          -97 callsubr
          endchar
        </CharString>
        <CharString name="Abreve">
          188 909 1214 rmoveto
          -98 callsubr
          423 -136 rmoveto
          -97 callsubr
          505 1163 rmoveto
          5 callsubr
          endchar
        </CharString>
        <CharString name="Abrevecyrillic">
          188 917 1214 rmoveto
          -98 callsubr
          423 -136 rmoveto
          -97 callsubr
          499 1163 rmoveto
          5 callsubr
          endchar
        </CharString>
        <CharString name="Acircumflex">
          178 927 1214 rmoveto
          -98 callsubr
          423 -136 rmoveto
          -97 callsubr
          818 1076 rmoveto
          -14 callsubr
          endchar
        </CharString>
        <CharString name="Adieresis">
          178 927 1214 rmoveto
          -98 callsubr
          423 -136 rmoveto
          -97 callsubr
          169 1197 rmoveto
          -2 -8 -1 -5 0 -4 0 -23 8 -19 14 -14 14 -14 18 -8 22 0 25 0 24 9 23 19 23 19 14 22 6 26 2 8 0 6 0 5 rrcurveto
          -1 21 -7 19 -14 14 -14 14 -18 7 -22 0 -25 0 -24 -9 -23 -19 -23 -19 -14 -22 -5 -25 rrcurveto
          471 2 rmoveto
          -12 callsubr
          endchar
        </CharString>
        <CharString name="Adieresiscyrillic">
          188 917 1214 rmoveto
          -98 callsubr
          423 -136 rmoveto
          -97 callsubr
          endchar
        </CharString>
        <CharString name="Agrave">
          188 1068 1676 rmoveto
          -16 callsubr
          -159 -462 rmoveto
          -98 callsubr
          423 -136 rmoveto
          -97 callsubr
          endchar
        </CharString>
        <CharString name="Aiecyrillic">
          274 922 645 rmoveto
          -10 callsubr
          388 592 rmoveto
          -9 callsubr
          endchar
        </CharString>
        <CharString name="Alpha">
          188 917 1214 rmoveto
          -98 callsubr
          423 -136 rmoveto
          -97 callsubr
          endchar
        </CharString>
        <CharString name="Alphaacute">
          188 917 1214 rmoveto
          -98 callsubr
          423 -136 rmoveto
          -97 callsubr
          -99 1027 rmoveto
          181 callsubr
          endchar
        </CharString>
        <CharString name="Alphaasper">
          188 917 1214 rmoveto
          -98 callsubr
          423 -136 rmoveto
          -97 callsubr
          93 1186 rmoveto
          178 callsubr
          endchar
        </CharString>
        <CharString name="Alphaasperacute">
          276 1041 1214 rmoveto
          -98 callsubr
          423 -136 rmoveto
          -97 callsubr
          -6 1027 rmoveto
          181 callsubr
          endchar
        </CharString>
        <CharString name="Alphaaspergrave">
          276 1041 1214 rmoveto
          -98 callsubr
          423 -136 rmoveto
          -97 callsubr
          361 1031 rmoveto
          -65 callsubr
          endchar
        </CharString>
        <CharString name="Alphaaspertilde">
          276 1041 1214 rmoveto
          -98 callsubr
          423 -136 rmoveto
          -97 callsubr
          -48 1186 rmoveto
          177 callsubr
          56 13 rmoveto
          16 callsubr
          endchar
        </CharString>
        <CharString name="Alphabreve">
          188 917 1214 rmoveto
          -98 callsubr
          423 -136 rmoveto
          -97 callsubr
          499 1163 rmoveto
          5 callsubr
          endchar
        </CharString>
        <CharString name="Alphagrave">
          188 917 1214 rmoveto
          -98 callsubr
          423 -136 rmoveto
          -97 callsubr
          271 1025 rmoveto
          -228 250 rlineto
          -13 13 -14 5 -17 0 -6 0 -6 0 -6 -2 -18 -4 -15 -10 -13 -14 -14 -13 -9 -16 -4 -17 -1 -3 0 -2 0 -3 rrcurveto
          -9 vlineto
          1 -15 6 -14 11 -12 rrcurveto
          259 -219 rlineto
          7 -6 8 -3 9 0 4 0 5 1 5 1 14 3 13 7 10 10 10 11 7 11 3 13 1 4 0 4 0 3 0 10 -3 8 -6 8 rrcurveto
          endchar
        </CharString>
        <CharString name="Alphaiotasub">
          188 917 1214 rmoveto
          -98 callsubr
          423 -136 rmoveto
          -97 callsubr
          16 -833 rmoveto
          197 callsubr
          endchar
        </CharString>
        <CharString name="Alphaiotasubasper">
          188 529 -348 rmoveto
          192 callsubr
          374 1409 rmoveto
          -98 callsubr
          423 -136 rmoveto
          -97 callsubr
          95 1186 rmoveto
          178 callsubr
          endchar
        </CharString>
        <CharString name="Alphaiotasubasperacute">
          188 529 -348 rmoveto
          192 callsubr
          374 1409 rmoveto
          -98 callsubr
          423 -136 rmoveto
          -97 callsubr
          -126 1186 rmoveto
          178 callsubr
          226 -159 rmoveto
          181 callsubr
          endchar
        </CharString>
        <CharString name="Alphaiotasubaspergrave">
          396 999 1510 rmoveto
          194 callsubr
          -294 -1858 rmoveto
          192 callsubr
          374 1409 rmoveto
          -98 callsubr
          423 -136 rmoveto
          -97 callsubr
          -315 1186 rmoveto
          178 callsubr
          endchar
        </CharString>
        <CharString name="Alphaiotasubaspertilde">
          188 529 -348 rmoveto
          192 callsubr
          374 1409 rmoveto
          -98 callsubr
          423 -136 rmoveto
          -97 callsubr
          115 1197 rmoveto
          175 callsubr
          -245 -11 rmoveto
          178 callsubr
          endchar
        </CharString>
        <CharString name="Alphaiotasublenis">
          188 529 -348 rmoveto
          192 callsubr
          374 1409 rmoveto
          -98 callsubr
          423 -136 rmoveto
          -97 callsubr
          307 1186 rmoveto
          177 callsubr
          endchar
        </CharString>
        <CharString name="Alphaiotasublenisacute">
          396 995 1510 rmoveto
          194 callsubr
          -250 -1858 rmoveto
          192 callsubr
          374 1409 rmoveto
          -98 callsubr
          423 -136 rmoveto
          -97 callsubr
          -140 1186 rmoveto
          177 callsubr
          endchar
        </CharString>
        <CharString name="Alphaiotasublenisgrave">
          396 1006 1513 rmoveto
          -228 250 rlineto
          -13 13 -14 5 -17 0 -6 0 -7 0 -6 -2 -18 -4 -15 -10 -13 -14 -14 -13 -9 -16 -4 -17 -1 -7 1 -5 0 -5 1 -15 6 -14 11 -12 rrcurveto
          259 -219 rlineto
          7 -6 8 -3 9 0 4 0 5 1 5 1 14 3 12 7 10 10 10 11 8 11 3 13 1 5 0 5 0 4 0 8 -3 8 -6 7 rrcurveto
          -261 -1861 rmoveto
          192 callsubr
          374 1409 rmoveto
          -98 callsubr
          423 -136 rmoveto
          -97 callsubr
          -140 1186 rmoveto
          177 callsubr
          endchar
        </CharString>
        <CharString name="Alphaiotasublenistilde">
          188 529 -348 rmoveto
          192 callsubr
          374 1409 rmoveto
          -98 callsubr
          423 -136 rmoveto
          -97 callsubr
          76 1186 rmoveto
          177 callsubr
          64 13 rmoveto
          16 callsubr
          endchar
        </CharString>
        <CharString name="Alphalenis">
          188 917 1214 rmoveto
          -98 callsubr
          423 -136 rmoveto
          -97 callsubr
          319 1186 rmoveto
          177 callsubr
          endchar
        </CharString>
        <CharString name="Alphalenisacute">
          276 1041 1214 rmoveto
          -98 callsubr
          423 -136 rmoveto
          -97 callsubr
          10 1027 rmoveto
          180 callsubr
          -393 -91 rmoveto
          177 callsubr
          endchar
        </CharString>
        <CharString name="Alphalenisgrave">
          276 1041 1214 rmoveto
          -98 callsubr
          423 -136 rmoveto
          -97 callsubr
          352 1027 rmoveto
          179 callsubr
          -399 159 rmoveto
          177 callsubr
          endchar
        </CharString>
        <CharString name="Alphalenistilde">
          276 1041 1214 rmoveto
          -98 callsubr
          423 -136 rmoveto
          -97 callsubr
          -48 1186 rmoveto
          177 callsubr
          48 13 rmoveto
          16 callsubr
          endchar
        </CharString>
        <CharString name="Alphamacron">
          188 917 1214 rmoveto
          -98 callsubr
          423 -136 rmoveto
          -97 callsubr
          169 1217 rmoveto
          -26 callsubr
          endchar
        </CharString>
        <CharString name="Alphatonos">
          188 635 1452 rmoveto
          67 callsubr
          220 -494 rmoveto
          -98 callsubr
          423 -136 rmoveto
          -97 callsubr
          endchar
        </CharString>
        <CharString name="Amacron">
          188 676 1739 rmoveto
          -26 callsubr
          -444 -525 rmoveto
          -98 callsubr
          423 -136 rmoveto
          -97 callsubr
          endchar
        </CharString>
        <CharString name="Aogonek">
          188 909 1214 rmoveto
          -98 callsubr
          423 -136 rmoveto
          -97 callsubr
          718 -675 rmoveto
          7 callsubr
          endchar
        </CharString>
        <CharString name="Aring">
          178 927 1214 rmoveto
          -98 callsubr
          423 -136 rmoveto
          -97 callsubr
          372 1254 rmoveto
          18 83 77 67 81 0 70 0 46 -49 0 -67 0 -11 -2 -12 -2 -11 -18 -84 -77 -66 -81 0 -70 0 -47 48 0 67 0 11 2 12 3 12 rrcurveto
          -119 -4 rmoveto
          -11 callsubr
          endchar
        </CharString>
        <CharString name="Atilde">
          178 927 1214 rmoveto
          -98 callsubr
          423 -136 rmoveto
          -97 callsubr
          199 1285 rmoveto
          -13 callsubr
          endchar
        </CharString>
        <CharString name="B">
          65 429 705 rmoveto
          -96 callsubr
          250 1176 rmoveto
          -95 callsubr
          -28 612 rmoveto
          -94 callsubr
          endchar
        </CharString>
        <CharString name="Bdotaccent">
          65 429 705 rmoveto
          -96 callsubr
          250 1176 rmoveto
          -95 callsubr
          -28 612 rmoveto
          -94 callsubr
          -34 227 rmoveto
          -28 callsubr
          endchar
        </CharString>
        <CharString name="Beta">
          65 429 705 rmoveto
          73 callsubr
          250 1176 rmoveto
          74 callsubr
          -28 612 rmoveto
          75 callsubr
          endchar
        </CharString>
        <CharString name="C">
          106 1229 293 rmoveto
          -93 callsubr
          endchar
        </CharString>
        <CharString name="Cacute">
          106 1229 293 rmoveto
          -93 callsubr
          -297 1383 rmoveto
          -23 callsubr
          endchar
        </CharString>
        <CharString name="Ccaron">
          106 1229 293 rmoveto
          -93 callsubr
          214 1565 rmoveto
          9 callsubr
          endchar
        </CharString>
        <CharString name="Ccedilla">
          106 1249 293 rmoveto
          -93 callsubr
          -739 -592 rmoveto
          17 -125 rlineto
          79 45 152 61 24 111 3 13 0 13 1 12 -1 54 -22 46 -28 34 rrcurveto
          -141 -56 rlineto
          18 -38 16 -24 0 -26 0 -6 0 -5 -1 -5 -8 -37 -74 -45 -35 -22 rrcurveto
          endchar
        </CharString>
        <CharString name="Ccircumflex">
          106 1229 293 rmoveto
          -93 callsubr
          139 1221 rmoveto
          -14 callsubr
          endchar
        </CharString>
        <CharString name="Cdotaccent">
          106 1229 293 rmoveto
          -93 callsubr
          -327 1390 rmoveto
          -28 callsubr
          endchar
        </CharString>
        <CharString name="Cheabkhasiancyrillic">
          106 1229 293 rmoveto
          103 callsubr
          endchar
        </CharString>
        <CharString name="Chedescenderabkhasiancyrillic">
          106 1229 293 rmoveto
          103 callsubr
          endchar
        </CharString>
        <CharString name="Chedescendercyrillic">
          -90 1083 1456 rmoveto
          114 callsubr
          endchar
        </CharString>
        <CharString name="Chedieresiscyrillic">
          -90 1083 1456 rmoveto
          114 callsubr
          -697 227 rmoveto
          -28 callsubr
          471 2 rmoveto
          -27 callsubr
          endchar
        </CharString>
        <CharString name="Chekhakassiancyrillic">
          -90 1083 1456 rmoveto
          114 callsubr
          endchar
        </CharString>
        <CharString name="Cheverticalstrokecyrillic">
          -90 1083 1456 rmoveto
          114 callsubr
          endchar
        </CharString>
        <CharString name="Chi">
          100 383 1456 rmoveto
          -69 callsubr
          endchar
        </CharString>
        <CharString name="D">
          106 1142 727 rmoveto
          -92 callsubr
          166 hmoveto
          -91 callsubr
          endchar
        </CharString>
        <CharString name="Dcaron">
          106 1142 727 rmoveto
          -92 callsubr
          166 hmoveto
          -91 callsubr
          -41 1131 rmoveto
          9 callsubr
          endchar
        </CharString>
        <CharString name="Dcroat">
          264 429 662 rmoveto
          -141 -662 154 0 226 0 rlineto
          117 0 112 32 107 64 107 64 90 88 73 110 73 110 51 123 29 135 15 70 7 68 0 66 0 156 -42 127 -83 97 -83 97 -116 49 -148 0 rrcurveto
          -380 0 -138 -653 -182 0 -30 -141 rlineto
          339 hmoveto
          299 0 30 141 -299 0 108 509 223 0 rlineto
          105 0 84 -37 61 -74 62 -75 31 -100 0 -127 0 -54 -7 -57 -13 -62 -37 -172 -72 -140 -107 -108 -107 -108 -120 -55 -129 0 rrcurveto
          -223 hlineto
          endchar
        </CharString>
        <CharString name="Ddotaccent">
          106 1142 727 rmoveto
          -92 callsubr
          166 hmoveto
          -91 callsubr
          -499 956 rmoveto
          -28 callsubr
          endchar
        </CharString>
        <CharString name="Delta">
          448 120 hmoveto
          77 callsubr
          -581 -1283 rmoveto
          633 1090 170 -1090 rlineto
          endchar
        </CharString>
        <CharString name="Dzeabkhasiancyrillic">
          12 167 252 rmoveto
          109 callsubr
          endchar
        </CharString>
        <CharString name="E">
          28 430 1456 rmoveto
          -90 callsubr
          endchar
        </CharString>
        <CharString name="Eacute">
          28 816 1676 rmoveto
          -8 callsubr
          -720 -470 rmoveto
          -90 callsubr
          endchar
        </CharString>
        <CharString name="Ebreve">
          28 430 1456 rmoveto
          -90 callsubr
          -379 192 rmoveto
          5 callsubr
          endchar
        </CharString>
        <CharString name="Ecaron">
          28 430 1456 rmoveto
          -90 callsubr
          14 402 rmoveto
          9 callsubr
          endchar
        </CharString>
        <CharString name="Ecircumflex">
          32 440 1456 rmoveto
          -90 callsubr
          -84 82 rmoveto
          -14 callsubr
          endchar
        </CharString>
        <CharString name="Edieresis">
          32 440 1456 rmoveto
          -90 callsubr
          -734 244 rmoveto
          -7 callsubr
          472 2 rmoveto
          -12 callsubr
          endchar
        </CharString>
        <CharString name="Edotaccent">
          28 430 1456 rmoveto
          -90 callsubr
          -489 227 rmoveto
          -28 callsubr
          endchar
        </CharString>
        <CharString name="Egrave">
          28 1100 1676 rmoveto
          -16 callsubr
          -670 -220 rmoveto
          -90 callsubr
          endchar
        </CharString>
        <CharString name="Emacron">
          28 430 1456 rmoveto
          -90 callsubr
          -696 315 rmoveto
          13 callsubr
          endchar
        </CharString>
        <CharString name="Endescendercyrillic">
          84 430 1456 rmoveto
          -87 callsubr
          endchar
        </CharString>
        <CharString name="Eng">
          157 768 47 rmoveto
          -18 -74 -10 -45 -4 -15 rrcurveto
          4 hlineto
          42 0 50 9 59 20 47 16 49 28 52 40 59 46 38 45 23 45 41 85 27 64 9 42 1 3 -1 3 1 3 rrcurveto
          -1 1 115 540 rlineto
          18 85 9 77 0 66 rrcurveto
          25 vlineto
          -3 72 -15 58 -23 45 -23 45 -33 33 -39 22 -39 22 -48 11 -55 0 -81 0 -81 -16 -82 -32 -121 -47 -106 -54 -93 -61 rrcurveto
          35 202 -152 0 -302 -1456 152 0 192 902 rlineto
          20 93 17 54 13 16 44 50 67 49 89 48 72 38 58 27 43 16 71 23 49 11 27 0 45 0 38 -11 29 -22 29 -22 20 -31 12 -39 rrcurveto
          11 -37 6 -42 0 -47 rrcurveto
          -8 vlineto
          -1 -50 -7 -55 -13 -60 rrcurveto
          -115 -541 -7 -33 rlineto
          -19 -89 -39 -70 -59 -49 -59 -49 -65 -25 -69 0 rrcurveto
          endchar
        </CharString>
        <CharString name="Enghecyrillic">
          415 430 1456 rmoveto
          -309 -1456 158 0 143 674 493 0 -143 -674 25 0 131 0 2 0 280 1315 499 0 29 141 -657 0 -136 -641 -493 0 136 641 rlineto
          endchar
        </CharString>
        <CharString name="Enhookcyrillic">
          84 430 1456 rmoveto
          -87 callsubr
          endchar
        </CharString>
        <CharString name="Eogonek">
          28 430 1456 rmoveto
          -90 callsubr
          -368 -1646 rmoveto
          7 callsubr
          endchar
        </CharString>
        <CharString name="Epsilon">
          28 430 1456 rmoveto
          -90 callsubr
          endchar
        </CharString>
        <CharString name="Epsilonacute">
          28 430 1456 rmoveto
          -90 callsubr
          endchar
        </CharString>
        <CharString name="Epsilonasper">
          107 559 1456 rmoveto
          -90 callsubr
          -1106 215 rmoveto
          178 callsubr
          endchar
        </CharString>
        <CharString name="Epsilonasperacute">
          432 874 1456 rmoveto
          -90 callsubr
          -1180 56 rmoveto
          180 callsubr
          -576 -91 rmoveto
          178 callsubr
          endchar
        </CharString>
        <CharString name="Epsilonaspergrave">
          596 1038 1456 rmoveto
          -90 callsubr
          -970 56 rmoveto
          179 callsubr
          -615 159 rmoveto
          178 callsubr
          endchar
        </CharString>
        <CharString name="Epsilongrave">
          388 790 1456 rmoveto
          -90 callsubr
          -967 56 rmoveto
          198 callsubr
          endchar
        </CharString>
        <CharString name="Epsilonlenis">
          160 562 1456 rmoveto
          -90 callsubr
          -894 215 rmoveto
          177 callsubr
          endchar
        </CharString>
        <CharString name="Epsilonlenisacute">
          400 806 1456 rmoveto
          -90 callsubr
          -1108 56 rmoveto
          180 callsubr
          -365 -91 rmoveto
          177 callsubr
          endchar
        </CharString>
        <CharString name="Epsilonlenisgrave">
          644 1050 1456 rmoveto
          -90 callsubr
          -962 56 rmoveto
          179 callsubr
          -420 159 rmoveto
          177 callsubr
          endchar
        </CharString>
        <CharString name="Epsilontonos">
          128 337 1452 rmoveto
          67 callsubr
          131 -252 rmoveto
          -90 callsubr
          endchar
        </CharString>
        <CharString name="Esdescendercyrillic">
          106 1229 293 rmoveto
          103 callsubr
          endchar
        </CharString>
        <CharString name="Eta">
          84 430 1456 rmoveto
          -87 callsubr
          endchar
        </CharString>
        <CharString name="Etaacute">
          448 794 1452 rmoveto
          -310 -1456 158 0 143 674 661 0 -143 -674 158 0 310 1456 -158 0 -137 -641 -661 0 137 641 rlineto
          -593 60 rmoveto
          181 callsubr
          endchar
        </CharString>
        <CharString name="Etaasper">
          166 562 1456 rmoveto
          -87 callsubr
          -346 215 rmoveto
          178 callsubr
          endchar
        </CharString>
        <CharString name="Etaasperacute">
          498 894 1456 rmoveto
          -87 callsubr
          -441 56 rmoveto
          180 callsubr
          -572 -91 rmoveto
          178 callsubr
          endchar
        </CharString>
        <CharString name="Etaaspergrave">
          664 1031 1460 rmoveto
          -87 callsubr
          -197 52 rmoveto
          179 callsubr
          -618 159 rmoveto
          178 callsubr
          endchar
        </CharString>
        <CharString name="Etaaspertilde">
          440 826 1456 rmoveto
          -87 callsubr
          -610 215 rmoveto
          178 callsubr
          251 13 rmoveto
          16 callsubr
          endchar
        </CharString>
        <CharString name="Etagrave">
          448 794 1456 rmoveto
          -87 callsubr
          -208 56 rmoveto
          198 callsubr
          endchar
        </CharString>
        <CharString name="Etaiotasub">
          84 430 1456 rmoveto
          -87 callsubr
          -113 -1804 rmoveto
          197 callsubr
          endchar
        </CharString>
        <CharString name="Etaiotasubasper">
          126 598 -348 rmoveto
          192 callsubr
          -59 1651 rmoveto
          -87 callsubr
          -337 215 rmoveto
          178 callsubr
          endchar
        </CharString>
        <CharString name="Etaiotasubasperacute">
          398 870 -348 rmoveto
          192 callsubr
          -59 1651 rmoveto
          -87 callsubr
          -608 215 rmoveto
          178 callsubr
          218 -159 rmoveto
          181 callsubr
          endchar
        </CharString>
        <CharString name="Etaiotasubaspergrave">
          700 996 1512 rmoveto
          196 callsubr
          83 -1860 rmoveto
          192 callsubr
          -59 1651 rmoveto
          -87 callsubr
          -818 215 rmoveto
          178 callsubr
          endchar
        </CharString>
        <CharString name="Etaiotasubaspertilde">
          336 727 -348 rmoveto
          192 callsubr
          -59 1651 rmoveto
          -87 callsubr
          -227 226 rmoveto
          175 callsubr
          -239 -11 rmoveto
          178 callsubr
          endchar
        </CharString>
        <CharString name="Etaiotasublenis">
          216 607 -348 rmoveto
          192 callsubr
          -59 1651 rmoveto
          -87 callsubr
          -131 215 rmoveto
          177 callsubr
          endchar
        </CharString>
        <CharString name="Etaiotasublenisacute">
          700 1001 1512 rmoveto
          196 callsubr
          90 -1860 rmoveto
          192 callsubr
          -59 1651 rmoveto
          -87 callsubr
          -615 215 rmoveto
          177 callsubr
          endchar
        </CharString>
        <CharString name="Etaiotasublenisgrave">
          704 589 1671 rmoveto
          177 callsubr
          506 -2019 rmoveto
          192 callsubr
          -59 1651 rmoveto
          -87 callsubr
          -207 54 rmoveto
          -228 250 rlineto
          -13 13 -14 5 -17 0 -6 0 -7 0 -6 -2 -18 -4 -14 -10 -13 -14 -14 -13 -9 -16 -4 -17 -1 -3 0 -2 0 -3 rrcurveto
          -9 vlineto
          1 -15 6 -14 11 -12 rrcurveto
          259 -219 rlineto
          7 -6 8 -3 9 0 4 0 5 1 5 1 14 3 13 7 10 10 10 11 7 11 3 13 1 4 0 4 0 3 0 10 -3 8 -6 8 rrcurveto
          endchar
        </CharString>
        <CharString name="Etaiotasublenistilde">
          336 727 -348 rmoveto
          192 callsubr
          -59 1651 rmoveto
          -87 callsubr
          -251 215 rmoveto
          177 callsubr
          60 13 rmoveto
          16 callsubr
          endchar
        </CharString>
        <CharString name="Etalenis">
          216 562 1456 rmoveto
          -87 callsubr
          -131 215 rmoveto
          177 callsubr
          endchar
        </CharString>
        <CharString name="Etalenisacute">
          489 835 1456 rmoveto
          -87 callsubr
          -387 55 rmoveto
          -15 callsubr
          -351 -90 rmoveto
          177 callsubr
          endchar
        </CharString>
        <CharString name="Etalenisgrave">
          704 1050 1456 rmoveto
          -87 callsubr
          -210 56 rmoveto
          179 callsubr
          -409 159 rmoveto
          177 callsubr
          endchar
        </CharString>
        <CharString name="Etalenistilde">
          489 835 1456 rmoveto
          -87 callsubr
          -404 215 rmoveto
          177 callsubr
          32 13 rmoveto
          16 callsubr
          endchar
        </CharString>
        <CharString name="Etatonos">
          182 336 1452 rmoveto
          -2 -10 0 -8 2 -8 1 -3 2 -3 1 -3 7 -10 10 -6 15 -2 rrcurveto
          6 hlineto
          11 0 11 2 11 6 14 7 10 12 6 15 rrcurveto
          102 251 rlineto
          1 3 1 4 1 3 3 15 -2 12 -4 12 -1 3 -2 3 -2 4 -8 14 -14 8 -20 2 -5 1 -4 0 -5 0 -12 0 -11 -3 -12 -6 rrcurveto
          -24 -12 -16 -20 -9 -27 rrcurveto
          130 -252 rmoveto
          -87 callsubr
          endchar
        </CharString>
        <CharString name="Eth">
          264 467 662 rmoveto
          -141 -662 155 0 226 0 rlineto
          360 0 311 319 87 407 15 70 8 69 0 64 rrcurveto
          307 -169 220 -303 vhcurveto
          -381 0 -138 -653 -182 0 -30 -141 rlineto
          339 hmoveto
          300 0 30 141 -300 0 108 509 224 0 rlineto
          213 129 -162 -251 hvcurveto
          0 -54 -7 -57 -13 -62 -74 -347 -240 -236 -257 0 rrcurveto
          -224 hlineto
          endchar
        </CharString>
        <CharString name="Euro">
          -25 432 762 rmoveto
          -5 -17 -4 -17 -4 -17 -5 -22 -3 -22 -3 -22 rrcurveto
          -136 0 -29 -135 159 0 rlineto
          11 -169 84 -130 185 0 190 0 78 72 83 77 rrcurveto
          -76 97 rlineto
          -106 -95 -54 -16 -86 0 -60 0 -69 57 -24 107 rrcurveto
          265 0 29 135 -300 0 rlineto
          2 20 3 20 5 22 4 17 5 19 6 19 rrcurveto
          306 0 29 135 -270 0 rlineto
          57 91 79 73 85 0 119 0 35 -37 45 -57 0 0 71 58 45 38 -74 92 -53 41 -160 0 -172 0 -147 -127 -87 -172 rrcurveto
          -153 0 -29 -135 rlineto
          endchar
        </CharString>
        <CharString name="F">
          32 430 1456 rmoveto
          -89 callsubr
          endchar
        </CharString>
        <CharString name="Fdotaccent">
          32 430 1456 rmoveto
          -89 callsubr
          -491 227 rmoveto
          -28 callsubr
          endchar
        </CharString>
        <CharString name="G">
          249 694 -29 rmoveto
          -88 callsubr
          endchar
        </CharString>
        <CharString name="Gamma">
          -15 430 1456 rmoveto
          76 callsubr
          endchar
        </CharString>
        <CharString name="Gbreve">
          249 694 -29 rmoveto
          -88 callsubr
          318 1677 rmoveto
          5 callsubr
          endchar
        </CharString>
        <CharString name="Gcircumflex">
          249 694 -29 rmoveto
          -88 callsubr
          674 1543 rmoveto
          -14 callsubr
          endchar
        </CharString>
        <CharString name="Gcommaaccent">
          249 694 -29 rmoveto
          -88 callsubr
          64 -105 rmoveto
          15 callsubr
          endchar
        </CharString>
        <CharString name="Gdotaccent">
          249 694 -29 rmoveto
          -88 callsubr
          271 1712 rmoveto
          -28 callsubr
          endchar
        </CharString>
        <CharString name="Ghemiddlehookcyrillic">
          -16 459 -315 rmoveto
          -18 -74 -10 -45 -4 -15 rrcurveto
          4 hlineto
          42 0 50 9 59 20 47 16 48 28 52 40 59 46 39 45 23 45 41 85 26 64 9 42 1 3 0 3 1 3 rrcurveto
          -1 1 115 540 rlineto
          18 85 9 77 0 66 rrcurveto
          25 vlineto
          -3 72 -15 58 -23 45 -23 45 -33 33 -39 22 -39 22 -48 11 -55 0 -76 0 -69 -20 -63 -40 -63 -40 -46 -51 -32 -59 rrcurveto
          88 423 756 0 29 141 -914 0 -309 -1456 8 0 150 0 2 0 115 540 rlineto
          13 59 16 54 21 50 21 50 24 45 30 40 30 40 35 30 39 23 39 23 42 11 45 0 45 0 38 -11 29 -22 29 -22 21 -31 12 -39 rrcurveto
          11 -37 5 -42 0 -47 rrcurveto
          -8 vlineto
          -1 -50 -7 -55 -13 -60 rrcurveto
          -115 -541 -7 -33 rlineto
          -19 -89 -39 -70 -59 -49 -59 -49 -65 -25 -69 0 rrcurveto
          endchar
        </CharString>
        <CharString name="Ghestrokecyrillic">
          -16 401 1456 rmoveto
          76 callsubr
          endchar
        </CharString>
        <CharString name="Gheupturncyrillic">
          -16 401 1456 rmoveto
          76 callsubr
          9 hmoveto
          89 callsubr
          endchar
        </CharString>
        <CharString name="H">
          84 430 1456 rmoveto
          -87 callsubr
          endchar
        </CharString>
        <CharString name="Haabkhasiancyrillic">
          106 1229 293 rmoveto
          103 callsubr
          endchar
        </CharString>
        <CharString name="Hadescendercyrillic">
          100 383 1456 rmoveto
          -69 callsubr
          endchar
        </CharString>
        <CharString name="Hbar">
          84 430 1456 rmoveto
          -81 -385 -79 0 -22 -102 79 0 -206 -969 158 0 143 674 661 0 -143 -674 158 0 206 969 56 0 22 102 -56 0 81 385 rlineto
          -158 0 -81 -385 -661 0 81 385 rlineto
          558 -487 rmoveto
          -33 -154 -661 0 33 154 rlineto
          endchar
        </CharString>
        <CharString name="Hcircumflex">
          84 430 1456 rmoveto
          -87 callsubr
          687 58 rmoveto
          -14 callsubr
          endchar
        </CharString>
        <CharString name="I">
          -670 154 hmoveto
          -86 callsubr
          endchar
        </CharString>
        <CharString name="IJ">
          239 154 hmoveto
          -86 callsubr
          1089 8 rmoveto
          -152 0 -198 -931 rlineto
          -13 -59 -15 -54 -21 -50 -21 -50 -26 -44 -30 -40 -30 -40 -33 -31 -39 -23 -39 -23 -43 -11 -45 0 -45 0 -38 11 -29 22 -29 22 -20 31 -12 39 rrcurveto
          -11 37 -5 42 0 46 rrcurveto
          9 vlineto
          1 50 6 55 13 60 rrcurveto
          2 11 -151 0 -2 -11 rlineto
          -18 -85 -8 -73 0 -61 0 -11 0 -11 1 -11 4 -75 13 -59 22 -42 23 -45 34 -33 39 -22 39 -22 47 -11 55 0 76 0 64 14 53 29 rrcurveto
          53 29 47 34 43 40 126 119 81 142 35 165 rrcurveto
          endchar
        </CharString>
        <CharString name="Iacute">
          -674 536 1676 rmoveto
          -15 callsubr
          -706 -1926 rmoveto
          -86 callsubr
          endchar
        </CharString>
        <CharString name="Ibreve">
          -670 154 hmoveto
          -86 callsubr
          120 192 rmoveto
          5 callsubr
          endchar
        </CharString>
        <CharString name="Icircumflex">
          -674 164 hmoveto
          -86 callsubr
          441 94 rmoveto
          -5 callsubr
          endchar
        </CharString>
        <CharString name="Idieresis">
          -674 164 hmoveto
          -86 callsubr
          -205 228 rmoveto
          -4 callsubr
          471 2 rmoveto
          -27 callsubr
          endchar
        </CharString>
        <CharString name="Idieresiscyrillic">
          157 430 1456 rmoveto
          106 callsubr
          88 227 rmoveto
          -28 callsubr
          471 2 rmoveto
          -27 callsubr
          endchar
        </CharString>
        <CharString name="Idotaccent">
          -670 154 hmoveto
          -86 callsubr
          30 227 rmoveto
          -28 callsubr
          endchar
        </CharString>
        <CharString name="Iebrevecyrillic">
          -16 397 1456 rmoveto
          105 callsubr
          -411 192 rmoveto
          5 callsubr
          endchar
        </CharString>
        <CharString name="Ifraktur">
          -182 1170 1456 rmoveto
          -827 0 -30 -142 624 0 rlineto
          -116 -213 -68 -154 -20 -95 -4 -19 -1 -19 0 -19 0 -63 19 -65 38 -67 11 -38 6 -36 0 -34 0 -18 -1 -18 -4 -16 -2 -9 -3 -9 -3 -8 rrcurveto
          -29 -74 -39 -64 -50 -52 -76 -79 -80 -39 -87 0 -29 0 -28 6 -23 12 -23 12 -19 14 -14 18 -14 18 -11 17 -8 16 -8 16 -5 15 -4 14 rrcurveto
          -138 -77 rlineto
          10 -27 13 -26 16 -24 16 -24 21 -22 23 -22 23 -22 31 -17 33 -13 33 -13 37 -6 39 0 87 0 85 25 81 51 81 51 70 68 57 86 rrcurveto
          53 80 32 69 12 56 6 27 3 25 0 25 0 43 -9 40 -17 38 -39 89 -20 62 0 32 0 4 0 4 1 3 35 160 96 202 157 245 rrcurveto
          endchar
        </CharString>
        <CharString name="Igrave">
          -670 648 1676 rmoveto
          -6 callsubr
          -494 -1676 rmoveto
          -86 callsubr
          endchar
        </CharString>
        <CharString name="Imacron">
          -670 154 hmoveto
          -86 callsubr
          -212 282 rmoveto
          13 callsubr
          endchar
        </CharString>
        <CharString name="Imacroncyrillic">
          157 430 1456 rmoveto
          106 callsubr
          endchar
        </CharString>
        <CharString name="Iogonek">
          -670 154 hmoveto
          -86 callsubr
          -134 -1646 rmoveto
          7 callsubr
          endchar
        </CharString>
        <CharString name="Iota">
          -670 154 hmoveto
          -86 callsubr
          endchar
        </CharString>
        <CharString name="Iotaacute">
          -384 441 4 rmoveto
          -86 callsubr
          -394 52 rmoveto
          181 callsubr
          endchar
        </CharString>
        <CharString name="Iotaasper">
          -635 262 hmoveto
          -86 callsubr
          -197 215 rmoveto
          178 callsubr
          endchar
        </CharString>
        <CharString name="Iotaasperacute">
          -335 562 hmoveto
          -86 callsubr
          -289 56 rmoveto
          180 callsubr
          -543 -91 rmoveto
          178 callsubr
          endchar
        </CharString>
        <CharString name="Iotaaspergrave">
          -159 737 -4 rmoveto
          157 0 310 1456 -157 0 rlineto
          -64 60 rmoveto
          179 callsubr
          -609 159 rmoveto
          178 callsubr
          endchar
        </CharString>
        <CharString name="Iotaaspertilde">
          -145 694 hmoveto
          -86 callsubr
          -360 226 rmoveto
          175 callsubr
          -269 -11 rmoveto
          178 callsubr
          endchar
        </CharString>
        <CharString name="Iotabreve">
          -670 154 hmoveto
          -86 callsubr
          129 189 rmoveto
          6 callsubr
          endchar
        </CharString>
        <CharString name="Iotadieresis">
          -670 259 1683 rmoveto
          35 callsubr
          471 2 rmoveto
          -27 callsubr
          -576 -1685 rmoveto
          -86 callsubr
          endchar
        </CharString>
        <CharString name="Iotagrave">
          -334 490 hmoveto
          -86 callsubr
          -55 55 rmoveto
          -65 callsubr
          endchar
        </CharString>
        <CharString name="Iotalenis">
          -628 231 hmoveto
          -86 callsubr
          46 215 rmoveto
          177 callsubr
          endchar
        </CharString>
        <CharString name="Iotalenisacute">
          -374 482 hmoveto
          -86 callsubr
          -192 56 rmoveto
          180 callsubr
          -344 -89 rmoveto
          2 10 0 8 0 5 0 24 -8 20 -16 16 -16 16 -20 9 -26 0 -29 0 -29 -10 -25 -21 -25 -21 -17 -26 -6 -30 -2 -8 -1 -7 1 -7 rrcurveto
          0 -25 8 -20 16 -16 16 -16 21 -7 26 0 -11 -50 -36 -59 -63 -69 rrcurveto
          50 -31 27 29 rlineto
          17 20 15 17 12 16 12 16 15 20 18 26 18 26 16 28 12 29 12 29 10 30 6 29 rrcurveto
          endchar
        </CharString>
        <CharString name="Iotalenisgrave">
          -374 250 hmoveto
          -86 callsubr
          445 51 rmoveto
          -228 250 rlineto
          -13 13 -14 5 -17 0 -6 0 -6 0 -6 -2 -18 -4 -15 -10 -13 -14 -14 -13 -9 -16 -4 -17 -1 -7 1 -5 0 -5 1 -15 6 -14 11 -12 rrcurveto
          258 -219 rlineto
          7 -6 8 -3 9 0 4 0 6 1 5 1 14 3 12 7 10 10 10 11 7 11 3 13 1 4 0 4 0 3 0 10 -3 8 -6 8 rrcurveto
          -415 165 rmoveto
          187 callsubr
          endchar
        </CharString>
        <CharString name="Iotalenistilde">
          -175 651 -6 rmoveto
          -86 callsubr
          -371 221 rmoveto
          177 callsubr
          30 11 rmoveto
          175 callsubr
          endchar
        </CharString>
        <CharString name="Iotamacron">
          -670 154 hmoveto
          -86 callsubr
          -218 246 rmoveto
          -26 callsubr
          endchar
        </CharString>
        <CharString name="Iotatonos">
          -670 340 1454 rmoveto
          68 callsubr
          -178 -1710 rmoveto
          -86 callsubr
          endchar
        </CharString>
        <CharString name="Itilde">
          -670 154 hmoveto
          -86 callsubr
          -120 355 rmoveto
          16 callsubr
          endchar
        </CharString>
        <CharString name="J">
          26 227 535 rmoveto
          -85 callsubr
          endchar
        </CharString>
        <CharString name="Jcircumflex">
          26 227 535 rmoveto
          -85 callsubr
          1245 979 rmoveto
          -14 callsubr
          endchar
        </CharString>
        <CharString name="K">
          125 430 1456 rmoveto
          -84 callsubr
          endchar
        </CharString>
        <CharString name="Kabashkircyrillic">
          125 430 1456 rmoveto
          -84 callsubr
          endchar
        </CharString>
        <CharString name="Kadescendercyrillic">
          125 430 1456 rmoveto
          -84 callsubr
          endchar
        </CharString>
        <CharString name="Kahookcyrillic">
          125 430 1456 rmoveto
          -84 callsubr
          endchar
        </CharString>
        <CharString name="Kappa">
          125 430 1456 rmoveto
          -84 callsubr
          endchar
        </CharString>
        <CharString name="Kastrokecyrillic">
          125 430 1456 rmoveto
          -84 callsubr
          endchar
        </CharString>
        <CharString name="Kaverticalstrokecyrillic">
          125 430 1456 rmoveto
          -84 callsubr
          endchar
        </CharString>
        <CharString name="Kcommaaccent">
          125 430 1456 rmoveto
          -84 callsubr
          28 -1587 rmoveto
          21 callsubr
          endchar
        </CharString>
        <CharString name="L">
          -9 430 1456 rmoveto
          -83 callsubr
          endchar
        </CharString>
        <CharString name="Lacute">
          -9 430 1456 rmoveto
          -83 callsubr
          -97 220 rmoveto
          -23 callsubr
          endchar
        </CharString>
        <CharString name="Lambda">
          131 1065 hmoveto
          164 0 -132 1456 -219 0 -755 -1456 170 0 659 1288 rlineto
          endchar
        </CharString>
        <CharString name="Lcaron">
          -9 430 1456 rmoveto
          -83 callsubr
          204 -28 rmoveto
          11 callsubr
          endchar
        </CharString>
        <CharString name="Lcommaaccent">
          -9 430 1456 rmoveto
          -83 callsubr
          32 -1587 rmoveto
          21 callsubr
          endchar
        </CharString>
        <CharString name="Ldot">
          -9 430 1456 rmoveto
          -83 callsubr
          119 -727 rmoveto
          -107 callsubr
          endchar
        </CharString>
        <CharString name="Lslash">
          -9 125 510 rmoveto
          126 103 -130 -613 923 0 30 141 -765 0 133 628 153 125 43 208 -152 -126 102 480 -158 0 -136 -640 -125 -104 rlineto
          endchar
        </CharString>
        <CharString name="M">
          448 121 hmoveto
          -82 callsubr
          endchar
        </CharString>
        <CharString name="Mdotaccent">
          448 121 hmoveto
          -82 callsubr
          620 227 rmoveto
          -28 callsubr
          endchar
        </CharString>
        <CharString name="Mu">
          448 121 hmoveto
          -82 callsubr
          endchar
        </CharString>
        <CharString name="N">
          157 121 hmoveto
          -81 callsubr
          endchar
        </CharString>
        <CharString name="Nacute">
          157 121 hmoveto
          -81 callsubr
          454 220 rmoveto
          -23 callsubr
          endchar
        </CharString>
        <CharString name="Ncaron">
          157 121 hmoveto
          -81 callsubr
          953 402 rmoveto
          9 callsubr
          endchar
        </CharString>
        <CharString name="Ncommaaccent">
          157 121 hmoveto
          -81 callsubr
          234 -1590 rmoveto
          15 callsubr
          endchar
        </CharString>
        <CharString name="Ntilde">
          178 131 hmoveto
          -81 callsubr
          294 293 rmoveto
          -31 -146 rlineto
          66 46 57 51 78 0 82 0 39 -152 115 0 74 0 64 51 71 48 rrcurveto
          31 145 rlineto
          -71 -45 -68 -53 -70 0 -104 0 -32 151 -98 0 -78 0 -71 -59 -54 -37 rrcurveto
          endchar
        </CharString>
        <CharString name="Nu">
          157 121 hmoveto
          -81 callsubr
          endchar
        </CharString>
        <CharString name="O">
          219 1250 725 rmoveto
          -80 callsubr
          -1004 hmoveto
          -79 callsubr
          endchar
        </CharString>
        <CharString name="OE">
          448 246 725 rmoveto
          -16 -74 -7 -72 0 -72 0 -71 8 -66 16 -61 16 -61 24 -57 34 -52 34 -52 45 -41 60 -30 60 -30 70 -15 80 0 64 0 61 10 59 19 rrcurveto
          608 0 30 141 -460 0 114 535 417 0 30 141 -417 0 106 498 460 0 29 141 -572 0 rlineto
          -20 26 -68 13 -117 0 -82 0 -78 -16 -75 -33 -75 -33 -65 -43 -54 -53 -54 -53 -50 -60 -45 -69 -45 -69 -35 -68 -28 -69 -28 -69 -20 -68 -14 -67 rrcurveto
          630 -573 rmoveto
          -1 hlineto
          -49 -26 -58 -13 -68 0 -57 0 -48 11 -42 21 -42 21 -33 30 -23 38 -23 38 -18 41 -10 45 -10 43 -6 46 0 52 rrcurveto
          8 vlineto
          0 71 8 73 16 74 12 57 16 56 20 56 20 56 26 56 32 56 32 56 36 50 40 42 40 42 47 35 55 27 55 27 59 13 62 0 rrcurveto
          57 0 50 -10 41 -22 5 -2 3 -3 4 -2 rrcurveto
          endchar
        </CharString>
        <CharString name="Oacute">
          219 948 1676 rmoveto
          -8 callsubr
          -32 -1201 rmoveto
          -80 callsubr
          -1004 hmoveto
          -79 callsubr
          endchar
        </CharString>
        <CharString name="Obarredcyrillic">
          219 246 725 rmoveto
          -30 callsubr
          991 -56 rmoveto
          145 callsubr
          32 142 rmoveto
          146 callsubr
          endchar
        </CharString>
        <CharString name="Obarreddieresiscyrillic">
          219 707 1683 rmoveto
          35 callsubr
          471 2 rmoveto
          -27 callsubr
          -932 -960 rmoveto
          -30 callsubr
          991 -56 rmoveto
          145 callsubr
          32 142 rmoveto
          146 callsubr
          endchar
        </CharString>
        <CharString name="Obreve">
          219 1250 725 rmoveto
          -80 callsubr
          -1004 hmoveto
          -79 callsubr
          766 923 rmoveto
          5 callsubr
          endchar
        </CharString>
        <CharString name="Ocircumflex">
          215 1260 725 rmoveto
          -80 callsubr
          -1004 hmoveto
          -79 callsubr
          1106 838 rmoveto
          -66 callsubr
          endchar
        </CharString>
        <CharString name="Odieresis">
          215 1260 725 rmoveto
          -80 callsubr
          -1004 hmoveto
          -79 callsubr
          443 962 rmoveto
          -3 callsubr
          471 2 rmoveto
          -2 callsubr
          endchar
        </CharString>
        <CharString name="Odieresiscyrillic">
          219 692 1683 rmoveto
          35 callsubr
          471 2 rmoveto
          -27 callsubr
          87 -960 rmoveto
          -80 callsubr
          -1004 hmoveto
          -79 callsubr
          endchar
        </CharString>
        <CharString name="Ograve">
          219 1056 1676 rmoveto
          -16 callsubr
          194 -951 rmoveto
          -80 callsubr
          -1004 hmoveto
          -79 callsubr
          endchar
        </CharString>
        <CharString name="Ohungarumlaut">
          219 1250 725 rmoveto
          -80 callsubr
          -1004 hmoveto
          -79 callsubr
          887 870 rmoveto
          25 callsubr
          -617 -314 rmoveto
          26 callsubr
          endchar
        </CharString>
        <CharString name="Omacron">
          219 1250 725 rmoveto
          -80 callsubr
          -1004 hmoveto
          -79 callsubr
          464 1013 rmoveto
          13 callsubr
          endchar
        </CharString>
        <CharString name="Omega">
          244 318 142 rmoveto
          70 callsubr
          endchar
        </CharString>
        <CharString name="Omegaacute">
          244 318 142 rmoveto
          70 callsubr
          38 1370 rmoveto
          181 callsubr
          endchar
        </CharString>
        <CharString name="Omegaasper">
          244 318 142 rmoveto
          70 callsubr
          56 1529 rmoveto
          178 callsubr
          endchar
        </CharString>
        <CharString name="Omegaasperacute">
          383 463 142 rmoveto
          70 callsubr
          -89 1529 rmoveto
          178 callsubr
          214 -159 rmoveto
          181 callsubr
          endchar
        </CharString>
        <CharString name="Omegaaspergrave">
          630 712 150 rmoveto
          -262 0 -31 -142 516 0 30 142 -1 0 rlineto
          -42 21 -35 30 -30 39 -30 39 -19 42 -10 45 -10 43 -7 46 0 52 rrcurveto
          8 vlineto
          0 71 9 73 16 74 12 57 16 56 20 56 20 56 25 56 32 56 32 56 37 50 40 42 40 42 47 35 55 27 55 27 59 13 62 0 rrcurveto
          57 0 50 -10 41 -22 41 -22 32 -30 23 -39 23 -39 17 -42 10 -46 10 -46 7 -51 0 -55 -1 -73 -7 -75 -17 -79 -12 -57 -16 -55 -20 -55 rrcurveto
          -20 -55 -26 -54 -33 -55 -33 -55 -40 -49 -48 -44 -48 -44 -51 -34 -55 -26 rrcurveto
          -30 -142 515 0 30 142 -276 0 5 4 rlineto
          59 50 51 59 44 67 44 67 36 68 27 67 27 67 22 67 14 67 16 74 8 76 0 79 0 70 -8 66 -16 61 -16 62 -23 58 -34 53 rrcurveto
          -34 53 -46 41 -59 31 -59 31 -71 15 -81 0 -82 0 -77 -16 -75 -33 -75 -33 -65 -43 -54 -53 -54 -53 -50 -60 -45 -69 -45 -69 -35 -68 -28 -69 rrcurveto
          -28 -69 -20 -68 -14 -67 -16 -74 -7 -72 0 -72 0 -71 7 -66 16 -61 15 -60 24 -56 33 -51 rrcurveto
          289 1362 rmoveto
          179 callsubr
          -627 159 rmoveto
          178 callsubr
          endchar
        </CharString>
        <CharString name="Omegaaspertilde">
          683 762 142 rmoveto
          70 callsubr
          -388 1529 rmoveto
          178 callsubr
          247 13 rmoveto
          16 callsubr
          endchar
        </CharString>
        <CharString name="Omegagrave">
          376 438 142 rmoveto
          70 callsubr
          306 1370 rmoveto
          198 callsubr
          endchar
        </CharString>
        <CharString name="Omegaiotasub">
          244 318 142 rmoveto
          70 callsubr
          228 -490 rmoveto
          197 callsubr
          endchar
        </CharString>
        <CharString name="Omegaiotasubasper">
          244 529 -348 rmoveto
          192 callsubr
          -225 337 rmoveto
          70 callsubr
          56 1529 rmoveto
          178 callsubr
          endchar
        </CharString>
        <CharString name="Omegaiotasubasperacute">
          436 516 142 rmoveto
          70 callsubr
          315 -490 rmoveto
          192 callsubr
          -234 1710 rmoveto
          -8 -7 -7 -8 -4 -8 -2 -4 -2 -5 -1 -5 -3 -13 3 -11 6 -11 6 -10 9 -7 12 -3 5 -1 5 -1 4 0 9 0 10 3 9 6 rrcurveto
          352 219 rlineto
          17 12 11 14 7 15 2 5 4 5 1 7 1 5 0 5 0 5 0 11 -2 11 -6 9 -7 14 -11 10 -16 4 -6 2 -6 0 -6 0 rrcurveto
          -17 0 -16 -5 -19 -13 rrcurveto
          -571 -94 rmoveto
          178 callsubr
          endchar
        </CharString>
        <CharString name="Omegaiotasubaspergrave">
          244 318 142 rmoveto
          70 callsubr
          794 1533 rmoveto
          -228 250 rlineto
          -13 13 -14 5 -17 0 -6 0 -6 0 -6 -2 -18 -4 -15 -10 -13 -14 -14 -13 -9 -16 -4 -17 -1 -7 0 -5 0 -5 1 -15 7 -14 11 -12 rrcurveto
          258 -219 rlineto
          7 -6 8 -3 9 0 4 0 5 1 5 1 14 3 13 7 10 10 10 11 7 11 3 13 1 4 0 4 0 3 0 10 -3 8 -6 8 rrcurveto
          -583 -2023 rmoveto
          197 callsubr
          endchar
        </CharString>
        <CharString name="Omegaiotasubaspertilde">
          699 698 142 rmoveto
          70 callsubr
          224 -490 rmoveto
          192 callsubr
          -269 1878 rmoveto
          190 callsubr
          endchar
        </CharString>
        <CharString name="Omegaiotasublenis">
          244 529 -348 rmoveto
          192 callsubr
          -225 337 rmoveto
          70 callsubr
          271 1529 rmoveto
          177 callsubr
          endchar
        </CharString>
        <CharString name="Omegaiotasublenisacute">
          438 518 142 rmoveto
          70 callsubr
          11 -490 rmoveto
          192 callsubr
          46 1866 rmoveto
          177 callsubr
          -4 -159 rmoveto
          181 callsubr
          endchar
        </CharString>
        <CharString name="Omegaiotasublenisgrave">
          715 714 142 rmoveto
          70 callsubr
          275 1370 rmoveto
          196 callsubr
          -46 -1860 rmoveto
          -1 -11 0 -9 4 -6 1 -3 2 -2 2 -2 8 -9 12 -6 15 0 13 0 11 4 13 8 13 8 10 12 5 16 rrcurveto
          54 152 rlineto
          1 6 1 6 0 6 0 11 -2 10 -4 9 -1 3 -5 3 -2 3 -9 13 -16 6 -20 0 rrcurveto
          -5 hlineto
          -15 0 -14 -4 -15 -9 -22 -14 -14 -21 -6 -27 rrcurveto
          -368 1866 rmoveto
          177 callsubr
          endchar
        </CharString>
        <CharString name="Omegaiotasublenistilde">
          699 698 142 rmoveto
          70 callsubr
          231 -490 rmoveto
          192 callsubr
          -354 1866 rmoveto
          177 callsubr
          64 13 rmoveto
          16 callsubr
          endchar
        </CharString>
        <CharString name="Omegalenis">
          244 318 142 rmoveto
          70 callsubr
          271 1529 rmoveto
          177 callsubr
          endchar
        </CharString>
        <CharString name="Omegalenisacute">
          458 538 142 rmoveto
          70 callsubr
          51 1529 rmoveto
          177 callsubr
          20 -159 rmoveto
          181 callsubr
          endchar
        </CharString>
        <CharString name="Omegalenisgrave">
          622 702 142 rmoveto
          70 callsubr
          311 1370 rmoveto
          179 callsubr
          -424 159 rmoveto
          177 callsubr
          endchar
        </CharString>
        <CharString name="Omegalenistilde">
          662 742 142 rmoveto
          70 callsubr
          -153 1529 rmoveto
          177 callsubr
          32 13 rmoveto
          16 callsubr
          endchar
        </CharString>
        <CharString name="Omegatonos">
          244 318 142 rmoveto
          70 callsubr
          75 1312 rmoveto
          69 callsubr
          endchar
        </CharString>
        <CharString name="Omicron">
          219 1250 725 rmoveto
          -31 callsubr
          -1004 hmoveto
          -30 callsubr
          endchar
        </CharString>
        <CharString name="Omicronacute">
          219 1250 725 rmoveto
          -31 callsubr
          -1004 hmoveto
          -30 callsubr
          110 786 rmoveto
          -23 callsubr
          endchar
        </CharString>
        <CharString name="Omicronasper">
          219 1250 725 rmoveto
          -31 callsubr
          -1004 hmoveto
          -30 callsubr
          128 946 rmoveto
          178 callsubr
          endchar
        </CharString>
        <CharString name="Omicronasperacute">
          452 1454 725 rmoveto
          -31 callsubr
          -1004 hmoveto
          -30 callsubr
          167 788 rmoveto
          -8 -7 -7 -8 -4 -8 -2 -4 -2 -5 -1 -5 -3 -13 2 -11 6 -11 6 -10 10 -7 12 -3 5 -1 5 -1 4 0 9 0 10 3 9 6 rrcurveto
          351 219 rlineto
          17 12 12 14 7 15 2 5 3 5 1 7 1 5 1 5 0 5 0 11 -3 11 -6 9 -7 14 -11 10 -16 4 -6 2 -5 0 -6 0 rrcurveto
          -17 0 -16 -5 -19 -13 rrcurveto
          -577 -92 rmoveto
          178 callsubr
          endchar
        </CharString>
        <CharString name="Omicronaspergrave">
          620 1626 725 rmoveto
          -31 callsubr
          -1004 hmoveto
          -30 callsubr
          374 787 rmoveto
          179 callsubr
          -622 159 rmoveto
          178 callsubr
          endchar
        </CharString>
        <CharString name="Omicrongrave">
          324 1386 725 rmoveto
          -31 callsubr
          -1004 hmoveto
          -30 callsubr
          362 787 rmoveto
          198 callsubr
          endchar
        </CharString>
        <CharString name="Omicronlenis">
          219 1250 725 rmoveto
          -31 callsubr
          -1004 hmoveto
          -30 callsubr
          418 946 rmoveto
          177 callsubr
          endchar
        </CharString>
        <CharString name="Omicronlenisacute">
          509 1511 725 rmoveto
          -31 callsubr
          -1004 hmoveto
          -30 callsubr
          182 787 rmoveto
          180 callsubr
          -354 -91 rmoveto
          177 callsubr
          endchar
        </CharString>
        <CharString name="Omicronlenisgrave">
          664 1666 725 rmoveto
          -31 callsubr
          -1004 hmoveto
          -30 callsubr
          420 787 rmoveto
          179 callsubr
          -412 159 rmoveto
          177 callsubr
          endchar
        </CharString>
        <CharString name="Omicrontonos">
          219 367 1454 rmoveto
          68 callsubr
          821 -985 rmoveto
          -31 callsubr
          -1004 hmoveto
          -30 callsubr
          endchar
        </CharString>
        <CharString name="Oslash">
          171 409 41 rmoveto
          61 -44 79 -26 100 0 410 0 241 431 67 316 15 69 8 74 0 75 rrcurveto
          0 7 0 6 rlineto
          0 148 -33 146 -83 102 rrcurveto
          101 151 -152 0 -46 -69 rlineto
          -55 32 -69 18 -84 0 -411 0 -242 -443 -67 -316 -15 -69 -8 -75 0 -74 0 -134 26 -133 67 -99 rrcurveto
          -108 -163 152 0 rlineto
          131 199 rmoveto
          689 1037 rlineto
          42 -72 16 -93 0 -97 0 -77 -10 -78 -15 -72 -57 -266 -172 -341 -308 0 -78 0 -61 22 -46 37 rrcurveto
          -79 109 rmoveto
          -29 63 -10 77 0 79 rrcurveto
          5 vlineto
          0 71 10 75 15 69 57 266 172 354 309 0 62 0 50 -14 41 -24 rrcurveto
          endchar
        </CharString>
        <CharString name="Otilde">
          215 1260 725 rmoveto
          -80 callsubr
          -1004 hmoveto
          -79 callsubr
          490 1045 rmoveto
          -13 callsubr
          endchar
        </CharString>
        <CharString name="P">
          -15 444 774 rmoveto
          -78 callsubr
          -220 682 rmoveto
          -77 callsubr
          endchar
        </CharString>
        <CharString name="Pdotaccent">
          -15 444 774 rmoveto
          -78 callsubr
          -220 682 rmoveto
          -77 callsubr
          209 227 rmoveto
          -28 callsubr
          endchar
        </CharString>
        <CharString name="Pemiddlehookcyrillic">
          84 430 1456 rmoveto
          112 callsubr
          endchar
        </CharString>
        <CharString name="Phi">
          448 964 1313 rmoveto
          81 callsubr
          -254 -1196 rmoveto
          82 callsubr
          179 hmoveto
          83 callsubr
          endchar
        </CharString>
        <CharString name="Pi">
          84 419 1456 rmoveto
          78 callsubr
          endchar
        </CharString>
        <CharString name="Psi">
          280 590 1466 rmoveto
          -166 hlineto
          -16 -74 -8 -72 0 -72 0 -71 8 -66 16 -61 16 -61 24 -57 34 -52 34 -52 46 -41 60 -30 41 -20 44 -14 51 -6 rrcurveto
          -152 -717 143 0 152 716 rlineto
          56 7 56 14 53 23 75 32 64 42 55 51 55 51 49 60 44 67 44 67 36 68 27 67 27 67 22 67 14 67 rrcurveto
          -166 hlineto
          -12 -57 -16 -55 -20 -55 -20 -55 -26 -54 -33 -55 -33 -55 -34 -47 -40 -41 -40 -41 -46 -33 -55 -26 -33 -16 -36 -10 -36 -6 rrcurveto
          126 594 -143 0 -126 -593 rlineto
          -27 5 -26 8 -22 12 -42 21 -33 29 -23 38 -23 38 -18 41 -10 45 -10 43 -6 47 0 52 rrcurveto
          8 vlineto
          0 71 9 73 16 74 rrcurveto
          endchar
        </CharString>
        <CharString name="Q">
          256 1258 725 rmoveto
          -42 -197 -61 -133 -91 -98 rrcurveto
          -166 149 -113 -116 158 -142 rlineto
          -57 -47 -102 -28 -68 0 -253 0 -73 199 0 204 rrcurveto
          5 vlineto
          0 71 9 71 13 62 68 322 205 307 277 0 238 0 82 -191 1 -218 0 -72 -10 -76 -15 -72 rrcurveto
          -1012 hmoveto
          -14 -67 -9 -72 0 -71 rrcurveto
          -6 vlineto
          -272 116 -266 343 vhcurveto
          162 0 104 58 98 67 rrcurveto
          145 -127 115 117 -140 121 rlineto
          100 102 111 197 47 219 15 69 7 75 0 74 0 275 -113 277 -339 0 -420 0 -260 -448 -68 -322 rrcurveto
          endchar
        </CharString>
        <CharString name="R">
          -13 444 774 rmoveto
          -76 callsubr
          273 -774 rmoveto
          -75 callsubr
          endchar
        </CharString>
        <CharString name="Racute">
          -13 444 774 rmoveto
          -76 callsubr
          273 -774 rmoveto
          -75 callsubr
          90 1045 rmoveto
          -23 callsubr
          endchar
        </CharString>
        <CharString name="Rcaron">
          -13 444 774 rmoveto
          -76 callsubr
          273 -774 rmoveto
          -75 callsubr
          639 1227 rmoveto
          9 callsubr
          endchar
        </CharString>
        <CharString name="Rcommaaccent">
          -13 444 774 rmoveto
          -76 callsubr
          273 -774 rmoveto
          -75 callsubr
          -28 -765 rmoveto
          15 callsubr
          endchar
        </CharString>
        <CharString name="Rfraktur">
          -13 444 774 rmoveto
          115 541 206 0 rlineto
          133 0 91 -24 52 -48 39 -36 19 -45 0 -55 0 -19 -2 -20 -4 -21 -6 -27 -7 -25 -11 -23 -11 -23 -17 -25 -22 -25 -22 -25 -27 -22 -31 -18 rrcurveto
          -31 -18 -41 -14 -49 -11 -49 -11 -56 -6 -63 0 rrcurveto
          273 -774 rmoveto
          181 0 -296 648 rlineto
          115 20 97 47 82 73 82 73 52 87 21 99 6 30 3 29 0 27 0 88 -33 72 -66 55 -87 72 -125 36 -161 0 rrcurveto
          -206 0 -158 0 -309 -1456 158 0 134 631 215 0 rlineto
          endchar
        </CharString>
        <CharString name="Rho">
          -15 444 774 rmoveto
          79 callsubr
          -220 682 rmoveto
          80 callsubr
          endchar
        </CharString>
        <CharString name="Rhoasper">
          120 579 774 rmoveto
          79 callsubr
          -220 682 rmoveto
          80 callsubr
          -349 215 rmoveto
          178 callsubr
          endchar
        </CharString>
        <CharString name="S">
          -35 115 327 rmoveto
          -74 callsubr
          endchar
        </CharString>
        <CharString name="Sacute">
          -35 115 327 rmoveto
          -74 callsubr
          505 1318 rmoveto
          -23 callsubr
          endchar
        </CharString>
        <CharString name="Scaron">
          -35 115 327 rmoveto
          -74 callsubr
          976 1500 rmoveto
          9 callsubr
          endchar
        </CharString>
        <CharString name="Scedilla">
          -35 115 327 rmoveto
          16 -107 42 -86 68 -65 68 -65 97 -33 127 0 93 0 86 14 79 28 79 28 68 44 59 61 59 61 38 74 18 87 6 30 3 29 0 28 rrcurveto
          20 vlineto
          -2 34 -5 30 -8 26 -8 26 -13 25 -17 24 -17 24 -17 21 -17 17 -17 17 -21 17 -25 16 -25 16 -22 14 -19 10 -19 10 -21 11 -25 11 rrcurveto
          -16 7 -18 8 -26 11 -26 11 -21 9 -16 7 -16 7 -18 9 -22 11 -22 11 -16 9 -13 10 -13 10 -13 12 -14 14 -14 14 -9 16 -6 15 rrcurveto
          -6 15 -4 18 -2 21 rrcurveto
          15 vlineto
          0 16 1 18 4 18 13 63 37 52 58 41 58 41 67 21 77 0 75 0 61 -18 48 -38 48 -38 26 -43 5 -48 rrcurveto
          158 25 rlineto
          -9 87 -38 72 -69 57 -69 57 -91 28 -115 0 -121 0 -108 -32 -95 -65 -95 -65 -60 -88 -23 -109 -7 -32 -3 -30 0 -28 rrcurveto
          -6 vlineto
          1 -30 4 -26 6 -22 6 -22 10 -22 14 -20 14 -20 13 -18 14 -14 14 -14 17 -12 21 -14 21 -14 18 -12 16 -8 16 -8 19 -9 23 -10 rrcurveto
          8 -4 18 -7 26 -11 26 -11 20 -8 16 -8 16 -8 23 -11 27 -14 27 -14 22 -14 17 -13 17 -13 19 -16 20 -19 20 -19 15 -19 11 -19 rrcurveto
          11 -19 6 -23 5 -25 2 -11 1 -11 0 -12 0 -15 -2 -15 -3 -15 -16 -76 -48 -62 -77 -48 -77 -48 -85 -24 -94 0 -77 0 -63 26 -52 53 rrcurveto
          -52 53 -26 55 -2 58 rrcurveto
          32 -652 rmoveto
          16 -125 rlineto
          8 4 17 9 28 15 28 15 22 12 16 10 16 10 19 14 22 16 22 16 18 17 13 19 13 19 9 20 4 21 2 9 2 13 0 16 rrcurveto
          -1 48 -16 45 -34 41 rrcurveto
          -141 -56 rlineto
          9 -17 8 -17 7 -15 7 -15 3 -14 0 -11 0 -7 0 -5 -1 -3 -2 -9 -5 -9 -8 -10 -8 -10 -12 -10 -15 -11 -15 -11 -11 -8 -7 -4 rrcurveto
          -7 -4 -11 -8 -15 -10 rrcurveto
          endchar
        </CharString>
        <CharString name="Schwacyrillic">
          106 1107 591 rmoveto
          141 callsubr
          -144 141 rmoveto
          142 callsubr
          endchar
        </CharString>
        <CharString name="Schwadieresiscyrillic">
          106 1107 591 rmoveto
          141 callsubr
          -144 141 rmoveto
          142 callsubr
          -562 951 rmoveto
          -28 callsubr
          471 2 rmoveto
          -27 callsubr
          endchar
        </CharString>
        <CharString name="Scircumflex">
          -35 115 327 rmoveto
          -74 callsubr
          905 1156 rmoveto
          -14 callsubr
          endchar
        </CharString>
        <CharString name="Scommaaccent">
          -35 115 327 rmoveto
          -74 callsubr
          99 -549 rmoveto
          32 callsubr
          endchar
        </CharString>
        <CharString name="Sdotaccent">
          -35 115 327 rmoveto
          -74 callsubr
          554 1325 rmoveto
          -28 callsubr
          endchar
        </CharString>
        <CharString name="Shhacyrillic">
          281 hmoveto
          115 540 rlineto
          13 59 15 54 21 50 21 50 26 45 30 40 30 40 33 30 39 23 39 23 43 11 45 0 45 0 38 -11 29 -22 29 -22 21 -31 12 -39 rrcurveto
          11 -37 4 -42 0 -46 rrcurveto
          -9 vlineto
          -1 -50 -6 -55 -13 -60 rrcurveto
          -115 -541 151 0 115 541 rlineto
          18 84 8 76 0 66 rrcurveto
          27 vlineto
          -3 72 -14 58 -23 45 -23 45 -34 33 -39 22 -39 22 -47 11 -55 0 -76 0 -70 -20 -63 -40 -63 -40 -45 -51 -32 -59 rrcurveto
          188 887 -152 0 -378 -1779 rlineto
          endchar
        </CharString>
        <CharString name="Sigma">
          84 419 1456 rmoveto
          -32 -151 390 -573 -635 -581 -32 -151 977 0 32 151 -778 0 633 583 -387 571 778 0 32 151 rlineto
          endchar
        </CharString>
        <CharString name="T">
          129 397 1456 rmoveto
          -73 callsubr
          endchar
        </CharString>
        <CharString name="Tau">
          129 397 1456 rmoveto
          -73 callsubr
          endchar
        </CharString>
</ttFont>
